<svg width="440" height="540" viewBox="0 0 440 540" fill="none" xmlns="http://www.w3.org/2000/svg">
<path opacity="0.07" d="M439.94 271.602C432.283 267.16 426.736 267.04 423.3 271.241C419.863 275.383 418.175 282.405 418.175 292.308V345.663C418.175 355.806 417.21 364.209 415.341 370.871C413.472 377.773 410.277 382.694 405.876 385.575C401.595 388.516 395.807 389.296 388.452 387.916C381.277 386.595 372.294 382.874 361.562 376.692L356.437 373.751V331.739L362.828 335.4C370.485 339.842 375.61 340.382 378.202 337.141C380.915 334.02 382.302 327.478 382.302 317.575V270.581C382.302 258.338 383.508 248.675 385.919 241.533C388.331 234.391 393.094 229.889 400.269 227.849C393.094 217.586 388.331 207.563 385.919 197.72C383.508 187.877 382.362 176.834 382.362 164.59V117.597C382.362 107.694 380.976 99.6514 378.263 93.3495C375.73 87.1677 370.606 81.8862 362.889 77.4449L356.498 73.7838V31.7716L361.622 34.7124C372.354 40.8942 381.337 47.4361 388.512 54.3982C395.867 61.4202 401.655 68.9224 405.936 76.7847C410.397 84.767 413.533 93.2895 415.402 102.352C417.271 111.175 418.235 120.718 418.235 130.8V184.156C418.235 194.059 419.923 203.062 423.36 211.104C426.796 219.206 432.343 225.448 440 229.829L439.94 271.602Z" fill="url(#paint0_linear)"/>
<path opacity="0.07" d="M245.503 117.056C253.16 121.498 258.707 121.618 262.143 117.417C265.58 113.275 267.268 106.253 267.268 96.3504V42.9948C267.268 32.8519 268.232 24.4494 270.101 17.7875C271.97 10.8855 275.045 5.90401 279.326 2.96315C283.787 0.0823096 289.575 -0.697918 296.75 0.622468C304.105 2.00287 313.149 5.78398 323.881 11.9658L329.005 14.9066V56.9189L322.614 53.2578C314.958 48.8165 309.712 48.2164 306.999 51.3373C304.467 54.5782 303.141 61.1201 303.141 71.023V118.017C303.141 130.26 301.935 139.923 299.523 147.065C297.112 154.147 292.349 158.709 285.174 160.749C292.349 171.012 297.112 181.035 299.523 190.878C301.935 200.721 303.08 211.764 303.08 224.008V271.001C303.08 280.904 304.346 288.947 306.939 295.128C309.652 301.43 314.897 306.772 322.554 311.153L328.945 314.814V356.827L323.82 353.886C313.089 347.704 304.045 341.102 296.69 334.08C289.515 327.118 283.727 319.676 279.266 311.693C274.985 303.831 271.91 295.369 270.041 286.246C268.172 277.423 267.207 267.881 267.207 257.798V204.442C267.207 194.539 265.519 185.536 262.083 177.494C258.646 169.392 253.1 163.15 245.443 158.769L245.503 117.056Z" fill="url(#paint1_linear)"/>
<path opacity="0.4" d="M415.824 289.607C408.167 285.166 402.62 285.045 399.183 289.247C395.747 293.388 394.059 300.41 394.059 310.313V363.668C394.059 373.811 393.094 382.214 391.225 388.876C389.356 395.778 386.161 400.699 381.759 403.58C377.479 406.521 371.691 407.301 364.335 405.921C357.161 404.6 348.178 400.879 337.446 394.697L332.321 391.757V349.744L338.712 353.405C346.369 357.847 351.494 358.387 354.086 355.146C356.799 352.025 358.186 345.483 358.186 335.58V288.587C358.186 276.343 359.392 266.68 361.803 259.538C364.215 252.396 368.978 247.895 376.152 245.854C368.978 235.591 364.215 225.568 361.803 215.725C359.392 205.882 358.246 194.839 358.246 182.596V135.602C358.246 125.699 356.859 117.657 354.146 111.355C351.614 105.173 346.489 99.8914 338.772 95.4501L332.381 91.7891V49.7768L337.506 52.7177C348.238 58.8995 357.221 65.4414 364.396 72.4034C371.751 79.4255 377.539 86.9277 381.82 94.79C386.281 102.772 389.416 111.295 391.285 120.357C393.154 129.18 394.119 138.723 394.119 148.806V202.161C394.119 212.064 395.807 221.067 399.244 229.109C402.68 237.212 408.227 243.453 415.884 247.835L415.824 289.607Z" fill="url(#paint2_linear)"/>
<path opacity="0.4" d="M221.387 135.062C229.044 139.503 234.59 139.623 238.027 135.422C241.463 131.281 243.152 124.259 243.152 114.356V61.0001C243.152 50.8571 244.116 42.4547 245.985 35.7927C247.854 28.8907 250.929 23.9093 255.21 20.9684C259.671 18.0876 265.459 17.3073 272.634 18.6277C279.989 20.0081 289.033 23.7892 299.764 29.971L304.889 32.9119V74.9242L298.498 71.2631C290.841 66.8218 285.596 66.2216 282.883 69.3425C280.351 72.5835 279.024 79.1254 279.024 89.0283V136.022C279.024 148.266 277.819 157.928 275.407 165.07C272.995 172.153 268.232 176.714 261.058 178.754C268.232 189.017 272.995 199.04 275.407 208.883C277.819 218.726 278.964 229.769 278.964 242.013V289.007C278.964 298.91 280.23 306.952 282.823 313.134C285.536 319.436 290.781 324.777 298.438 329.158L304.829 332.819V374.832L299.704 371.891C288.972 365.709 279.929 359.107 272.573 352.085C265.399 345.123 259.611 337.681 255.149 329.699C250.869 321.836 247.794 313.374 245.925 304.251C244.056 295.429 243.091 285.886 243.091 275.803V222.447C243.091 212.544 241.403 203.542 237.967 195.499C234.53 187.397 228.983 181.155 221.326 176.774L221.387 135.062Z" fill="url(#paint3_linear)"/>
<path opacity="0.15" d="M87.5418 7.34442L190.578 66.5817L190.518 312.233L87.4815 252.996L87.5418 7.34442Z" fill="url(#paint4_linear)"/>
<path d="M68.1886 45.0954L150.123 92.2092V114.836L68.1886 67.7221V45.0954Z" fill="white"/>
<path opacity="0.15" d="M100.263 143.284L179.003 188.537V223.708L100.263 178.454V143.284Z" fill="white"/>
<path opacity="0.15" d="M100.203 100.732L179.063 146.045V154.207L100.203 108.954V100.732Z" fill="white"/>
<path opacity="0.15" d="M100.203 116.696L168.391 155.888V164.05L100.203 124.859V116.696Z" fill="white"/>
<path opacity="0.2" d="M87.5419 7.34442L190.578 66.5817V99.5313L87.5419 40.294V7.34442Z" fill="url(#paint5_linear)"/>
<path opacity="0.2" d="M113.286 38.7936C113.286 43.7751 110.332 46.1158 106.714 44.0752C103.097 41.9746 100.203 36.2729 100.203 31.2914C100.203 26.31 103.157 23.9693 106.775 26.0099C110.332 28.1105 113.286 33.8122 113.286 38.7936Z" fill="white"/>
<path opacity="0.15" d="M214.152 235.111L317.188 294.348L317.128 540L214.092 480.763L214.152 235.111Z" fill="url(#paint6_linear)"/>
<path d="M253.401 306.592L335.336 353.646V376.212L253.341 329.158L253.401 306.592Z" fill="white"/>
<path opacity="0.15" d="M226.873 329.939L305.673 375.252V410.362L226.873 365.049V329.939Z" fill="white"/>
<path opacity="0.15" d="M226.753 380.113L305.612 425.427V433.589L226.753 388.336V380.113Z" fill="white"/>
<path opacity="0.15" d="M226.753 394.878L294.941 434.069V442.231L226.753 403.04V394.878Z" fill="white"/>
<path opacity="0.2" d="M214.152 235.111L317.188 294.348V327.298L214.152 268.061V235.111Z" fill="url(#paint7_linear)"/>
<path opacity="0.2" d="M239.896 266.62C239.896 271.602 236.942 273.942 233.324 271.902C229.707 269.801 226.813 264.099 226.813 259.118C226.813 254.136 229.767 251.796 233.385 253.836C236.942 255.877 239.896 261.639 239.896 266.62Z" fill="white"/>
<path opacity="0.3" d="M196.306 269.141L16.9417 166.091L17.0019 259.178L180.57 353.165L196.426 376.512L196.306 269.141Z" fill="url(#paint8_linear)"/>
<path opacity="0.15" d="M150.184 265.3L110.874 242.733V250.896L150.184 273.462V265.3Z" fill="white"/>
<path opacity="0.15" d="M150.184 281.685L52.8749 225.748V233.911L150.244 289.847L150.184 281.685Z" fill="white"/>
<path opacity="0.15" d="M150.244 298.069L32.7379 230.55V238.712L150.244 306.232V298.069Z" fill="white"/>
<path d="M159.89 279.404C159.89 287.086 164.473 295.909 170.08 299.15C175.687 302.391 180.269 298.79 180.269 291.107C180.269 283.425 175.687 274.603 170.08 271.362C164.412 268.121 159.89 271.722 159.89 279.404Z" fill="white"/>
<path opacity="0.15" d="M34.6671 100.732L10.9127 87.0477V79.0654L34.6671 92.7494C36.5964 93.8897 39.43 96.1103 41.8417 99.5914C44.4342 103.312 46.3032 107.994 46.3032 113.095C46.3032 118.737 44.8562 121.918 42.1431 122.878C39.5506 123.718 36.5361 122.278 34.6671 121.198L24.9 115.556L24.8398 115.496C23.9957 115.016 22.6693 114.536 21.6444 114.836C20.8003 115.076 19.7754 115.976 19.7754 119.097C19.7754 122.218 20.74 124.139 21.5841 125.279C22.609 126.719 23.9354 127.74 24.7795 128.16L24.9 128.22L54.8041 145.385V153.367L25.0809 136.262C23.031 135.182 20.0768 132.961 17.5446 129.42C14.7712 125.519 12.842 120.597 12.842 115.076C12.842 109.614 14.7712 106.793 17.4843 106.013C20.0165 105.293 22.9708 106.373 25.0206 107.574L34.7274 113.155C36.1141 113.936 37.1993 114.296 37.8625 114.056C38.4051 113.876 39.3698 113.095 39.3698 109.074C39.3698 106.433 38.5257 104.753 37.6816 103.553C36.717 102.232 35.4509 101.152 34.6671 100.732Z" fill="white"/>
<path d="M17.9666 87.8879C17.9666 94.7299 13.9271 97.9109 8.98328 95.09C4.03946 92.2692 0 84.4069 0 77.5649C0 70.7229 4.03946 67.542 8.98328 70.3628C13.9271 73.2437 17.9666 81.106 17.9666 87.8879Z" fill="white"/>
<path d="M65.596 153.907C65.596 160.749 61.5566 163.93 56.6127 161.109C51.6689 158.288 47.6295 150.426 47.6295 143.584C47.6295 136.742 51.6689 133.561 56.6127 136.382C61.5566 139.263 65.596 147.125 65.596 153.907Z" fill="white"/>
<path opacity="0.2" d="M129.685 362.588C133.302 364.689 136.196 369.67 136.196 373.871V392.177L148.375 399.139C151.992 401.239 154.886 406.221 154.886 410.422C154.886 414.563 151.932 416.244 148.375 414.203L136.196 407.241V425.547C136.196 429.688 133.242 431.368 129.685 429.328C126.068 427.227 123.174 422.246 123.174 418.044V399.739L110.995 392.777C107.378 390.676 104.484 385.695 104.484 381.494C104.484 377.352 107.438 375.672 110.995 377.713L123.174 384.675V366.369C123.174 362.168 126.068 360.488 129.685 362.588Z" fill="url(#paint9_linear)"/>
<defs>
<linearGradient id="paint0_linear" x1="477.871" y1="43.9062" x2="330.186" y2="301.03" gradientUnits="userSpaceOnUse">
<stop stop-color="white"/>
<stop offset="1" stop-color="white" stop-opacity="0"/>
</linearGradient>
<linearGradient id="paint1_linear" x1="406.374" y1="1.73087" x2="258.689" y2="258.855" gradientUnits="userSpaceOnUse">
<stop stop-color="white"/>
<stop offset="1" stop-color="white" stop-opacity="0"/>
</linearGradient>
<linearGradient id="paint2_linear" x1="453.755" y1="61.9115" x2="306.07" y2="319.035" gradientUnits="userSpaceOnUse">
<stop stop-color="white"/>
<stop offset="1" stop-color="white" stop-opacity="0"/>
</linearGradient>
<linearGradient id="paint3_linear" x1="382.257" y1="19.736" x2="234.573" y2="276.86" gradientUnits="userSpaceOnUse">
<stop stop-color="white"/>
<stop offset="1" stop-color="white" stop-opacity="0"/>
</linearGradient>
<linearGradient id="paint4_linear" x1="192.448" y1="67.634" x2="94.681" y2="237.786" gradientUnits="userSpaceOnUse">
<stop stop-color="white"/>
<stop offset="1" stop-color="white" stop-opacity="0"/>
</linearGradient>
<linearGradient id="paint5_linear" x1="122.894" y1="7.84599" x2="154.001" y2="96.4468" gradientUnits="userSpaceOnUse">
<stop stop-color="white"/>
<stop offset="1" stop-color="white" stop-opacity="0"/>
</linearGradient>
<linearGradient id="paint6_linear" x1="319.053" y1="295.416" x2="221.287" y2="465.567" gradientUnits="userSpaceOnUse">
<stop stop-color="white"/>
<stop offset="1" stop-color="white" stop-opacity="0"/>
</linearGradient>
<linearGradient id="paint7_linear" x1="249.5" y1="235.628" x2="280.606" y2="324.228" gradientUnits="userSpaceOnUse">
<stop stop-color="white"/>
<stop offset="1" stop-color="white" stop-opacity="0"/>
</linearGradient>
<linearGradient id="paint8_linear" x1="157.197" y1="231.889" x2="64.8796" y2="304.499" gradientUnits="userSpaceOnUse">
<stop stop-color="white"/>
<stop offset="1" stop-color="white" stop-opacity="0"/>
</linearGradient>
<linearGradient id="paint9_linear" x1="142.261" y1="385.973" x2="110.796" y2="410.902" gradientUnits="userSpaceOnUse">
<stop stop-color="white"/>
<stop offset="1" stop-color="white" stop-opacity="0"/>
</linearGradient>
</defs>
</svg>
