<svg width="500" height="355" viewBox="0 0 500 355" fill="none" xmlns="http://www.w3.org/2000/svg">
<path d="M386.2 69.2562C396.143 69.2562 404.204 61.2364 404.204 51.3433C404.204 41.4502 396.143 33.4303 386.2 33.4303C376.256 33.4303 368.196 41.4502 368.196 51.3433C368.196 61.2364 376.256 69.2562 386.2 69.2562Z" fill="white" fill-opacity="0.5"/>
<path d="M463.689 28.5405H385.053V43.487H463.689V28.5405Z" fill="white" fill-opacity="0.15"/>
<path d="M414.885 178.804L433.84 170.606V192.887L414.885 178.804Z" fill="white" fill-opacity="0.5"/>
<path d="M200.275 339.776C199.964 339.776 199.653 339.662 199.407 339.418L182.615 322.711C182.14 322.238 182.14 321.456 182.615 320.983C183.09 320.511 183.877 320.511 184.352 320.983L201.144 337.69C201.619 338.163 201.619 338.945 201.144 339.418C200.898 339.662 200.587 339.776 200.275 339.776Z" fill="white" fill-opacity="0.3"/>
<path d="M183.483 339.776C183.172 339.776 182.861 339.662 182.615 339.418C182.14 338.945 182.14 338.163 182.615 337.69L199.407 320.983C199.882 320.511 200.669 320.511 201.144 320.983C201.619 321.456 201.619 322.238 201.144 322.711L184.352 339.418C184.106 339.662 183.795 339.776 183.483 339.776Z" fill="white" fill-opacity="0.3"/>
<path d="M200.275 303.592C200.046 303.592 199.817 303.527 199.604 303.396C199.03 303.022 198.867 302.272 199.243 301.701L208.041 288.254C208.417 287.684 209.171 287.521 209.744 287.896C210.318 288.271 210.482 289.02 210.105 289.591L201.307 303.038C201.062 303.396 200.669 303.592 200.275 303.592Z" fill="white" fill-opacity="0.3"/>
<path d="M209.073 310.519C208.712 310.519 208.336 310.356 208.106 310.046C207.697 309.509 207.795 308.742 208.319 308.335L217.33 301.408C217.87 301 218.64 301.098 219.05 301.62C219.459 302.158 219.361 302.924 218.837 303.331L209.826 310.258C209.597 310.438 209.335 310.519 209.073 310.519Z" fill="white" fill-opacity="0.3"/>
<path d="M83.6652 96.3132C83.2884 96.3132 82.9116 96.1339 82.6659 95.8079L76.244 86.9249C75.8508 86.3707 75.9655 85.6046 76.5225 85.2134C77.0795 84.8222 77.8494 84.9527 78.2426 85.4905L84.6645 94.3736C85.0577 94.9278 84.943 95.6939 84.386 96.0851C84.1731 96.2481 83.911 96.3132 83.6652 96.3132Z" fill="white" fill-opacity="0.3"/>
<path d="M83.6652 64.3992C83.1573 64.3992 82.6822 64.0895 82.502 63.5842C82.2726 62.9486 82.6167 62.2477 83.2556 62.0195L98.9008 56.4776C99.5397 56.2495 100.244 56.5918 100.474 57.2275C100.703 57.8631 100.359 58.564 99.72 58.7922L84.0747 64.3339C83.9437 64.3665 83.7962 64.3992 83.6652 64.3992Z" fill="white" fill-opacity="0.3"/>
<path d="M139.513 134.095C149.998 130.917 159.811 126.434 168.919 120.469C167.429 115.449 166.134 109.483 161.973 104.349C161.973 104.349 158.074 90.7877 150.096 90.6736C146.82 90.6247 146.279 95.2863 146.279 95.2863C146.279 95.2863 143.166 96.0849 142.216 97.0466C139.775 99.4752 139.447 103.42 139.447 103.42C134.811 105.05 133.714 113.085 138.006 129.613C138.399 131.096 138.907 132.596 139.513 134.095Z" fill="white"/>
<path d="M226.389 114.471C212.841 118.692 183.828 133.932 175.636 130.395C170.509 128.195 169.558 122.359 167.625 115.921C159.696 123.223 149.162 127.51 138.17 130.542C141.495 151.405 171.541 171.958 171.541 171.958C171.541 171.958 239.937 110.265 226.389 114.471Z" fill="#2D3C5A"/>
<path d="M66.136 229.837C65.8739 229.837 65.6118 229.756 65.3988 229.593C64.8582 229.185 64.7435 228.419 65.153 227.882L237.824 0.505806C238.234 -0.0320717 239.004 -0.146157 239.544 0.261326C240.085 0.66881 240.199 1.43486 239.79 1.97274L67.1189 229.349C66.8732 229.675 66.5128 229.837 66.136 229.837Z" fill="#2D3C5A"/>
<path d="M47.0995 92.0427L39.7274 132.775L0 117.176L16.3824 49.9416C24.9341 50.9358 29.1608 58.6943 31.8147 67.3329C31.9785 67.8545 32.126 68.376 32.2734 68.9139C32.6994 70.4135 33.0925 71.9293 33.4366 73.4452C33.5676 73.9831 33.6987 74.5372 33.8134 75.0751C34.4687 77.9438 35.0421 80.7146 35.6318 83.1758C38.4988 95.2048 47.0995 92.0427 47.0995 92.0427Z" fill="#2D3C5A"/>
<path d="M177.537 154.045C128.799 138.154 40.7432 86.2238 40.7432 86.2238C40.7432 86.2238 26.8181 138.154 22.7225 151.193C22.7225 151.193 75.9654 173.197 97.2626 185.422C97.2626 185.422 196.376 178.902 194.329 165.862C192.281 152.823 177.537 154.045 177.537 154.045Z" fill="white"/>
<path d="M33.8133 75.0751L26.6706 78.6447C25.7204 79.1174 24.9013 77.7157 25.8351 77.243L33.4365 73.4452C33.5676 73.9831 33.6987 74.5373 33.8133 75.0751Z" fill="white"/>
<path d="M32.2734 68.9139L24.7866 72.6629C23.8528 73.1356 23.0173 71.7337 23.9675 71.2611L31.8147 67.333C31.9785 67.8545 32.1259 68.3761 32.2734 68.9139Z" fill="white"/>
<path d="M213.988 227.393L133.714 233.505L178.47 160.174L238.807 199.684L213.988 227.393Z" fill="white"/>
<path d="M262.938 118.66C243.951 107.967 219.132 110.95 207.648 128.635C194.132 149.482 165.02 147.852 165.02 147.852C165.02 147.852 219.59 197.01 233.368 216.733C233.368 216.733 268.312 180.059 273.734 162.505C277.764 149.482 283.253 130.085 262.938 118.66Z" fill="#2D3C5A"/>
<path d="M172.343 150.916C171.721 150.916 171.18 150.443 171.115 149.808C171.049 149.139 171.541 148.536 172.212 148.471C187.874 146.939 203.798 135.725 212.677 126.581C213.152 126.092 213.922 126.076 214.414 126.549C214.905 127.021 214.921 127.787 214.446 128.276C204.846 138.17 188.775 149.302 172.458 150.9C172.425 150.916 172.393 150.916 172.343 150.916Z" fill="white"/>
<path d="M217.035 241.654H77.4235C75.261 241.654 73.246 240.546 72.0992 238.704L53.6526 209.235C51.0478 205.079 54.0621 199.684 58.9769 199.684H198.588C200.751 199.684 202.766 200.792 203.912 202.634L222.359 232.103C224.964 236.259 221.966 241.654 217.035 241.654Z" fill="#2D3C5A"/>
<path d="M206.403 229.495H135.434C134.762 229.495 134.205 228.941 134.205 228.273C134.205 227.604 134.762 227.05 135.434 227.05H206.386C207.058 227.05 207.615 227.604 207.615 228.273C207.615 228.941 207.074 229.495 206.403 229.495Z" fill="white" fill-opacity="0.3"/>
<path d="M200.521 214.532H152.471C151.8 214.532 151.243 213.978 151.243 213.31C151.243 212.641 151.8 212.087 152.471 212.087H200.521C201.193 212.087 201.75 212.641 201.75 213.31C201.75 213.978 201.193 214.532 200.521 214.532Z" fill="white" fill-opacity="0.3"/>
<path d="M99.2612 307.259L133.779 296.974L144.968 334.838L78.4555 355C74.966 347.176 79.5367 339.597 85.6638 332.931C86.0242 332.523 86.401 332.132 86.7942 331.741C87.8754 330.616 88.9894 329.508 90.1198 328.432C90.513 328.041 90.9389 327.65 91.3321 327.275C93.4782 325.254 95.5915 323.347 97.41 321.603C106.371 313.029 99.2612 307.259 99.2612 307.259Z" fill="#2D3C5A"/>
<path d="M91.3321 327.275L98.0489 331.578C98.9336 332.148 98.1472 333.566 97.2626 333.012L90.1035 328.432C90.513 328.041 90.9226 327.65 91.3321 327.275Z" fill="white"/>
<path d="M86.7778 331.725L93.8223 336.239C94.7069 336.794 93.9206 338.228 93.0195 337.658L85.631 332.931C86.0242 332.523 86.401 332.132 86.7778 331.725Z" fill="white"/>
<path d="M179.683 167.248C171.803 164.184 163.3 162.489 155.027 160.207C105.388 162.326 60.7789 169.432 62.8594 213.799C65.3168 266.364 87.2857 321.586 87.2857 321.586L145.673 306.444C145.673 306.444 130.322 239.747 126.636 223.448L168.526 195.609L179.683 167.248Z" fill="white"/>
<path d="M125.309 222.975C124.752 222.975 124.261 222.601 124.114 222.046L121.591 211.973C121.427 211.321 121.82 210.653 122.492 210.49C123.147 210.327 123.819 210.735 123.982 211.387L126.505 221.46C126.669 222.112 126.276 222.78 125.604 222.943C125.506 222.959 125.408 222.975 125.309 222.975Z" fill="#2D3C5A"/>
<path d="M169.951 175.381C169.82 175.381 169.706 175.365 169.575 175.316C134.795 164.184 102.636 168.014 84.1238 175.284C83.5013 175.528 82.7805 175.218 82.5347 174.599C82.289 173.98 82.6003 173.262 83.2228 173.018C102.128 165.585 134.942 161.674 170.328 172.985C170.967 173.197 171.328 173.882 171.115 174.518C170.951 175.039 170.476 175.381 169.951 175.381Z" fill="#2D3C5A"/>
<path d="M163.333 87.0226C157.059 87.0226 161.482 99.1655 161.482 99.1655C161.482 99.1655 159.319 99.948 157.075 101.496L154.388 98.8233L140.889 113.069C148.146 120.925 144.804 119.703 148.703 119.703C150.522 119.703 154.732 119.377 157.435 115.872C161.58 117.16 166.609 116.557 166.609 116.557C175.898 104.332 167.936 87.0226 163.333 87.0226Z" fill="white"/>
<path d="M144.952 105.066C144.182 104.365 143.019 105.506 143.789 106.223C146.443 108.635 148.982 111.635 150.227 115.041C150.751 116.475 151.669 119.328 148.703 119.686C147.376 119.849 146.017 118.334 145.296 117.47C144.247 116.215 143.51 114.927 142.298 113.802C141.528 113.085 140.365 114.242 141.135 114.96C143.15 116.834 144.247 119.849 146.951 120.925C148.867 121.691 150.964 121.186 151.931 119.263C154.306 114.52 148.097 107.935 144.952 105.066Z" fill="#172A3A"/>
<path d="M158.795 99.7361C158.091 98.9537 156.944 100.111 157.632 100.893C160.417 104.039 159.778 108.57 156.272 110.869C155.699 106.696 151.751 101.985 149.441 99.4427C148.736 98.6603 147.573 99.8175 148.278 100.6C150.931 103.534 158.156 111.732 152.832 115.204C151.947 115.775 152.766 117.193 153.651 116.606C155.404 115.465 156.174 113.998 156.305 112.384C156.518 112.482 156.747 112.482 157.009 112.319C161.531 109.467 162.317 103.729 158.795 99.7361Z" fill="#172A3A"/>
<path d="M251.52 74.1298C246.736 75.9227 240.953 78.5306 235.825 76.9658C231.058 75.5152 228.912 71.0818 225.75 67.5612C220.639 61.889 213.676 58.352 206.042 57.7326C189.561 56.3635 178.044 70.3484 184.761 85.8816C190.741 99.7361 205.452 108.668 220.164 110.282C234.449 111.846 253.699 106.06 256.598 90.0053C256.828 88.7666 256.647 87.3974 256.189 86.126C262.43 82.4261 259.007 71.3263 251.52 74.1298Z" fill="#172A3A"/>
<path d="M281.795 94.5692C279.222 107.364 272.26 118.203 256.254 113.591C245.344 110.445 237.447 99.0678 240.019 86.2728C242.591 73.4778 254.026 64.9533 265.56 67.2515C277.093 69.5497 284.367 81.7742 281.795 94.5692Z" fill="white"/>
<path d="M278.944 76.9333C291.673 73.2334 279.927 60.1124 265.56 67.2352C254.026 64.937 242.591 73.4615 240.019 86.2565C239.97 86.501 239.954 86.7455 239.905 86.9737C241.707 86.9737 248.423 87.6746 254.747 82.7522C263.594 82.1165 275.553 76.2488 278.944 76.9333Z" fill="#172A3A"/>
<path d="M265.232 92.9718C266.137 92.9718 266.87 92.242 266.87 91.3419C266.87 90.4417 266.137 89.7119 265.232 89.7119C264.327 89.7119 263.594 90.4417 263.594 91.3419C263.594 92.242 264.327 92.9718 265.232 92.9718Z" fill="#172A3A"/>
<path d="M275.52 100.47C275.749 96.8185 275.455 93.2 274.635 89.6305C274.406 88.6036 272.784 88.9133 273.03 89.9402C273.816 93.3793 274.095 96.8511 273.882 100.355C273.816 101.399 275.454 101.513 275.52 100.47Z" fill="#172A3A"/>
<path d="M247.588 102.116C240.167 106.973 232.5 103.045 229.404 97.7964C226.537 92.9229 229.584 86.8758 236.595 86.2565C238.954 86.0446 241.74 86.4684 244.901 87.7398C244.901 87.7398 246.818 89.549 248.358 91.9776C250.373 95.1559 251.766 99.3774 247.588 102.116Z" fill="white"/>
<path d="M243.853 95.5634C241.952 92.222 238.004 90.5269 234.269 91.6027C233.27 91.8961 233.565 93.4934 234.58 93.2C237.595 92.3361 240.806 93.526 242.378 96.2643C242.903 97.1933 244.377 96.4925 243.853 95.5634Z" fill="#172A3A"/>
<path d="M397.258 105.555C406.465 104.121 411.806 107.185 414.05 113.509C416.294 119.833 398.896 130.428 398.896 130.428L386.2 117.828L397.258 105.555Z" fill="white"/>
<path d="M408.939 130.004C407.3 122.669 392.556 128.374 390.918 117.779C389.28 107.185 412.969 106.989 405.597 98.8396C402.566 95.4983 390.312 102.637 381.089 110.543C376.354 114.601 371.718 119.181 367 123.778C370.145 131.569 373.847 139.767 379.123 146.157C381.433 148.96 380.761 151.323 383.693 153.573C386.249 146.988 388.968 140.647 390.934 138.577C397.471 131.634 410.577 137.339 408.939 130.004Z" fill="white"/>
<path d="M371.963 123.924C371.161 122.637 370.768 121.349 370.702 120.143C361.053 129.515 341.803 142.685 330.303 149.156C319.032 155.48 293.442 135.709 265.232 120.371C265.232 120.371 247.572 143.451 260.94 160.174C274.291 176.913 296.637 198.021 335.644 196.31C364.903 195.038 386.233 160.174 389.1 145.586C382.596 138.969 376.813 131.683 371.963 123.924Z" fill="#2D3C5A"/>
<path d="M404.81 125.815C399.732 125.685 391.344 124.967 391.328 118.04C391.328 112.482 397.16 109.385 401.419 107.185C402.353 106.696 401.534 105.294 400.6 105.783C395.456 108.456 388.723 112.58 389.804 119.409C390.902 126.385 399.191 127.315 404.827 127.445C405.859 127.461 405.859 125.831 404.81 125.815Z" fill="#172A3A"/>
<path d="M398.421 114.78C397.487 114.291 396.668 115.693 397.602 116.182C400.944 117.959 401.468 122.099 398.667 124.674C397.897 125.391 399.044 126.532 399.83 125.831C403.369 122.588 402.681 117.062 398.421 114.78Z" fill="#172A3A"/>
<path d="M405.662 112.287C404.974 111.488 403.827 112.645 404.499 113.444C407.3 116.704 407.35 121.153 404.581 124.462C403.909 125.261 405.072 126.418 405.744 125.619C409.102 121.593 409.07 116.264 405.662 112.287Z" fill="white"/>
<path d="M265.347 168.927C264.921 168.927 264.495 168.699 264.265 168.307L260.759 162.048C260.432 161.462 260.645 160.712 261.235 160.386C261.824 160.06 262.578 160.272 262.906 160.859L266.411 167.117C266.739 167.704 266.526 168.454 265.936 168.78C265.756 168.878 265.543 168.927 265.347 168.927Z" fill="#F0F5FA"/>
<path d="M452.28 58.0602L394.377 114.828L442.097 163.01L500 106.242L452.28 58.0602Z" fill="#2D3C5A"/>
<path d="M418.932 124.201C420.515 124.201 421.799 122.924 421.799 121.349C421.799 119.774 420.515 118.497 418.932 118.497C417.349 118.497 416.065 119.774 416.065 121.349C416.065 122.924 417.349 124.201 418.932 124.201Z" fill="white"/>
<path d="M425.927 117.323C427.511 117.323 428.794 116.046 428.794 114.471C428.794 112.895 427.511 111.618 425.927 111.618C424.344 111.618 423.06 112.895 423.06 114.471C423.06 116.046 424.344 117.323 425.927 117.323Z" fill="white"/>
<path d="M470.16 100.502L456.448 113.949C454.793 115.563 452.139 115.546 450.517 113.9C448.896 112.254 448.912 109.614 450.567 108L464.279 94.5529C465.933 92.9393 468.587 92.9556 470.209 94.6018C471.831 96.2317 471.815 98.8885 470.16 100.502Z" fill="white"/>
<path d="M454.597 96.2481L446.651 104.039C444.996 105.653 442.342 105.637 440.721 103.99C439.099 102.344 439.115 99.7036 440.77 98.0899L448.715 90.2988C450.37 88.6852 453.024 88.7015 454.646 90.3477C456.268 91.9777 456.235 94.6344 454.597 96.2481Z" fill="white"/>
<path d="M479.973 110.396L466.261 123.843C464.606 125.456 461.952 125.44 460.33 123.794C458.709 122.148 458.725 119.507 460.38 117.894L474.092 104.447C475.746 102.833 478.4 102.849 480.022 104.495C481.644 106.142 481.611 108.782 479.973 110.396Z" fill="white"/>
<path d="M419.276 83.5997C418.785 83.5997 418.326 83.3064 418.129 82.8174L413.362 70.6092C413.116 69.9735 413.428 69.2726 414.066 69.0281C414.705 68.7836 415.41 69.0933 415.656 69.729L420.423 81.9373C420.669 82.5729 420.357 83.2738 419.718 83.5183C419.587 83.5672 419.44 83.5997 419.276 83.5997Z" fill="white"/>
<path d="M413.1 88.2288C412.789 88.2288 412.461 88.1147 412.232 87.8702L406.612 82.1981C406.137 81.7254 406.137 80.943 406.629 80.4703C407.12 79.9977 407.89 79.9977 408.365 80.4867L413.968 86.1425C414.443 86.6152 414.443 87.3975 413.952 87.8702C413.722 88.1147 413.411 88.2288 413.1 88.2288Z" fill="white"/>
<path d="M394.604 2.4617H204.666C203.994 2.4617 203.437 1.90752 203.437 1.23925C203.437 0.570977 203.994 0.0167999 204.666 0.0167999H394.604C395.276 0.0167999 395.833 0.570977 395.833 1.23925C395.833 1.90752 395.276 2.4617 394.604 2.4617Z" fill="#2D3C5A"/>
<path d="M212.398 217.939C212.136 217.939 211.874 217.857 211.661 217.694C211.121 217.287 211.006 216.521 211.416 215.983L375.06 0.489419C375.469 -0.0484597 376.239 -0.162545 376.78 0.244938C377.321 0.652422 377.435 1.41847 377.026 1.95635L213.381 217.45C213.136 217.776 212.775 217.939 212.398 217.939Z" fill="#2D3C5A"/>
</svg>
