<svg width="320" height="400" viewBox="0 0 320 400" fill="none" xmlns="http://www.w3.org/2000/svg">
<path d="M295.554 325.983C295.439 325.983 295.367 325.98 295.342 325.978L281.579 325.98V323.952H295.392C295.711 323.963 302.236 324.147 308.248 316.858C317.206 305.994 324.564 279.099 308.736 212.67C287.454 123.347 305.204 44.4344 313.823 14.6531C314.248 13.1796 314.324 11.6277 314.045 10.1199C313.767 8.61215 313.141 7.1898 312.218 5.96525C311.294 4.7407 310.098 3.74751 308.725 3.06417C307.351 2.38083 305.838 2.02605 304.303 2.02788H98.7651C97.2025 2.02997 95.6623 2.40024 94.2697 3.10862C92.8771 3.817 91.6712 4.84355 90.7499 6.10492C87.0987 11.1241 82.088 20.7664 78.9524 38.2013L76.9554 37.8429C80.1588 20.0292 85.3325 10.1032 89.1086 4.91276C90.2183 3.39286 91.6711 2.15589 93.3489 1.3023C95.0267 0.448702 96.8823 0.00252552 98.7651 5.51786e-06H304.303C306.152 -0.00177245 307.976 0.426148 309.631 1.24996C311.286 2.07377 312.727 3.2709 313.839 4.74676C314.952 6.22263 315.706 7.9368 316.041 9.75384C316.377 11.5709 316.285 13.441 315.773 15.2165C307.198 44.8434 289.54 123.346 310.711 212.201C326.76 279.564 319.045 307.041 309.746 318.23C303.613 325.609 296.855 325.983 295.554 325.983Z" fill="white" fill-opacity="0.15"/>
<path d="M258.521 362.991C258.406 362.991 258.333 362.988 258.308 362.987L244.545 362.988V360.961H258.358C258.679 360.97 265.202 361.156 271.214 353.866C280.173 343.002 287.53 316.108 271.702 249.679C250.421 160.355 268.17 81.4431 276.79 51.6617C277.214 50.1883 277.29 48.6364 277.012 47.1286C276.733 45.6208 276.107 44.1985 275.184 42.9739C274.26 41.7494 273.065 40.7562 271.691 40.0728C270.317 39.3895 268.804 39.0347 267.269 39.0365H61.7313C60.1686 39.0386 58.6285 39.4089 57.2359 40.1173C55.8432 40.8257 54.6374 41.8522 53.7161 43.1136C50.0649 48.1328 45.0541 57.7751 41.9187 75.21L39.9214 74.8516C43.125 57.0379 48.2987 47.1119 52.0748 41.9214C53.1845 40.4015 54.6373 39.1646 56.3151 38.311C57.9929 37.4574 59.8486 37.0112 61.7313 37.0087H267.269C269.118 37.0069 270.942 37.4348 272.598 38.2586C274.253 39.0824 275.693 40.2796 276.806 41.7554C277.918 43.2313 278.672 44.9455 279.007 46.7625C279.343 48.5796 279.251 50.4497 278.739 52.2251C270.164 81.8521 252.506 160.355 273.677 249.209C289.726 316.573 282.011 344.05 272.712 355.238C266.579 362.618 259.821 362.991 258.521 362.991Z" fill="white" fill-opacity="0.3"/>
<path d="M221.487 400C221.372 400 221.299 399.997 221.274 399.996L18.904 399.997C16.9557 399.999 15.0364 399.524 13.3143 398.614C11.5921 397.703 10.1195 396.385 9.02537 394.774C7.93123 393.163 7.24887 391.308 7.03802 389.373C6.82716 387.437 7.09423 385.479 7.81586 383.671C15.1585 365.338 25.045 321.355 8.761 232.757C-10.4676 128.139 6.74712 90.3299 15.0409 78.93C16.1506 77.4101 17.6034 76.1731 19.2813 75.3195C20.9592 74.4659 22.8148 74.0198 24.6976 74.0173H230.236C232.085 74.0155 233.909 74.4434 235.564 75.2672C237.219 76.091 238.659 77.2882 239.772 78.764C240.884 80.2399 241.638 81.9541 241.974 83.7711C242.309 85.5882 242.217 87.4583 241.705 89.2338C233.131 118.861 215.473 197.363 236.643 286.218C252.693 353.581 244.977 381.059 235.678 392.247C229.545 399.626 222.787 400 221.487 400ZM24.6976 76.0451C23.1349 76.0472 21.5947 76.4175 20.2021 77.1259C18.8094 77.8343 17.6035 78.8608 16.6822 80.1222C8.54228 91.3106 -8.32983 128.545 10.7568 232.391C26.3129 317.028 18.7683 361.783 9.69967 384.424C9.08849 385.918 8.85908 387.54 9.03215 389.145C9.20522 390.749 9.77532 392.286 10.691 393.615C11.599 394.957 12.8226 396.056 14.2546 396.815C15.6865 397.574 17.283 397.97 18.904 397.969H221.324C221.643 397.984 228.168 398.165 234.18 390.875C243.139 380.011 250.496 353.116 234.669 286.687C213.387 197.364 231.137 118.452 239.756 88.6703C240.181 87.1969 240.256 85.645 239.978 84.1372C239.699 82.6294 239.073 81.2071 238.15 79.9825C237.227 78.758 236.031 77.7648 234.657 77.0814C233.284 76.3981 231.77 76.0433 230.236 76.0451H24.6976Z" fill="white"/>
<path d="M195.276 165.271H33.9503C31.7976 165.271 29.733 164.417 28.2107 162.896C26.6885 161.375 25.8333 159.311 25.8333 157.16C25.8333 155.009 26.6885 152.946 28.2107 151.424C29.733 149.903 31.7976 149.049 33.9503 149.049H195.276C197.428 149.049 199.493 149.903 201.015 151.424C202.538 152.946 203.393 155.009 203.393 157.16C203.393 159.311 202.538 161.375 201.015 162.896C199.493 164.417 197.428 165.271 195.276 165.271Z" fill="white"/>
<path d="M195.276 199.745H33.9503C31.7976 199.745 29.733 198.891 28.2107 197.369C26.6885 195.848 25.8333 193.785 25.8333 191.634C25.8333 189.482 26.6885 187.419 28.2107 185.898C29.733 184.377 31.7976 183.522 33.9503 183.522H195.276C197.428 183.522 199.493 184.377 201.015 185.898C202.538 187.419 203.393 189.482 203.393 191.634C203.393 193.785 202.538 195.848 201.015 197.369C199.493 198.891 197.428 199.745 195.276 199.745Z" fill="white" fill-opacity="0.3"/>
<path d="M195.276 234.219H33.9503C31.7976 234.219 29.733 233.364 28.2107 231.843C26.6885 230.322 25.8333 228.259 25.8333 226.108C25.8333 223.956 26.6885 221.893 28.2107 220.372C29.733 218.851 31.7976 217.996 33.9503 217.996H195.276C197.428 217.996 199.493 218.851 201.015 220.372C202.538 221.893 203.393 223.956 203.393 226.108C203.393 228.259 202.538 230.322 201.015 231.843C199.493 233.364 197.428 234.219 195.276 234.219Z" fill="white" fill-opacity="0.3"/>
<path d="M207.451 268.693H46.1258C43.973 268.693 41.9084 267.838 40.3862 266.317C38.864 264.796 38.0088 262.733 38.0088 260.581C38.0088 258.43 38.864 256.367 40.3862 254.846C41.9084 253.325 43.973 252.47 46.1258 252.47H207.451C209.604 252.47 211.669 253.325 213.191 254.846C214.713 256.367 215.568 258.43 215.568 260.581C215.568 262.733 214.713 264.796 213.191 266.317C211.669 267.838 209.604 268.693 207.451 268.693Z" fill="white" fill-opacity="0.3"/>
<path d="M207.451 303.167H46.1258C43.973 303.167 41.9084 302.312 40.3862 300.791C38.864 299.27 38.0088 297.207 38.0088 295.055C38.0088 292.904 38.864 290.841 40.3862 289.32C41.9084 287.798 43.973 286.944 46.1258 286.944H207.451C209.604 286.944 211.669 287.798 213.191 289.32C214.713 290.841 215.568 292.904 215.568 295.055C215.568 297.207 214.713 299.27 213.191 300.791C211.669 302.312 209.604 303.167 207.451 303.167Z" fill="white" fill-opacity="0.3"/>
<path d="M110.047 130.798H33.9503C31.7976 130.798 29.733 129.943 28.2107 128.422C26.6885 126.901 25.8333 124.837 25.8333 122.686C25.8333 120.535 26.6885 118.472 28.2107 116.95C29.733 115.429 31.7976 114.575 33.9503 114.575H110.047C112.2 114.575 114.265 115.429 115.787 116.95C117.309 118.472 118.164 120.535 118.164 122.686C118.164 124.837 117.309 126.901 115.787 128.422C114.265 129.943 112.2 130.798 110.047 130.798Z" fill="white"/>
<path d="M100.221 358.752C101.859 351.822 109.554 349.551 115.845 349.805C119.82 350.073 123.762 350.696 127.626 351.667C131.668 352.571 135.671 353.641 139.654 354.776C146.958 356.858 154.186 359.375 161.61 361.003C167.791 362.357 174.507 363.152 180.671 361.282C186.596 359.484 191.622 355.07 193.234 348.968C194.753 343.217 192.667 336.929 187.091 334.302C182.006 331.905 175.583 333.124 173.063 338.543C170.221 344.654 173.06 351.318 177.56 355.74C180.117 358.14 182.919 360.266 185.918 362.084C188.963 364.158 192.351 365.674 195.926 366.564C201.796 367.817 208.788 365.971 211.815 360.367C212.488 359.098 212.892 357.705 213.004 356.273C213.183 354.325 210.138 354.337 209.96 356.273C209.447 361.854 202.907 364.467 198.017 363.855C194.716 363.308 191.564 362.086 188.758 360.264C186.051 358.686 183.485 356.877 181.09 354.856C176.942 351.27 173.054 345.367 175.84 339.77C178.108 335.212 184.021 335.258 187.617 338.197C191.973 341.756 191.196 348.217 188.323 352.444C185.143 357.125 179.378 359.087 173.942 359.299C168.036 359.529 162.179 358.174 156.535 356.572C149.521 354.582 142.577 352.355 135.53 350.481C131.529 349.417 127.497 348.457 123.424 347.71C119.573 346.862 115.617 346.588 111.685 346.898C105.334 347.631 98.8502 351.326 97.2862 357.944C96.8364 359.847 99.7706 360.66 100.221 358.752L100.221 358.752Z" fill="#2D3C5A"/>
<path d="M212.061 359.473C211.677 359.153 211.395 358.726 211.253 358.246C211.11 357.766 211.113 357.255 211.261 356.777C211.409 356.299 211.695 355.875 212.083 355.559C212.472 355.243 212.945 355.05 213.443 355.002C218.977 354.468 224.562 355.04 229.873 356.685L283.968 373.38C284.668 373.596 285.319 373.948 285.883 374.415C286.447 374.883 286.914 375.457 287.256 376.104C287.598 376.752 287.809 377.46 287.878 378.189C287.946 378.919 287.87 379.654 287.653 380.354C287.437 381.054 287.085 381.704 286.617 382.268C286.15 382.831 285.575 383.298 284.927 383.64C284.279 383.981 283.57 384.193 282.841 384.261C282.111 384.329 281.375 384.253 280.675 384.037L226.58 367.341C221.266 365.707 216.33 363.033 212.061 359.473Z" fill="#2D3C5A"/>
</svg>
