<svg width="440" height="410" viewBox="0 0 440 410" fill="none" xmlns="http://www.w3.org/2000/svg">
<path opacity="0.2" d="M195.805 108.074L88.4086 47.9451L87.9102 103.043L195.306 163.171L195.805 108.074Z" fill="url(#paint0_linear)"/>
<path opacity="0.15" d="M115.769 76.6036L148.062 94.7064L148.012 101.316L115.719 83.2134L115.769 76.6036Z" fill="white"/>
<path opacity="0.15" d="M115.669 89.8724L184.442 128.396L184.392 135.105L115.619 96.5808L115.669 89.8724Z" fill="white"/>
<path d="M110.037 78.6261C109.988 83.1641 107.247 85.3345 103.858 83.4108C100.469 81.5364 97.7779 76.3078 97.8277 71.7698C97.8775 67.2318 100.619 65.0614 104.007 66.9851C107.396 68.8595 110.087 74.0881 110.037 78.6261Z" fill="white"/>
<path opacity="0.2" d="M440 354.903L332.654 294.774L332.155 349.871L439.551 410L440 354.903Z" fill="url(#paint1_linear)"/>
<path opacity="0.15" d="M360.014 323.432L392.307 341.535L392.257 348.145L359.964 330.042L360.014 323.432Z" fill="white"/>
<path opacity="0.15" d="M359.914 336.701L428.687 375.225L428.637 381.933L359.864 343.41L359.914 336.701Z" fill="white"/>
<path d="M354.282 325.455C354.233 329.993 351.492 332.163 348.103 330.239C344.714 328.365 342.023 323.136 342.073 318.598C342.122 314.06 344.863 311.89 348.252 313.814C351.641 315.688 354.332 320.917 354.282 325.455Z" fill="white"/>
<path opacity="0.1" d="M314.763 2.17036C294.529 6.06713 249.029 11.0984 229.195 0C229.344 78.5274 248.78 189.955 312.321 281.85C376.858 261.676 398.038 173.037 399.533 95.4463C379.699 84.2986 334.747 28.6092 314.763 2.17036Z" fill="url(#paint2_linear)"/>
<path opacity="0.3" d="M290.044 18.4481C269.811 22.3448 224.311 27.3761 204.476 16.2777C204.626 94.8051 224.062 206.233 287.602 298.128C352.139 277.954 373.32 189.265 374.815 111.724C354.98 100.576 310.028 44.887 290.044 18.4481Z" fill="url(#paint3_linear)"/>
<path opacity="0.4" d="M374.865 111.675C354.98 100.527 310.078 44.8869 290.094 18.448L287.652 298.079C352.14 277.954 373.32 189.265 374.865 111.675Z" fill="url(#paint4_linear)"/>
<path opacity="0.1" d="M182.15 166.821L282.17 221.327L282.22 403.193L182.2 348.737L182.15 166.821Z" fill="url(#paint5_linear)"/>
<path opacity="0.2" d="M195.107 273.12L270.509 314.208L270.708 379.418L195.306 338.329L195.107 273.12Z" fill="url(#paint6_linear)"/>
<path opacity="0.15" d="M196.453 229.712L231.338 248.703V255.411L196.453 236.421V229.712Z" fill="white"/>
<path opacity="0.15" d="M196.602 243.031L231.487 262.021V268.73L196.602 249.739V243.031Z" fill="white"/>
<path opacity="0.15" d="M196.552 255.855L262.734 291.913V298.621L196.552 262.564V255.855Z" fill="white"/>
<path opacity="0.2" d="M182.15 166.821L282.17 221.327L282.27 252.748L182.2 198.292L182.15 166.821Z" fill="url(#paint7_linear)"/>
<path opacity="0.2" d="M207.167 196.368C207.167 201.103 204.327 203.421 200.838 201.498C197.35 199.574 194.459 194.197 194.459 189.413C194.459 184.677 197.3 182.359 200.788 184.283C204.327 186.207 207.167 191.633 207.167 196.368Z" fill="white"/>
<path d="M241.554 272.528L241.454 245.497L309.281 282.442L309.38 309.473L241.554 272.528Z" fill="white"/>
<path opacity="0.3" d="M164.109 158.387L15.798 73.6934L15.8479 150.198L151.052 227.443L164.159 246.631L164.109 158.387Z" fill="url(#paint8_linear)"/>
<path d="M0 103.486V82.7201L55.9656 114.684V135.45L0 103.486Z" fill="white"/>
<path opacity="0.15" d="M125.985 155.23L93.4919 136.683V143.391L125.985 161.938V155.23Z" fill="white"/>
<path opacity="0.15" d="M125.985 168.696L63.3413 132.934V139.643L125.985 175.404V168.696Z" fill="white"/>
<path opacity="0.15" d="M125.985 182.113L50.085 138.755V145.463L125.985 188.821V182.113Z" fill="white"/>
<path d="M133.958 166.821C133.958 173.135 137.746 180.386 142.381 183.05C147.015 185.713 150.803 182.754 150.803 176.44C150.803 170.126 147.015 162.875 142.381 160.212C137.746 157.548 133.958 160.508 133.958 166.821Z" fill="white"/>
<path opacity="0.2" d="M116.367 237.21C119.357 238.887 121.749 243.031 121.749 246.434V261.479L131.816 267.2C134.806 268.878 137.198 273.021 137.198 276.424C137.198 279.828 134.806 281.209 131.816 279.532L121.749 273.81V288.855C121.749 292.258 119.357 293.639 116.367 291.962C113.376 290.285 110.984 286.142 110.984 282.738V267.694L100.918 261.923C97.9274 260.245 95.5353 256.102 95.5353 252.698C95.5353 249.295 97.9274 247.914 100.918 249.591L110.984 255.313V240.268C110.984 236.914 113.376 235.533 116.367 237.21Z" fill="url(#paint9_linear)"/>
<defs>
<linearGradient id="paint0_linear" x1="153.839" y1="84.5773" x2="130.235" y2="126.722" gradientUnits="userSpaceOnUse">
<stop stop-color="white"/>
<stop offset="1" stop-color="white" stop-opacity="0"/>
</linearGradient>
<linearGradient id="paint1_linear" x1="398.074" y1="331.41" x2="374.469" y2="373.555" gradientUnits="userSpaceOnUse">
<stop stop-color="white"/>
<stop offset="1" stop-color="white" stop-opacity="0"/>
</linearGradient>
<linearGradient id="paint2_linear" x1="184.32" y1="27.5332" x2="321.873" y2="151.914" gradientUnits="userSpaceOnUse">
<stop stop-color="white"/>
<stop offset="1" stop-color="white" stop-opacity="0"/>
</linearGradient>
<linearGradient id="paint3_linear" x1="159.606" y1="43.7976" x2="297.159" y2="168.178" gradientUnits="userSpaceOnUse">
<stop stop-color="white"/>
<stop offset="1" stop-color="white" stop-opacity="0"/>
</linearGradient>
<linearGradient id="paint4_linear" x1="382.064" y1="140.609" x2="270.782" y2="162.127" gradientUnits="userSpaceOnUse">
<stop stop-color="white"/>
<stop offset="1" stop-color="white" stop-opacity="0"/>
</linearGradient>
<linearGradient id="paint5_linear" x1="182.744" y1="237.548" x2="286.586" y2="339.362" gradientUnits="userSpaceOnUse">
<stop stop-color="white"/>
<stop offset="1" stop-color="white" stop-opacity="0"/>
</linearGradient>
<linearGradient id="paint6_linear" x1="208.403" y1="274.556" x2="252.578" y2="369.73" gradientUnits="userSpaceOnUse">
<stop stop-color="white"/>
<stop offset="1" stop-color="white" stop-opacity="0"/>
</linearGradient>
<linearGradient id="paint7_linear" x1="216.078" y1="166.731" x2="246.812" y2="250.603" gradientUnits="userSpaceOnUse">
<stop stop-color="white"/>
<stop offset="1" stop-color="white" stop-opacity="0"/>
</linearGradient>
<linearGradient id="paint8_linear" x1="131.748" y1="127.752" x2="55.7745" y2="187.851" gradientUnits="userSpaceOnUse">
<stop stop-color="white"/>
<stop offset="1" stop-color="white" stop-opacity="0"/>
</linearGradient>
<linearGradient id="paint9_linear" x1="126.778" y1="256.46" x2="100.892" y2="277.1" gradientUnits="userSpaceOnUse">
<stop stop-color="white"/>
<stop offset="1" stop-color="white" stop-opacity="0"/>
</linearGradient>
</defs>
</svg>
