<svg width="440" height="600" viewBox="0 0 440 600" fill="none" xmlns="http://www.w3.org/2000/svg">
<path d="M194.595 537.398L193.324 592.941L290.052 593.888C290.052 593.888 290.526 582.514 272.186 574.074C253.845 565.633 249.995 531.91 249.995 531.91L194.595 537.398Z" fill="#2D3C5A"/>
<path d="M20.5974 513.837L0 565.463L90.3367 600C90.3367 600 94.7558 589.516 80.5121 575.209C66.2684 560.902 74.4429 527.974 74.4429 527.974L20.5974 513.837Z" fill="#2D3C5A"/>
<path d="M90.3367 287.425C74.6894 313.446 68.0512 386.305 50.5073 423.681C32.9635 461.057 12.5747 521.142 12.5747 521.142L84.1726 551.421C84.1726 551.421 132.84 442.606 138.378 385.832C143.917 329.059 142.494 279.855 142.494 279.855L90.3367 287.425Z" fill="white"/>
<path d="M120.683 315.811C122.124 346.128 161.176 403.261 167.34 444.063C173.504 484.864 189.929 558.612 189.929 558.612L266.344 544.211C266.344 544.211 256.292 429.831 223.101 359.338C198.786 307.712 163.983 273.477 163.983 273.477L120.683 315.811Z" fill="white"/>
<path d="M136.709 364.958C136.216 364.958 135.723 364.693 135.458 364.22L130.792 355.761L116.662 350.746C115.922 350.481 115.543 349.667 115.789 348.929C116.036 348.191 116.871 347.813 117.61 348.059L132.764 353.452L137.942 362.858C138.321 363.539 138.075 364.409 137.373 364.788C137.183 364.901 136.937 364.958 136.709 364.958Z" fill="#2D3C5A"/>
<path d="M74.0066 556.55C71.1048 558.158 68.184 559.748 65.2821 561.357C64.22 561.943 65.1683 563.571 66.2304 562.984C69.1323 561.375 72.0532 559.786 74.955 558.177C76.0171 557.591 75.0687 555.963 74.0066 556.55Z" fill="white"/>
<path d="M75.4292 562.473C73.0584 564.29 70.6875 566.106 68.3168 567.923C67.3684 568.661 68.2978 570.307 69.2651 569.551L76.3775 564.1C77.3448 563.381 76.4154 561.735 75.4292 562.473Z" fill="white"/>
<path d="M259.991 560.183C258.815 562.549 257.62 564.914 256.444 567.28C255.894 568.359 257.544 569.324 258.075 568.226L261.622 561.129C262.172 560.051 260.541 559.086 259.991 560.183Z" fill="white"/>
<path d="M265.415 566.58C264.239 568.945 263.044 571.311 261.868 573.677C261.318 574.755 262.968 575.72 263.499 574.623L267.046 567.526C267.596 566.447 265.965 565.482 265.415 566.58Z" fill="white"/>
<path d="M251.551 541.807C250.792 541.807 250.147 541.202 250.128 540.426C247.018 430.702 181.735 311.308 181.072 310.115C180.692 309.434 180.939 308.564 181.622 308.185C182.304 307.807 183.177 308.053 183.556 308.734C184.22 309.926 249.825 429.926 252.954 540.331C252.973 541.107 252.366 541.77 251.57 541.789C251.588 541.807 251.57 541.807 251.551 541.807Z" fill="#2D3C5A"/>
<path d="M194.329 334.66C194.158 334.66 193.988 334.623 193.817 334.566C193.077 334.282 192.717 333.468 193.001 332.73C196.7 323.098 192.224 309.794 192.186 309.661C191.939 308.923 192.338 308.109 193.077 307.863C193.836 307.617 194.632 308.015 194.879 308.753C195.069 309.339 199.715 323.173 195.657 333.752C195.429 334.32 194.898 334.66 194.329 334.66Z" fill="#2D3C5A"/>
<path d="M328.44 81.0725H267.331V142.047H328.44V81.0725Z" fill="#55A5FF"/>
<path d="M297.885 126.132C292.48 126.132 287.454 123.217 284.798 118.524C284.419 117.843 284.647 116.972 285.33 116.594C286.012 116.215 286.885 116.442 287.264 117.124C289.426 120.927 293.504 123.293 297.885 123.293C304.618 123.293 310.081 117.843 310.081 111.125C310.081 104.406 304.618 98.9561 297.885 98.9561C291.152 98.9561 285.69 104.406 285.69 111.125C285.69 111.9 285.045 112.544 284.267 112.544C283.49 112.544 282.845 111.9 282.845 111.125C282.845 102.855 289.597 96.1174 297.885 96.1174C306.174 96.1174 312.926 102.855 312.926 111.125C312.926 119.395 306.174 126.132 297.885 126.132Z" fill="white"/>
<path d="M297.885 134.553C284.95 134.553 274.424 124.05 274.424 111.144C274.424 98.2372 284.95 87.7341 297.885 87.7341C304.429 87.7341 310.725 90.4971 315.145 95.285C315.676 95.8527 315.638 96.7611 315.069 97.291C314.5 97.8209 313.589 97.783 313.058 97.2153C309.17 92.9951 303.632 90.5728 297.885 90.5728C286.505 90.5728 277.269 99.8079 277.269 111.144C277.269 122.498 286.524 131.715 297.885 131.715C309.265 131.715 318.502 122.479 318.502 111.144C318.502 108.513 318.009 105.958 317.041 103.536C316.757 102.817 317.098 101.984 317.838 101.7C318.578 101.417 319.393 101.757 319.678 102.495C320.778 105.258 321.328 108.173 321.328 111.163C321.347 124.031 310.82 134.553 297.885 134.553Z" fill="white"/>
<path d="M93.523 247.248C97.6197 236.196 99.2318 232.336 107.577 236.12C115.922 239.905 98.6818 259.454 98.6818 259.454L93.523 247.248Z" fill="white"/>
<path d="M36.7947 214.736C29.1702 240.076 44.9502 270.733 66.7425 284.056L69.4737 280.196C75.0118 283.167 80.8914 285.4 86.9037 286.762C93.2954 275.843 100.673 265.472 107.577 254.799C98.7576 251.468 91.1522 248.667 89.3693 238.846C84.514 212.314 115.998 217.991 136.709 224.236C141.83 203.817 143.727 171.796 143.727 171.796C93.2764 158.833 48.8004 174.767 36.7947 214.736Z" fill="#2D3C5A"/>
<path d="M90.3935 242.423C83.1673 253.929 77.762 269.39 69.4737 280.196C74.9929 283.167 80.8914 285.4 86.8848 286.744C93.2764 275.824 100.654 265.454 107.558 254.78C102.039 252.699 93.8454 245.98 90.3935 242.423Z" fill="white"/>
<path d="M99.687 238.959C93.0488 238.959 90.1849 240.89 89.2555 245.45C88.3072 250.011 93.5229 254.591 93.5229 254.591L99.687 238.959Z" fill="white"/>
<path d="M184.561 120.984C190.422 134.969 190.801 149.901 172.423 155.786C159.905 159.798 144.922 153.951 139.061 139.965C133.201 125.98 138.625 110.405 151.2 105.163C163.774 99.9023 178.701 106.999 184.561 120.984Z" fill="white"/>
<path d="M174.149 121.59C175.196 121.59 176.046 120.742 176.046 119.697C176.046 118.652 175.196 117.805 174.149 117.805C173.101 117.805 172.252 118.652 172.252 119.697C172.252 120.742 173.101 121.59 174.149 121.59Z" fill="#2D3C5A"/>
<path d="M175.571 102.022C175.571 89.4939 154.917 103.612 151.2 105.163C139.972 107.302 130.185 121.912 133.599 135.026C136.52 146.192 149.36 159.514 156.093 156.259C167.283 149.636 169.009 138.66 163.774 128.176C165.709 125.886 163.49 122.536 164.381 119.887C165.823 115.723 175.666 106.45 175.571 102.022Z" fill="#2D3C5A"/>
<path d="M160.038 127.267C139.137 125.374 141.565 142.104 149.474 145.889C155.846 148.935 165.766 147.781 169.73 138.319C173.675 128.856 160.038 127.267 160.038 127.267Z" fill="white"/>
<path d="M161.878 134.421C157.876 132.434 152.983 133.342 150.1 136.786C149.322 137.713 150.65 139.057 151.446 138.13C153.76 135.348 157.629 134.421 160.929 136.048C162.01 136.597 162.959 134.969 161.878 134.421Z" fill="#2D3C5A"/>
<path d="M186.155 125.621C183.992 121.968 181.356 118.656 178.265 115.761C177.373 114.928 176.027 116.272 176.918 117.105C179.915 119.905 182.437 123.066 184.504 126.586C185.13 127.627 186.781 126.68 186.155 125.621Z" fill="#2D3C5A"/>
<path d="M158.9 172.156C129.274 165.722 117.345 179.745 106.705 222.949C96.0645 266.154 77.0792 291.172 77.0792 291.172C77.0792 291.172 163.262 315.471 199.715 310.153C199.715 310.134 221.716 185.8 158.9 172.156Z" fill="#2D3C5A"/>
<path d="M135.344 177.133L138.397 162.296L178.701 166.838L173.864 185.024L135.344 177.133Z" fill="#2D3C5A"/>
<path d="M107.577 216.155C107.406 216.155 107.217 216.117 107.046 216.06C106.325 215.777 105.965 214.944 106.249 214.206L113.57 195.982C113.855 195.263 114.689 194.903 115.429 195.187C116.15 195.471 116.51 196.303 116.226 197.041L108.905 215.266C108.677 215.814 108.146 216.155 107.577 216.155Z" fill="#F0F5FA"/>
<path d="M275.657 160.214C281.1 150.639 283.793 135.102 290.299 121.268C295.78 109.592 300.503 105.882 303.101 110.954C304.77 114.209 301.337 117.824 299.118 128.648C299.118 128.648 307.331 130.333 307.881 136.067C307.881 136.067 315.05 137.827 315.581 147.422C315.846 152.209 317.212 157.962 311.807 157.054C310.726 161.88 309.625 171.55 308.715 178.231C307.084 190.172 301.299 193.786 301.299 193.786L275.657 160.214Z" fill="white"/>
<path d="M276.359 158.833C266.363 178.817 259.858 186.217 247.871 189.699C229.796 194.922 186.743 171.285 159.905 175.77L153.514 230.841C153.514 230.841 192.527 256.275 237.648 252.604C276.738 249.424 302.646 209.456 307.406 189.774C302.741 176.717 287.112 166.1 276.359 158.833Z" fill="#2D3C5A"/>
<path d="M195.562 248.876C195.372 248.876 195.183 248.838 195.012 248.762C194.955 248.743 188.412 245.98 181.982 245.98C181.963 245.98 181.963 245.98 181.944 245.98C181.166 245.98 180.522 245.356 180.522 244.561C180.522 243.766 181.204 243.142 181.982 243.142C189 243.142 195.827 246.037 196.131 246.151C196.852 246.453 197.193 247.286 196.871 248.005C196.643 248.554 196.112 248.876 195.562 248.876Z" fill="#2D3C5A"/>
<path d="M297.677 130.219L296.273 133.948C295.837 135.083 297.677 135.575 298.094 134.458C298.568 133.209 299.023 131.96 299.497 130.73C299.934 129.576 298.094 129.084 297.677 130.219Z" fill="#2D3C5A"/>
<path d="M313.969 147.838C313.798 146.646 311.977 147.157 312.148 148.349C312.376 149.901 312.148 151.434 311.598 152.91C311.162 154.045 313.001 154.538 313.419 153.421C314.082 151.585 314.234 149.75 313.969 147.838Z" fill="#2D3C5A"/>
<path d="M306.724 137.127C306.42 137.978 306.117 138.811 305.794 139.663C305.377 140.817 307.217 141.309 307.615 140.173C307.919 139.322 308.222 138.489 308.544 137.638C308.962 136.483 307.141 135.972 306.724 137.127Z" fill="#2D3C5A"/>
<path d="M277.496 156.752C275.202 140.666 277.99 133.721 283.357 127.04C288.725 120.36 291.892 130.238 291.892 130.238L277.496 156.752Z" fill="white"/>
<path d="M287.15 128.024C284.893 132.396 283.395 136.994 282.655 141.858C282.466 143.05 284.305 143.561 284.476 142.369C285.197 137.657 286.6 133.228 288.781 128.989C289.35 127.892 287.719 126.927 287.15 128.024Z" fill="#2D3C5A"/>
<path d="M397.895 247.078H272.072V326.277H397.895V247.078Z" fill="white"/>
<path d="M327.207 0H295.78V31.3578H327.207V0Z" fill="white" fill-opacity="0.15"/>
<path d="M355.808 147.393C355.808 170.591 374.707 189.396 397.904 189.396C421.102 189.396 440 170.591 440 147.393C440 124.196 421.102 105.39 397.904 105.39C374.707 105.39 355.808 124.196 355.808 147.393Z" fill="white" fill-opacity="0.1"/>
<path d="M279.545 0H218.018V37.8868H279.545V0Z" fill="white"/>
<path d="M266.344 20.3626H230.441C229.663 20.3626 229.019 19.7192 229.019 18.9433C229.019 18.1674 229.663 17.5239 230.441 17.5239H266.344C267.122 17.5239 267.767 18.1674 267.767 18.9433C267.767 19.7192 267.141 20.3626 266.344 20.3626Z" fill="#2D3C5A"/>
<path d="M346.572 23.7692C349.243 23.7692 351.408 21.6086 351.408 18.9434C351.408 16.2782 349.243 14.1177 346.572 14.1177C343.901 14.1177 341.735 16.2782 341.735 18.9434C341.735 21.6086 343.901 23.7692 346.572 23.7692Z" fill="white" fill-opacity="0.15"/>
<path d="M346.572 42.7124C349.243 42.7124 351.408 40.5518 351.408 37.8867C351.408 35.2215 349.243 33.0609 346.572 33.0609C343.901 33.0609 341.735 35.2215 341.735 37.8867C341.735 40.5518 343.901 42.7124 346.572 42.7124Z" fill="white" fill-opacity="0.15"/>
<path d="M363.016 268.122H302.646C301.868 268.122 301.223 267.478 301.223 266.702C301.223 265.926 301.868 265.283 302.646 265.283H363.016C363.793 265.283 364.438 265.926 364.438 266.702C364.438 267.478 363.793 268.122 363.016 268.122Z" fill="#2D3C5A"/>
<path d="M363.016 284.567H325.936C325.159 284.567 324.514 283.924 324.514 283.148C324.514 282.372 325.159 281.729 325.936 281.729H363.016C363.793 281.729 364.438 282.372 364.438 283.148C364.438 283.924 363.793 284.567 363.016 284.567Z" fill="#2D3C5A"/>
<path d="M316.738 284.567H302.627C301.849 284.567 301.204 283.924 301.204 283.148C301.204 282.372 301.849 281.729 302.627 281.729H316.738C317.515 281.729 318.16 282.372 318.16 283.148C318.16 283.924 317.534 284.567 316.738 284.567Z" fill="#2D3C5A"/>
<path d="M385.168 128.119V169.204L418.871 148.652L385.168 128.119Z" fill="white"/>
</svg>
