<svg width="460" height="745" viewBox="0 0 460 745" fill="none" xmlns="http://www.w3.org/2000/svg">
<path d="M31.8511 244.737L50.6165 231.26L53.1186 253.234L31.8511 244.737Z" fill="white" fill-opacity="0.3"/>
<path d="M70.6333 243.177C70.2705 243.177 69.9202 242.965 69.7701 242.603L65.3915 232.296C65.1913 231.822 65.4165 231.273 65.8919 231.073C66.3673 230.873 66.9177 231.098 67.1179 231.572L71.4965 241.879C71.6967 242.353 71.4715 242.902 70.9961 243.102C70.871 243.152 70.7459 243.177 70.6333 243.177Z" fill="white" fill-opacity="0.3"/>
<path d="M8.70717 278.516C3.90322 278.516 0 274.622 0 269.831C0 265.039 3.90322 261.146 8.70717 261.146C13.5111 261.146 17.4143 265.039 17.4143 269.831C17.4143 274.622 13.4986 278.516 8.70717 278.516ZM8.70717 263.018C4.94157 263.018 1.87655 266.075 1.87655 269.831C1.87655 273.587 4.94157 276.644 8.70717 276.644C12.4728 276.644 15.5378 273.587 15.5378 269.831C15.5378 266.075 12.4728 263.018 8.70717 263.018Z" fill="white" fill-opacity="0.3"/>
<path d="M34.9788 312.407C34.4659 312.407 34.0405 311.983 34.0405 311.471V304.945C34.0405 304.434 34.4659 304.009 34.9788 304.009C35.4917 304.009 35.9171 304.434 35.9171 304.945V311.471C35.9171 311.996 35.4917 312.407 34.9788 312.407Z" fill="white" fill-opacity="0.3"/>
<path d="M407.228 186.686C406.9 186.047 406.104 185.805 405.481 186.15C391.558 193.516 375.818 197.407 359.974 197.407C306.874 197.407 263.598 154.733 262.577 101.893C261.954 102.066 261.349 102.257 260.726 102.429C260.467 102.499 260.225 102.516 260 102.516C261.349 156.497 305.646 200 359.974 200C376.25 200 392.405 196.006 406.692 188.45C407.315 188.104 407.557 187.326 407.228 186.686Z" fill="white" fill-opacity="0.3"/>
<path d="M377.046 93.473H342.885C342.176 93.473 341.588 92.8851 341.588 92.1762C341.588 91.4673 342.176 90.8794 342.885 90.8794H377.046C377.755 90.8794 378.343 91.4673 378.343 92.1762C378.343 92.8851 377.755 93.473 377.046 93.473Z" fill="white" fill-opacity="0.15"/>
<path d="M377.046 109.432H342.885C342.176 109.432 341.588 108.844 341.588 108.135C341.588 107.426 342.176 106.839 342.885 106.839H377.046C377.755 106.839 378.343 107.426 378.343 108.135C378.343 108.844 377.755 109.432 377.046 109.432Z" fill="white" fill-opacity="0.15"/>
<path d="M367.93 162.393C367.29 162.393 366.737 161.909 366.65 161.269C366.564 160.56 367.065 159.903 367.775 159.817C371.441 159.35 375.074 158.52 378.585 157.396C379.277 157.171 380.003 157.552 380.228 158.226C380.453 158.9 380.072 159.644 379.398 159.851C375.748 161.044 371.943 161.892 368.138 162.376C368.051 162.376 367.999 162.393 367.93 162.393Z" fill="white" fill-opacity="0.3"/>
<path d="M395.588 151.569C395.172 151.569 394.775 151.379 394.532 151.016C394.117 150.428 394.256 149.615 394.844 149.201C399.756 145.708 404.132 141.523 407.816 136.734C408.249 136.163 409.062 136.06 409.632 136.492C410.203 136.924 410.307 137.737 409.875 138.307C406.035 143.287 401.486 147.662 396.349 151.31C396.107 151.5 395.847 151.569 395.588 151.569Z" fill="white" fill-opacity="0.3"/>
<path d="M414.648 129.696C414.441 129.696 414.251 129.644 414.06 129.558C413.42 129.229 413.178 128.451 413.507 127.812C417.935 119.287 420.287 109.691 420.287 100.008C420.287 78.7583 409.425 59.4793 391.246 48.4306C390.641 48.0502 390.433 47.2549 390.814 46.6498C391.177 46.0446 391.973 45.8371 392.595 46.2175C411.552 57.733 422.882 77.8419 422.882 100.008C422.882 110.089 420.443 120.117 415.807 129.005C415.582 129.437 415.133 129.696 414.648 129.696Z" fill="white" fill-opacity="0.3"/>
<path d="M319.344 54.984C318.981 54.984 318.618 54.8283 318.376 54.5344C317.909 53.9984 317.961 53.1684 318.497 52.7016C329.965 42.6385 344.701 37.1055 359.974 37.1055C364.246 37.1055 368.519 37.5377 372.652 38.385C373.362 38.5233 373.811 39.2149 373.656 39.9238C373.517 40.6328 372.825 41.0823 372.134 40.9267C368.155 40.1141 364.073 39.6991 359.974 39.6991C345.324 39.6991 331.21 45.0073 320.209 54.6554C319.95 54.8802 319.638 54.984 319.344 54.984Z" fill="white" fill-opacity="0.3"/>
<path d="M439.244 101.306C438.535 101.306 437.947 100.718 437.947 100.009C437.947 97.346 437.808 94.666 437.549 92.0378C433.502 52.1485 400.154 22.0628 359.974 22.0628C359.265 22.0628 358.677 21.4749 358.677 20.766C358.677 20.0571 359.265 19.4692 359.974 19.4692C401.486 19.4692 435.94 50.5577 440.126 91.7784C440.403 94.493 440.541 97.2596 440.541 100.009C440.541 100.718 439.953 101.306 439.244 101.306Z" fill="white" fill-opacity="0.3"/>
<path d="M323.513 30.8982C323.046 30.8982 322.596 30.639 322.354 30.2067C322.025 29.5669 322.267 28.7888 322.907 28.4603C330.051 24.7601 337.679 22.1666 345.583 20.7315C346.292 20.6105 346.967 21.0773 347.088 21.7862C347.209 22.4951 346.742 23.1694 346.033 23.2905C338.37 24.6737 331.002 27.1808 324.084 30.76C323.928 30.8637 323.72 30.8982 323.513 30.8982Z" fill="white" fill-opacity="0.3"/>
<path d="M340.498 178.145C340.394 178.145 340.291 178.128 340.187 178.11C319.742 172.958 301.771 159.592 290.857 141.437C290.494 140.832 290.684 140.019 291.307 139.656C291.93 139.293 292.725 139.483 293.088 140.106C303.639 157.673 321.04 170.606 340.827 175.603C341.519 175.776 341.934 176.485 341.761 177.177C341.605 177.747 341.069 178.145 340.498 178.145Z" fill="white" fill-opacity="0.3"/>
<path d="M359.957 180.548C359.248 180.548 358.66 179.96 358.66 179.251C358.66 178.543 359.248 177.955 359.957 177.955C377.772 177.955 395.19 171.799 409.01 160.595C409.563 160.145 410.376 160.232 410.826 160.785C411.276 161.338 411.189 162.151 410.636 162.601C396.366 174.185 378.378 180.548 359.957 180.548Z" fill="white" fill-opacity="0.3"/>
<path d="M452.061 136.941C451.905 136.941 451.75 136.907 451.594 136.855C450.919 136.596 450.591 135.852 450.85 135.178C455.192 123.973 457.406 112.129 457.406 99.9915C457.406 73.6579 447.045 48.9843 428.261 30.518C427.742 30.0166 427.742 29.1866 428.244 28.6852C428.745 28.1665 429.576 28.1664 430.077 28.6679C449.38 47.6183 460 72.949 460 99.9915C460 112.441 457.734 124.596 453.272 136.112C453.064 136.63 452.58 136.941 452.061 136.941Z" fill="white" fill-opacity="0.3"/>
<path d="M412.573 17.7748C412.331 17.7748 412.089 17.7057 411.881 17.5674C407.125 14.5588 402.074 11.9652 396.885 9.83843C396.228 9.56178 395.899 8.81832 396.176 8.14399C396.453 7.48695 397.214 7.15847 397.871 7.43512C403.216 9.61373 408.387 12.2937 413.282 15.3714C413.888 15.7518 414.078 16.5472 413.68 17.1524C413.421 17.5501 413.005 17.7748 412.573 17.7748Z" fill="white" fill-opacity="0.3"/>
<path d="M273.145 54.2578C272.938 54.2578 272.73 54.206 272.523 54.1023C271.9 53.7565 271.658 52.9783 272.004 52.3386C284.06 30.1548 303.812 13.4694 327.647 5.34283C338.025 1.79827 348.904 0 359.974 0C360.683 0 361.271 0.587879 361.271 1.29679C361.271 2.00571 360.683 2.59359 359.974 2.59359C349.198 2.59359 338.596 4.33995 328.494 7.79806C305.282 15.7171 286.049 31.9704 274.304 53.5836C274.045 54.0158 273.595 54.2578 273.145 54.2578Z" fill="white" fill-opacity="0.3"/>
<path d="M298.623 106.717C297.966 106.717 297.395 106.216 297.326 105.542C297.136 103.571 297.049 101.582 297.049 99.5764C297.049 89.4268 299.505 79.3464 304.158 70.3899C304.487 69.7501 305.265 69.5081 305.905 69.8366C306.545 70.1651 306.787 70.9432 306.458 71.583C301.996 80.1591 299.644 89.8418 299.644 99.5591C299.644 101.461 299.73 103.398 299.903 105.282C299.972 105.991 299.453 106.631 298.727 106.7C298.71 106.7 298.658 106.717 298.623 106.717Z" fill="white" fill-opacity="0.3"/>
<path d="M295.267 651.073C285.089 646.996 276.006 646.369 276.006 603.248C258.468 607.168 240.93 610.304 223.079 612.656C224.018 639.313 224.645 665.499 224.645 665.499L303.879 665.656C303.879 665.499 305.602 655.15 295.267 651.073Z" fill="white"/>
<path d="M304.976 666.754L223.549 666.597V665.499C223.549 665.186 222.922 639.156 221.983 612.656V611.558L223.079 611.402C241.243 608.893 258.938 605.757 275.85 601.993L277.259 601.68V603.091C277.259 642.763 284.932 645.742 294.014 649.192C294.641 649.348 295.267 649.662 295.737 649.819C306.855 654.209 305.132 665.499 305.132 665.656L304.976 666.754ZM225.741 664.245L302.783 664.402C302.94 661.893 302.314 655.15 294.641 652.171C294.014 651.857 293.388 651.701 292.918 651.544C283.21 647.937 274.91 644.644 274.754 604.816C258.468 608.422 241.557 611.402 224.175 613.754C225.115 636.647 225.741 659.07 225.741 664.245Z" fill="#2D3C5A"/>
<path d="M276.163 612.813C276.006 609.206 276.006 605.286 276.006 601.052C276.319 554.324 291.039 526.883 246.567 507.91C233.727 502.422 218.068 493.64 195.049 486.898C170.464 479.685 176.884 482.194 176.884 482.194L142.435 507.126C214.779 556.52 209.455 552.756 221.043 560.596C219.164 572.2 222.765 594.937 223.548 617.674C240.93 616.419 258.625 615.008 276.163 612.813Z" fill="white"/>
<path d="M222.139 618.771V617.517C221.826 608.736 221.2 600.268 220.573 591.958C219.477 579.256 218.694 568.28 219.634 560.91C212.274 555.892 211.804 555.579 190.038 540.839L140.242 506.812L174.849 481.88C174.849 481.723 174.849 481.41 174.849 481.253C175.319 479.842 175.319 479.685 195.206 485.643C212.274 490.661 225.428 496.777 236.076 501.794C239.99 503.676 243.592 505.244 247.037 506.812C282.74 522.022 281.174 542.564 278.668 573.611C278.042 581.765 277.259 591.017 277.259 601.052C277.259 605.286 277.259 609.206 277.415 612.813V613.91L276.319 614.067C259.408 616.106 242.026 617.674 223.392 618.771H222.139ZM144.157 506.969L191.134 538.957C213.37 554.167 213.37 554.167 221.356 559.499L221.983 559.969L221.826 560.753C220.73 567.81 221.669 578.943 222.609 591.958C223.235 599.955 223.862 608.109 224.175 616.419C242.026 615.322 258.468 613.754 274.753 611.872C274.597 608.579 274.597 604.972 274.597 601.052C274.597 591.017 275.38 581.608 276.006 573.455C278.355 543.348 280.077 523.59 245.784 509.007C242.339 507.596 238.738 505.871 234.823 503.99C224.331 499.129 211.178 493.013 194.266 487.995C183.461 484.859 178.92 483.605 177.041 483.135L144.157 506.969Z" fill="#2D3C5A"/>
<path d="M209.142 572.043C210.865 568.907 238.581 521.395 246.411 507.753C234.51 500.226 217.911 493.484 194.892 486.741C170.308 479.528 176.728 482.037 176.728 482.037L142.278 506.969C181.895 551.502 201.939 567.182 209.142 572.043Z" fill="#2D3C5A"/>
<path d="M209.612 573.768L208.516 572.984C199.903 567.182 179.86 551.031 141.339 507.596L140.399 506.655L174.849 481.88C174.849 481.723 174.849 481.41 174.849 481.253C175.319 479.842 175.319 479.685 195.206 485.643C218.538 492.543 234.98 499.285 247.037 506.812L247.977 507.439L247.35 508.38C244.688 513.084 239.677 521.552 234.197 530.96C223.862 548.522 211.178 570.475 210.082 572.514L209.612 573.768ZM143.844 507.126C181.113 548.993 201 564.987 208.673 570.318C211.491 565.301 222.453 546.484 232.161 529.863C237.329 521.081 242.026 513.084 244.845 508.223C233.101 501.01 216.972 494.581 194.579 487.839C183.775 484.703 179.234 483.448 177.355 482.978L143.844 507.126Z" fill="#2D3C5A"/>
<path d="M277.572 628.337C259.721 630.532 241.713 632.1 223.705 633.197C224.332 651.23 224.645 665.343 224.645 665.343L303.88 665.5C303.88 665.5 305.602 655.15 295.11 650.917C287.594 647.937 280.548 646.84 277.572 628.337Z" fill="#2D3C5A"/>
<path d="M285.715 636.177L272.405 646.369C271.622 646.996 272.405 648.251 273.188 647.78L286.498 637.588C287.281 636.961 286.498 635.55 285.715 636.177Z" fill="white"/>
<path d="M289.63 641.195C286.498 643.86 283.836 647.153 281.957 650.917C281.487 651.857 282.896 652.641 283.366 651.701C285.245 648.094 287.751 644.958 290.883 642.292C291.509 641.665 290.413 640.567 289.63 641.195Z" fill="white"/>
<path d="M117.694 488.623C111.43 512.457 118.79 576.904 102.504 609.677C93.109 628.493 51.9258 701.722 51.9258 701.722L119.729 742.648C119.729 742.648 126.463 734.651 119.729 725.713C112.996 716.775 105.48 711.6 128.968 672.869C162.009 618.458 174.379 590.39 174.379 532.842C174.379 507.283 172.187 484.232 172.187 484.232L117.694 488.623Z" fill="white"/>
<path d="M120.043 744.059L50.3599 702.035L50.9863 701.094C51.456 700.31 92.3261 627.866 101.565 609.206C111.587 589.135 112.526 555.736 113.309 529.079C113.779 512.144 114.249 497.561 116.598 488.466L116.754 487.682H117.537L173.127 483.135L173.283 484.232C173.283 484.389 175.476 507.596 175.476 532.999C175.476 589.292 164.044 617.517 129.908 673.653C108.142 709.405 113.466 715.991 119.416 723.518C119.886 723.988 120.199 724.458 120.669 725.086C127.872 734.651 120.669 743.432 120.669 743.432L120.043 744.059ZM53.4917 701.094L119.416 740.923C120.826 738.728 123.801 732.769 118.79 726.34C118.32 725.87 118.007 725.399 117.537 724.772C110.96 716.461 105.323 709.248 127.872 672.242C161.852 616.419 173.127 588.508 173.127 532.842C173.127 510.732 171.404 490.348 170.934 485.487L118.477 489.877C116.284 498.815 115.971 512.928 115.501 529.235C114.719 557.617 113.779 589.762 103.601 610.304C94.9881 627.553 58.5026 692.313 53.4917 701.094Z" fill="#2D3C5A"/>
<path d="M123.018 683.062C124.74 679.926 126.619 676.476 128.968 672.869C162.009 618.458 174.379 590.389 174.379 532.842C174.379 507.282 172.187 484.232 172.187 484.232L117.693 488.779C111.43 512.614 118.79 577.061 102.504 609.833C97.9631 618.771 86.3755 640.254 75.2576 660.011C90.9166 668.008 106.889 675.849 123.018 683.062Z" fill="white"/>
<path d="M123.487 684.63L122.548 684.159C107.045 677.103 91.3864 669.576 74.7878 660.952L73.6917 660.325L74.318 659.227C88.7243 633.511 97.8065 616.576 101.565 609.049C111.586 588.978 112.526 555.579 113.309 528.922C113.779 511.987 114.248 497.404 116.597 488.309L116.754 487.525H117.537L173.126 482.978L173.283 484.075C173.283 484.232 175.475 507.439 175.475 532.842C175.475 589.135 164.044 617.36 129.907 673.497C127.715 677.103 125.68 680.553 123.957 683.689L123.487 684.63ZM76.8235 659.384C92.6391 667.538 107.672 674.908 122.548 681.494C124.114 678.514 125.993 675.378 128.028 672.242C162.009 616.419 173.283 588.508 173.283 532.842C173.283 510.732 171.561 490.348 171.091 485.487L118.633 489.877C116.441 498.815 116.128 512.928 115.658 529.235C114.875 557.617 113.935 589.762 103.757 610.304C99.8422 617.517 90.9166 634.138 76.8235 659.384Z" fill="#2D3C5A"/>
<path d="M178.451 593.683C188.316 557.304 172.187 484.075 172.187 484.075L117.694 488.623C112.996 506.812 115.971 548.522 110.647 581.922C111.587 582.079 170.465 593.055 178.451 593.683Z" fill="#2D3C5A"/>
<path d="M179.39 594.937H178.451C172.031 594.467 133.979 587.567 111.743 583.333L109.238 582.863L109.395 581.765C112.057 564.987 112.683 545.857 113.153 528.922C113.623 511.987 114.092 497.404 116.441 488.309L116.598 487.525H117.381L172.814 482.978L172.97 483.919C173.597 486.898 189.099 557.931 179.234 593.996L179.39 594.937ZM111.9 580.981H112.057C147.603 587.567 171.091 591.644 177.511 592.428C185.967 558.872 172.97 494.268 171.091 485.33L118.477 489.72C116.285 498.658 115.971 512.771 115.502 529.079C115.032 545.543 114.562 564.203 111.9 580.981Z" fill="#2D3C5A"/>
<path d="M116.284 697.174C99.8423 689.804 83.7134 681.964 67.5846 673.653C58.8156 689.491 51.769 701.722 51.769 701.722L119.573 742.648C119.573 742.648 126.306 734.651 119.573 725.713C114.718 719.127 109.394 714.423 116.284 697.174Z" fill="#2D3C5A"/>
<path d="M119.259 707.994L102.661 709.875C101.721 710.032 101.721 711.6 102.661 711.444L119.259 709.562C120.199 709.405 120.199 707.837 119.259 707.994Z" fill="white"/>
<path d="M120.042 714.423C115.971 715.05 112.056 716.618 108.455 718.813C107.515 719.284 108.455 720.695 109.238 720.224C112.683 718.029 116.441 716.775 120.512 715.991C121.452 715.677 120.982 714.266 120.042 714.423Z" fill="white"/>
<path d="M179.39 546.484C178.764 546.484 178.138 546.014 178.138 545.23C178.138 536.292 178.921 529.706 178.921 529.706L179.077 528.922L179.86 528.765C179.86 528.765 185.811 527.511 191.918 522.963C192.387 522.65 193.17 522.65 193.64 523.12C193.953 523.59 193.953 524.374 193.484 524.845C188.159 528.765 183.305 530.49 181.27 530.96C181.113 532.999 180.643 538.487 180.643 545.386C180.487 546.014 180.017 546.484 179.39 546.484Z" fill="white"/>
<path d="M272.875 548.522C269.899 547.895 267.551 545.543 267.081 542.564C266.924 541.623 265.358 541.937 265.515 543.034C266.141 546.484 268.803 549.463 272.405 550.09C273.501 550.09 273.971 548.679 272.875 548.522Z" fill="#2D3C5A"/>
<path d="M152.926 605.443C153.396 604.502 152.143 603.718 151.517 604.659C149.638 607.952 149.638 611.715 151.517 615.008C151.987 615.949 153.396 615.165 152.926 614.224C151.36 611.402 151.36 608.109 152.926 605.443Z" fill="#2D3C5A"/>
<path d="M230.752 745C230.125 745 229.499 744.529 229.499 743.745V666.44H306.698C307.324 666.44 307.951 666.911 307.951 667.695C307.951 668.479 307.481 668.949 306.698 668.949H231.848V743.902C232.004 744.373 231.378 745 230.752 745Z" fill="#2D3C5A"/>
<path d="M306.698 668.949C306.072 668.949 305.445 668.479 305.445 667.695V590.39H358.529C359.156 590.39 359.782 590.86 359.782 591.644C359.782 592.428 359.312 592.898 358.529 592.898H307.794V667.852C307.951 668.322 307.481 668.949 306.698 668.949Z" fill="#2D3C5A"/>
<path d="M382.801 592.742H368.551C367.925 592.742 367.299 592.271 367.299 591.487C367.299 590.703 367.768 590.233 368.551 590.233H382.801C383.427 590.233 384.054 590.703 384.054 591.487C384.054 592.271 383.427 592.742 382.801 592.742Z" fill="#2D3C5A"/>
<path d="M382.801 592.742C382.175 592.742 381.548 592.271 381.548 591.487V546.327C381.548 545.7 382.018 545.073 382.801 545.073C383.584 545.073 384.054 545.543 384.054 546.327V591.487C383.897 592.271 383.427 592.742 382.801 592.742Z" fill="#2D3C5A"/>
<path d="M382.801 537.232C382.175 537.232 381.548 536.762 381.548 535.978V514.339H410.831C411.457 514.339 412.084 514.809 412.084 515.593C412.084 516.377 411.614 516.847 410.831 516.847H383.897V536.135C383.897 536.762 383.427 537.232 382.801 537.232Z" fill="#2D3C5A"/>
<path d="M458.747 516.691H445.281C444.654 516.691 444.028 516.22 444.028 515.436C444.028 514.652 444.498 514.182 445.281 514.182H458.747C459.374 514.182 460 514.652 460 515.436C460 516.22 459.374 516.691 458.747 516.691Z" fill="#2D3C5A"/>
<path d="M349.291 453.969L372.779 490.504C372.779 490.504 388.438 474.51 377.477 459.614C366.516 444.56 349.291 453.969 349.291 453.969Z" fill="white"/>
<path d="M372.623 492.386L347.725 453.498L348.821 452.871C348.978 452.714 367.142 443.149 378.573 458.83C390.004 474.51 373.875 491.132 373.719 491.288L372.623 492.386ZM351.013 454.439L372.936 488.623C376.068 484.86 385.306 472.315 376.537 460.241C367.768 448.167 354.928 452.714 351.013 454.439Z" fill="#2D3C5A"/>
<path d="M353.988 488.152C357.62 488.152 360.565 485.204 360.565 481.566C360.565 477.929 357.62 474.981 353.988 474.981C350.356 474.981 347.411 477.929 347.411 481.566C347.411 485.204 350.356 488.152 353.988 488.152Z" fill="#2D3C5A"/>
<path d="M353.988 489.407C349.76 489.407 346.315 485.957 346.315 481.723C346.315 477.49 349.76 474.04 353.988 474.04C358.216 474.04 361.661 477.49 361.661 481.723C361.661 485.957 358.216 489.407 353.988 489.407ZM353.988 476.235C351.013 476.235 348.664 478.587 348.664 481.567C348.664 484.546 351.013 486.898 353.988 486.898C356.964 486.898 359.312 484.546 359.312 481.567C359.312 478.587 356.964 476.235 353.988 476.235Z" fill="#2D3C5A"/>
<path d="M296.363 581.138C295.893 581.138 295.424 580.825 295.267 580.511L285.558 559.185C285.245 558.558 285.558 557.931 286.185 557.617C286.811 557.304 287.438 557.617 287.751 558.244L297.459 579.57C297.772 580.197 297.459 580.825 296.833 581.138C296.676 580.981 296.52 581.138 296.363 581.138Z" fill="#2D3C5A"/>
<path d="M280.861 575.179C280.391 575.179 279.921 574.866 279.765 574.552C279.452 573.925 279.765 573.298 280.391 572.984L301.687 563.262C302.314 562.949 302.94 563.262 303.253 563.89C303.566 564.517 303.253 565.144 302.627 565.458L281.331 575.179C281.174 575.179 281.017 575.179 280.861 575.179Z" fill="#2D3C5A"/>
<path d="M196.458 663.618L189.725 690.902L214.78 681.651L196.458 663.618Z" fill="#2D3C5A"/>
<path d="M188.003 692.784L195.832 661.423L216.972 682.278L188.003 692.784ZM197.085 665.97L191.291 689.02L212.587 681.18L197.085 665.97Z" fill="#2D3C5A"/>
<path d="M60.5383 539.742C60.2251 539.742 59.9119 539.585 59.7554 539.428L50.3599 531.117C49.8902 530.647 49.8902 530.02 50.2034 529.392C50.6732 528.922 51.2995 528.922 51.9258 529.236L61.3213 537.546C61.791 538.017 61.7911 538.644 61.4779 539.271C61.3213 539.585 60.8515 539.742 60.5383 539.742Z" fill="#2D3C5A"/>
<path d="M16.2232 600.425C15.91 600.425 15.5968 600.268 15.2837 599.955C14.8139 599.484 14.9704 598.7 15.4402 598.23L30.0031 586.156C30.4729 585.685 31.2559 585.842 31.7256 586.313C32.1954 586.783 32.0388 587.567 31.569 588.038L17.0061 600.112C16.6929 600.268 16.5363 600.425 16.2232 600.425Z" fill="#2D3C5A"/>
<path d="M194.266 652.171C194.109 652.171 193.953 652.171 193.796 652.171L180.799 647.467C180.173 647.31 179.86 646.526 180.016 645.899C180.173 645.272 180.956 644.958 181.582 645.115L194.579 649.819C195.206 649.976 195.519 650.76 195.362 651.387C195.206 651.857 194.736 652.171 194.266 652.171Z" fill="#2D3C5A"/>
<path d="M191.761 658.914C191.604 658.914 191.604 658.914 191.447 658.914L179.39 655.778C178.764 655.621 178.45 654.993 178.607 654.366C178.764 653.739 179.39 653.425 180.016 653.582L192.074 656.718C192.7 656.875 193.013 657.502 192.857 658.13C192.7 658.6 192.23 658.914 191.761 658.914Z" fill="#2D3C5A"/>
<path d="M248.446 704.231L297.146 677.26V737.944L248.446 704.231Z" fill="#2D3C5A"/>
<path d="M298.399 740.139L246.254 704.074L298.399 675.378V740.139ZM250.639 704.231L295.893 735.592V679.142L250.639 704.231Z" fill="#2D3C5A"/>
<path d="M38.906 723.857L28.5999 729.815L34.5503 740.136L44.8565 734.177L38.906 723.857Z" fill="white"/>
<path d="M34.2309 741.707L27.0278 729.319L39.3984 722.106L46.6016 734.494L34.2309 741.707ZM30.3162 730.26L35.1704 738.571L43.4698 733.71L38.6155 725.399L30.3162 730.26Z" fill="#2D3C5A"/>
<path d="M340.991 352.515H242.965C226.68 352.515 213.37 339.344 213.37 322.879V307.983C213.37 291.675 226.523 278.346 242.965 278.346H340.991C357.276 278.346 370.586 291.518 370.586 307.983V322.879C370.586 339.187 357.276 352.515 340.991 352.515Z" fill="white"/>
<path d="M340.991 353.613H242.966C226.054 353.613 212.274 339.814 212.274 322.879V307.983C212.274 291.048 226.054 277.249 242.966 277.249H340.991C357.903 277.249 371.683 291.048 371.683 307.983V322.879C371.683 339.814 357.903 353.613 340.991 353.613ZM243.122 279.601C227.463 279.601 214.779 292.302 214.779 307.983V322.879C214.779 338.56 227.463 351.261 243.122 351.261H341.148C356.807 351.261 369.49 338.56 369.49 322.879V307.983C369.49 292.302 356.807 279.601 341.148 279.601H243.122Z" fill="#2D3C5A"/>
<path d="M277.885 304.846H251.421C250.795 304.846 250.169 304.376 250.169 303.592C250.169 302.808 250.638 302.338 251.421 302.338H277.885C278.511 302.338 279.138 302.808 279.138 303.592C279.138 304.376 278.511 304.846 277.885 304.846Z" fill="#2D3C5A"/>
<path d="M280.86 297.477H251.421C250.795 297.477 250.169 297.006 250.169 296.222C250.169 295.438 250.638 294.968 251.421 294.968H280.86C281.487 294.968 282.113 295.438 282.113 296.222C282.113 297.006 281.487 297.477 280.86 297.477Z" fill="#2D3C5A"/>
<path d="M228.873 269.722C231.208 269.722 233.101 267.826 233.101 265.488C233.101 263.15 231.208 261.254 228.873 261.254C226.538 261.254 224.645 263.15 224.645 265.488C224.645 267.826 226.538 269.722 228.873 269.722Z" fill="#2D3C5A"/>
<path d="M228.873 270.976C225.897 270.976 223.392 268.468 223.392 265.488C223.392 262.509 225.897 260 228.873 260C231.848 260 234.353 262.509 234.353 265.488C234.353 268.468 231.848 270.976 228.873 270.976ZM228.873 262.352C227.15 262.352 225.741 263.763 225.741 265.488C225.741 267.213 227.15 268.624 228.873 268.624C230.595 268.624 232.004 267.213 232.004 265.488C232.004 263.763 230.595 262.352 228.873 262.352Z" fill="#2D3C5A"/>
<path d="M247.037 269.722C249.372 269.722 251.265 267.826 251.265 265.488C251.265 263.15 249.372 261.254 247.037 261.254C244.702 261.254 242.809 263.15 242.809 265.488C242.809 267.826 244.702 269.722 247.037 269.722Z" fill="#2D3C5A"/>
<path d="M247.037 270.976C244.062 270.976 241.556 268.468 241.556 265.488C241.556 262.509 244.062 260 247.037 260C250.012 260 252.517 262.509 252.517 265.488C252.517 268.468 250.012 270.976 247.037 270.976ZM247.037 262.352C245.314 262.352 243.905 263.763 243.905 265.488C243.905 267.213 245.314 268.624 247.037 268.624C248.759 268.624 250.169 267.213 250.169 265.488C250.169 263.763 248.759 262.352 247.037 262.352Z" fill="#2D3C5A"/>
<path d="M265.202 269.722C267.537 269.722 269.43 267.826 269.43 265.488C269.43 263.15 267.537 261.254 265.202 261.254C262.867 261.254 260.974 263.15 260.974 265.488C260.974 267.826 262.867 269.722 265.202 269.722Z" fill="#2D3C5A"/>
<path d="M265.202 270.976C262.226 270.976 259.721 268.468 259.721 265.488C259.721 262.509 262.226 260 265.202 260C268.177 260 270.682 262.509 270.682 265.488C270.682 268.468 268.177 270.976 265.202 270.976ZM265.202 262.352C263.479 262.352 262.07 263.763 262.07 265.488C262.07 267.213 263.479 268.624 265.202 268.624C266.924 268.624 268.333 267.213 268.333 265.488C268.333 263.763 266.924 262.352 265.202 262.352Z" fill="#2D3C5A"/>
<path d="M190.978 395.01C220.26 410.847 231.378 422.451 242.34 412.415C263.479 393.128 252.988 363.021 267.081 339.344C273.971 327.74 277.886 323.82 279.921 327.897C281.957 331.974 275.067 345.93 275.067 345.93C275.067 345.93 293.858 344.832 292.762 360.513C292.292 366.628 290.1 371.175 290.1 371.175C290.1 371.175 287.907 446.756 250.169 456.164C212.431 465.572 185.341 433.114 185.341 433.114L190.978 395.01Z" fill="white"/>
<path d="M236.546 458.986C205.854 458.986 184.558 434.054 184.401 433.741L184.088 433.27L190.039 393.128L191.448 393.912C198.338 397.675 204.132 400.968 209.143 404.104C225.898 414.14 233.571 418.687 241.4 411.474C253.144 400.812 254.867 387.013 256.746 372.273C258.155 360.983 259.721 349.222 265.985 338.716C271.935 328.681 275.067 325.074 277.886 325.231C279.138 325.231 280.078 326.015 280.861 327.426C282.74 331.19 278.825 340.598 276.79 344.832C279.921 344.989 286.185 345.773 290.256 349.85C292.918 352.515 294.171 356.279 293.858 360.826C293.545 366.471 291.666 370.705 291.196 371.802C291.039 377.448 287.907 448.324 250.482 457.575C245.628 458.516 240.93 458.986 236.546 458.986ZM186.594 432.643C189.882 436.25 215.563 463.534 250.013 455.066C286.498 445.972 289.004 371.959 289.004 371.175V370.862L289.16 370.705C289.16 370.705 291.352 366.314 291.666 360.512C291.979 356.592 290.883 353.613 288.69 351.418C283.993 346.714 275.224 347.184 275.224 347.184L273.188 347.341L274.128 345.459C276.633 340.284 280.235 331.033 278.982 328.367C278.825 327.897 278.512 327.426 278.042 327.426C276.946 327.426 274.284 329.622 268.177 339.814C262.227 350.006 260.661 361.453 259.251 372.587C257.372 387.013 255.493 402.066 243.123 413.199C234.04 421.51 224.802 416.022 208.046 406.143C203.349 403.32 198.025 400.184 191.918 396.891L186.594 432.643Z" fill="#2D3C5A"/>
<path d="M225.271 414.14C217.285 410.847 206.794 403.477 190.978 395.01L185.341 433.114C185.341 433.114 195.363 445.031 211.491 452.401C215.876 439.543 220.73 426.841 225.271 414.14Z" fill="white"/>
<path d="M212.274 453.969L211.021 453.498C194.736 446.128 184.714 434.368 184.401 433.898L184.088 433.427L190.038 393.128L191.448 393.912C198.338 397.675 203.975 400.968 209.142 404.104C215.876 408.025 221.2 411.161 225.584 413.042L226.68 413.513L226.367 414.61C224.801 419.001 223.079 423.548 221.513 427.939C218.538 436.093 215.406 444.56 212.587 452.871L212.274 453.969ZM186.593 432.643C188.472 434.682 197.398 444.247 210.865 450.676C213.527 442.679 216.502 434.682 219.321 426.998C220.887 422.921 222.296 418.844 223.862 414.767C219.477 412.886 214.466 409.749 208.046 406.143C203.348 403.32 198.024 400.184 191.917 396.891L186.593 432.643Z" fill="#2D3C5A"/>
<path d="M270.995 362.081C272.561 358.945 275.536 353.299 272.405 350.477C269.116 347.654 266.298 352.359 264.888 354.711C264.262 355.495 265.671 356.279 266.298 355.495C266.767 354.868 267.237 354.084 267.707 353.299C270.839 349.536 272.874 353.927 271.935 355.965C271.935 357.847 270.369 360.199 269.586 361.767C269.429 362.237 269.586 362.551 269.899 362.865C273.657 365.687 273.031 370.391 272.405 374.468C272.248 375.409 273.814 375.88 273.971 374.939C274.44 370.078 274.754 365.374 270.995 362.081Z" fill="#2D3C5A"/>
<path d="M281.487 363.335C279.295 363.335 277.886 363.335 277.103 360.512C276.946 359.728 277.103 358.631 277.103 357.69C277.103 355.338 277.259 353.143 277.572 350.79C277.729 349.85 276.163 349.85 276.007 350.79C275.693 354.083 274.597 358.944 275.85 362.237C276.789 364.589 279.295 364.903 281.487 364.903C282.427 364.903 282.427 363.335 281.487 363.335Z" fill="#2D3C5A"/>
<path d="M289.16 366.942C282.27 368.039 285.402 357.063 285.872 353.456C286.028 352.515 284.462 352.045 284.306 352.986C283.679 357.847 280.391 369.921 289.473 368.51C290.569 368.353 290.099 366.785 289.16 366.942Z" fill="#2D3C5A"/>
<path d="M277.885 338.246C283.766 338.246 288.534 333.472 288.534 327.583C288.534 321.694 283.766 316.92 277.885 316.92C272.005 316.92 267.237 321.694 267.237 327.583C267.237 333.472 272.005 338.246 277.885 338.246Z" fill="#2D3C5A"/>
<path d="M333.945 327.426H251.265C250.639 327.426 250.012 326.956 250.012 326.172C250.012 325.388 250.482 324.917 251.265 324.917H333.945C334.571 324.917 335.198 325.388 335.198 326.172C335.198 326.956 334.571 327.426 333.945 327.426Z" fill="#2D3C5A"/>
<path d="M292.762 313.314C292.605 313.314 292.292 313.314 292.135 313.157C291.509 312.843 291.352 312.059 291.822 311.589L300.435 297.476C300.748 296.849 301.531 296.692 302.001 297.163C302.627 297.476 302.784 298.26 302.314 298.731L293.701 312.843C293.545 313.157 293.231 313.314 292.762 313.314Z" fill="#2D3C5A"/>
<path d="M296.363 320.213C296.05 320.213 295.58 320.057 295.424 319.743C295.11 319.272 295.267 318.488 295.737 318.175L305.915 311.432C306.385 311.119 307.168 311.275 307.481 311.746C307.794 312.216 307.638 313 307.168 313.314L296.99 320.057C296.833 320.057 296.52 320.213 296.363 320.213Z" fill="#2D3C5A"/>
<path d="M145.88 352.986C145.41 353.927 145.097 354.867 144.94 355.808C139.773 357.219 135.388 361.61 134.292 367.255C133.979 368.98 133.979 370.705 134.136 372.273C130.847 374.154 127.872 377.447 126.619 380.27C123.957 385.601 126.306 392.657 130.847 396.421C130.534 399.871 131.317 403.477 133.509 406.143C134.449 407.24 135.388 408.181 136.484 408.809C137.894 411.161 140.243 412.729 143.688 413.356C151.987 414.924 161.226 408.495 166.706 402.85C169.838 399.557 172.344 395.48 173.91 391.246C175.475 390.776 176.728 389.992 177.981 388.737C184.871 383.876 189.725 373.057 181.739 367.882C181.113 366.157 180.016 364.746 178.451 363.962C176.572 362.394 174.849 361.767 173.283 362.08C175.319 361.453 177.041 360.356 178.607 358.787C179.703 355.338 180.486 351.888 180.956 348.282C181.269 345.616 182.679 343.891 184.401 342.95C176.258 335.737 156.528 333.385 145.88 352.986Z" fill="#2D3C5A"/>
<path d="M201.469 496.149C170.308 501.951 113.309 497.718 113.309 497.718C113.309 497.718 113.466 462.436 122.078 428.88C129.908 398.459 146.036 386.856 162.322 385.915C168.742 385.445 175.162 386.856 181.269 389.208C185.184 390.776 188.316 392.658 190.821 395.01C206.011 408.495 201.626 433.898 196.772 447.226C191.291 462.75 201.469 496.149 201.469 496.149Z" fill="white"/>
<path d="M190.978 395.01C184.245 400.341 173.127 402.85 162.479 385.915C168.899 385.445 175.319 386.856 181.426 389.208C185.184 390.619 188.316 392.658 190.978 395.01Z" fill="white"/>
<path d="M196.616 443.62C196.459 443.62 196.459 443.62 196.302 443.62C195.676 443.463 195.363 442.836 195.519 442.208C195.519 442.051 200.06 424.176 193.953 412.886C193.64 412.258 193.797 411.631 194.423 411.318C195.05 411.004 195.676 411.161 195.989 411.788C202.566 423.862 198.025 442.052 197.712 442.836C197.712 443.306 197.242 443.62 196.616 443.62Z" fill="#2D3C5A"/>
<path d="M143.844 392.344C124.427 404.418 80.2687 454.282 124.114 520.454L154.492 502.735C154.492 502.735 145.41 479.214 145.41 456.478C145.41 438.445 161.069 417.119 161.069 417.119L143.844 392.344Z" fill="white"/>
<path d="M147.759 442.835C152.144 429.193 161.069 416.963 161.069 416.963L143.844 392.344C136.172 397.205 124.584 407.868 116.128 423.235C126.776 429.507 137.268 436.25 147.759 442.835Z" fill="white"/>
<path d="M149.482 439.386C149.325 439.386 149.168 439.386 149.012 439.229C148.386 438.915 148.229 438.288 148.386 437.661L153.24 427.312C153.553 426.684 154.179 426.528 154.806 426.684C155.432 426.998 155.589 427.625 155.432 428.253L150.578 438.602C150.421 439.072 149.951 439.386 149.482 439.386Z" fill="#2D3C5A"/>
<path d="M202.722 496.62C171.56 502.422 113.309 498.188 113.309 498.188C113.309 498.188 114.718 462.907 123.487 429.35C131.317 398.93 147.446 387.326 163.731 386.385C170.151 385.915 176.571 387.326 182.678 389.678C186.593 391.246 189.725 393.128 192.23 395.48C207.42 408.965 203.035 434.368 198.181 447.696C192.544 463.22 202.722 496.62 202.722 496.62Z" fill="white"/>
<path d="M156.841 500.854C133.822 500.854 113.465 499.442 113.152 499.442L112.056 499.286V498.188C112.056 497.874 113.465 462.279 122.235 429.037C131.787 392.344 152.3 385.758 163.574 385.131C169.838 384.817 176.415 385.915 182.992 388.424C186.75 389.992 190.195 392.03 192.857 394.382C211.334 410.847 201.313 441.738 199.12 447.853C193.64 463.063 203.661 495.836 203.661 496.149L203.975 497.404L202.722 497.717C190.195 500.07 172.97 500.854 156.841 500.854ZM114.562 497.09C122.704 497.561 172.657 500.54 201.313 495.679C199.434 489.25 191.917 461.495 197.085 447.226C199.12 441.424 208.672 411.631 191.447 396.264C188.942 393.912 185.81 392.03 182.209 390.619C175.945 388.11 169.838 387.013 163.887 387.483C145.41 388.581 131.473 403.477 124.583 429.664C116.91 459.3 114.875 490.661 114.562 497.09Z" fill="#2D3C5A"/>
<path d="M192.23 395.323C185.497 400.655 174.379 403.164 163.731 386.229C170.151 385.758 176.571 387.169 182.678 389.522C186.437 391.09 189.568 392.971 192.23 395.323Z" fill="white"/>
<path d="M181.739 400.498C180.956 400.498 180.016 400.498 179.233 400.341C173.283 399.4 167.802 394.853 162.791 387.013L161.695 385.288L163.731 385.131C169.994 384.817 176.571 385.915 183.148 388.424C186.906 389.992 190.351 392.03 193.013 394.382L194.109 395.323L193.013 396.264C190.351 398.303 186.436 400.498 181.739 400.498ZM165.923 387.326C170.151 393.598 174.849 397.048 179.703 397.989C184.087 398.773 187.846 397.048 190.351 395.323C188.002 393.442 185.34 391.874 182.208 390.619C176.728 388.424 171.404 387.326 166.08 387.326C165.923 387.326 165.923 387.326 165.923 387.326Z" fill="#2D3C5A"/>
<path d="M151.987 435.622C143.375 427.469 132.883 421.196 122.861 414.767C106.576 437.975 95.3014 475.608 125.367 520.925L155.745 503.206C155.745 503.206 146.663 479.685 146.663 456.948C146.663 449.735 149.012 442.208 151.987 435.622Z" fill="white"/>
<path d="M125.053 522.493L124.427 521.552C91.3865 471.688 108.768 432.8 121.922 414.14L122.548 413.199L127.089 416.179C135.858 421.824 145.097 427.625 152.77 434.838L153.396 435.466L153.083 436.25C149.638 444.09 147.916 450.989 147.916 456.948C147.916 479.214 156.841 502.578 156.998 502.892L157.311 503.833L125.053 522.493ZM123.174 416.335C110.491 434.838 94.8315 471.845 125.68 519.357L154.336 502.578C152.613 497.874 145.41 476.862 145.41 456.791C145.41 450.676 147.133 443.776 150.578 435.936C143.218 429.193 134.449 423.548 125.836 418.06L123.174 416.335Z" fill="#2D3C5A"/>
<path d="M145.097 392.814C137.424 397.675 125.836 408.338 117.38 423.705C128.029 430.134 138.52 436.877 149.012 443.463C153.396 429.821 162.322 417.59 162.322 417.59" fill="white"/>
<path d="M149.638 445.031L148.385 444.247C145.41 442.365 142.278 440.483 139.303 438.602C131.943 433.898 124.27 429.193 116.754 424.646L115.814 424.019L116.441 423.078C124.897 407.711 136.641 396.891 144.627 391.874C145.253 391.56 145.88 391.717 146.193 392.187C146.506 392.814 146.35 393.442 145.88 393.755C138.207 398.459 127.402 408.652 119.103 423.078C126.306 427.468 133.666 432.016 140.712 436.563C143.374 438.131 145.88 439.856 148.542 441.424C153.083 428.252 161.226 417.119 161.539 416.649C161.852 416.178 162.635 416.022 163.105 416.335C163.575 416.649 163.731 417.433 163.418 417.903C163.261 418.06 154.649 430.134 150.264 443.463L149.638 445.031Z" fill="#2D3C5A"/>
<path d="M182.679 334.953C178.607 331.503 173.44 329.622 168.116 330.406C156.998 331.974 149.482 343.42 151.204 355.808C151.204 355.808 151.204 355.808 151.204 355.965C151.361 357.219 151.674 358.474 152.144 359.728C147.916 363.021 149.012 369.607 152.77 372.743C156.058 375.566 160.443 376.193 164.514 373.527C167.646 374.938 171.091 375.566 174.693 375.409C190.665 374.468 195.676 362.237 191.604 350.006C189.725 344.518 187.22 338.716 182.679 334.953Z" fill="white"/>
<path d="M173.44 376.663C170.465 376.663 167.489 376.036 164.671 374.938C160.443 377.29 155.902 376.82 151.987 373.684C149.638 371.645 148.229 368.509 148.229 365.373C148.229 363.021 149.168 360.983 150.734 359.415C150.421 358.317 150.108 357.219 149.951 356.278V356.122C149.012 349.849 150.421 343.734 153.709 338.559C157.154 333.542 162.009 330.249 167.803 329.308C173.127 328.524 178.607 330.249 183.305 334.169C188.159 338.246 190.821 344.518 192.544 349.693C194.893 356.592 194.423 363.492 190.978 368.509C187.689 373.37 182.052 376.193 174.693 376.663C174.379 376.663 173.91 376.663 173.44 376.663ZM164.514 372.273L165.14 372.586C168.116 373.998 171.561 374.468 174.693 374.311C181.426 373.841 186.437 371.489 189.255 367.098C192.231 362.708 192.7 356.592 190.508 350.32C188.786 345.302 186.437 339.5 182.052 335.894C177.824 332.444 172.97 330.876 168.429 331.503C163.418 332.287 158.877 335.11 155.902 339.657C152.927 344.204 151.674 349.849 152.457 355.651V355.808C152.613 356.906 152.926 358.003 153.24 359.258L153.553 360.042L152.926 360.512C151.047 361.924 150.734 363.805 150.734 365.216C150.734 367.569 151.83 370.077 153.709 371.645C156.841 374.311 160.599 374.625 164.044 372.429L164.514 372.273Z" fill="#2D3C5A"/>
<path d="M177.071 352.68C177.285 351.841 176.778 350.987 175.94 350.773C175.102 350.559 174.25 351.066 174.036 351.905C173.822 352.744 174.329 353.598 175.167 353.812C176.005 354.026 176.857 353.519 177.071 352.68Z" fill="#2D3C5A"/>
<path d="M187.846 357.376C186.906 353.927 185.497 350.79 183.618 347.811C183.148 347.027 181.739 347.811 182.209 348.595C184.088 351.418 185.341 354.554 186.28 357.69C186.593 358.788 188.159 358.317 187.846 357.376Z" fill="#2D3C5A"/>
<path d="M163.418 364.903C160.599 362.551 156.528 362.237 153.553 364.433C152.77 365.06 153.553 366.314 154.336 365.844C156.685 364.119 159.973 364.119 162.322 366.157C163.105 366.628 164.201 365.53 163.418 364.903Z" fill="#2D3C5A"/>
<path d="M160.13 357.376C163.731 359.571 163.105 353.299 168.742 345.459C171.248 342.009 186.28 341.382 187.69 330.562C188.473 319.272 171.091 324.29 168.116 330.562C156.998 332.13 145.723 345.459 152.457 361.139C154.649 359.258 158.407 357.376 160.13 357.376Z" fill="#2D3C5A"/>
</svg>
