<svg width="445" height="765" viewBox="0 0 445 765" fill="none" xmlns="http://www.w3.org/2000/svg">
<path d="M280.267 671.073C270.089 666.996 261.007 666.369 261.007 623.248C243.469 627.168 225.93 630.304 208.079 632.656C209.019 659.313 209.645 685.5 209.645 685.5L288.88 685.656C288.88 685.5 290.602 675.15 280.267 671.073Z" fill="white"/>
<path d="M289.976 686.754L208.549 686.597V685.5C208.549 685.186 207.922 659.156 206.983 632.656V631.558L208.079 631.402C226.243 628.893 243.938 625.757 260.85 621.993L262.259 621.68V623.091C262.259 662.763 269.932 665.742 279.014 669.192C279.641 669.349 280.267 669.662 280.737 669.819C291.855 674.21 290.132 685.5 290.132 685.656L289.976 686.754ZM210.741 684.245L287.783 684.402C287.94 681.893 287.314 675.15 279.641 672.171C279.014 671.857 278.388 671.701 277.918 671.544C268.21 667.937 259.91 664.644 259.754 624.816C243.468 628.422 226.557 631.402 209.175 633.754C210.115 656.647 210.741 679.071 210.741 684.245Z" fill="#2D3C5A"/>
<path d="M261.163 632.813C261.006 629.206 261.006 625.286 261.006 621.052C261.319 574.324 276.039 546.883 231.567 527.91C218.727 522.422 203.068 513.64 180.049 506.898C155.464 499.685 161.884 502.194 161.884 502.194L127.435 527.126C199.779 576.52 194.455 572.756 206.043 580.597C204.164 592.2 207.765 614.937 208.548 637.674C225.93 636.419 243.625 635.008 261.163 632.813Z" fill="white"/>
<path d="M207.139 638.771V637.517C206.826 628.736 206.2 620.268 205.573 611.958C204.477 599.256 203.694 588.28 204.634 580.91C197.274 575.892 196.804 575.579 175.038 560.839L125.243 526.812L159.849 501.88C159.849 501.723 159.849 501.41 159.849 501.253C160.319 499.842 160.319 499.685 180.206 505.643C197.274 510.661 210.428 516.777 221.076 521.794C224.991 523.676 228.592 525.244 232.037 526.812C267.74 542.022 266.174 562.564 263.668 593.611C263.042 601.765 262.259 611.017 262.259 621.052C262.259 625.286 262.259 629.206 262.416 632.813V633.91L261.32 634.067C244.408 636.106 227.026 637.674 208.392 638.771H207.139ZM129.157 526.969L176.135 558.957C198.37 574.168 198.37 574.167 206.356 579.499L206.983 579.969L206.826 580.753C205.73 587.81 206.67 598.943 207.609 611.958C208.235 619.955 208.862 628.109 209.175 636.419C227.026 635.322 243.468 633.754 259.754 631.872C259.597 628.579 259.597 624.973 259.597 621.052C259.597 611.017 260.38 601.609 261.006 593.455C263.355 563.348 265.078 543.59 230.784 529.008C227.339 527.596 223.738 525.871 219.823 523.99C209.332 519.129 196.178 513.013 179.266 507.996C168.462 504.859 163.92 503.605 162.041 503.135L129.157 526.969Z" fill="#2D3C5A"/>
<path d="M194.142 592.043C195.865 588.907 223.581 541.395 231.411 527.753C219.51 520.226 202.911 513.484 179.893 506.741C155.308 499.528 161.728 502.037 161.728 502.037L127.278 526.969C166.896 571.502 186.939 587.182 194.142 592.043Z" fill="#2D3C5A"/>
<path d="M194.612 593.768L193.516 592.984C184.904 587.182 164.86 571.031 126.339 527.596L125.399 526.655L159.849 501.88C159.849 501.723 159.849 501.41 159.849 501.253C160.319 499.842 160.319 499.685 180.206 505.643C203.538 512.543 219.98 519.286 232.037 526.812L232.977 527.439L232.351 528.38C229.689 533.084 224.678 541.552 219.197 550.96C208.862 568.523 196.178 590.475 195.082 592.514L194.612 593.768ZM128.844 527.126C166.113 568.993 186 584.987 193.673 590.319C196.491 585.301 207.453 566.484 217.161 549.863C222.329 541.082 227.027 533.084 229.845 528.223C218.101 521.01 201.972 514.581 179.58 507.839C168.775 504.703 164.234 503.448 162.355 502.978L128.844 527.126Z" fill="#2D3C5A"/>
<path d="M262.572 648.337C244.721 650.532 226.713 652.1 208.705 653.198C209.331 671.23 209.645 685.343 209.645 685.343L288.879 685.5C288.879 685.5 290.602 675.15 280.11 670.917C272.594 667.937 265.547 666.84 262.572 648.337Z" fill="#2D3C5A"/>
<path d="M270.715 656.177L257.404 666.369C256.621 666.996 257.404 668.251 258.187 667.781L271.498 657.588C272.28 656.961 271.498 655.55 270.715 656.177Z" fill="white"/>
<path d="M274.63 661.195C271.498 663.86 268.836 667.153 266.957 670.917C266.487 671.858 267.896 672.642 268.366 671.701C270.245 668.094 272.751 664.958 275.883 662.292C276.509 661.665 275.413 660.568 274.63 661.195Z" fill="white"/>
<path d="M102.694 508.623C96.4301 532.457 103.79 596.904 87.5044 629.677C78.109 648.493 36.9258 721.722 36.9258 721.722L104.729 762.648C104.729 762.648 111.463 754.651 104.729 745.713C97.996 736.775 90.4797 731.601 113.968 692.87C147.009 638.458 159.379 610.39 159.379 552.842C159.379 527.283 157.187 504.232 157.187 504.232L102.694 508.623Z" fill="white"/>
<path d="M105.043 764.059L35.3599 722.035L35.9863 721.095C36.456 720.31 77.3261 647.866 86.5649 629.206C96.5867 609.135 97.5262 575.736 98.3092 549.079C98.7789 532.144 99.2487 517.561 101.598 508.466L101.754 507.682H102.537L158.127 503.135L158.283 504.232C158.283 504.389 160.476 527.596 160.476 552.999C160.476 609.292 149.044 637.517 114.908 693.654C93.1417 729.405 98.4658 735.991 104.416 743.518C104.886 743.988 105.199 744.459 105.669 745.086C112.872 754.651 105.669 763.432 105.669 763.432L105.043 764.059ZM38.4917 721.095L104.416 760.923C105.826 758.728 108.801 752.769 103.79 746.34C103.32 745.87 103.007 745.399 102.537 744.772C95.9603 736.461 90.323 729.248 112.872 692.242C146.852 636.419 158.127 608.508 158.127 552.842C158.127 530.732 156.404 510.348 155.934 505.487L103.477 509.877C101.284 518.815 100.971 532.928 100.501 549.235C99.7185 577.617 98.7789 609.762 88.6006 630.304C79.9881 647.553 43.5026 712.313 38.4917 721.095Z" fill="#2D3C5A"/>
<path d="M108.017 703.062C109.74 699.926 111.619 696.476 113.968 692.869C147.008 638.458 159.379 610.39 159.379 552.842C159.379 527.283 157.187 504.232 157.187 504.232L102.693 508.78C96.4296 532.614 103.789 597.061 87.504 629.834C82.9629 638.771 71.3752 660.254 60.2573 680.011C75.9164 688.008 91.8886 695.849 108.017 703.062Z" fill="white"/>
<path d="M108.487 704.63L107.548 704.159C92.0452 697.103 76.3861 689.576 59.7876 680.952L58.6914 680.325L59.3177 679.227C73.724 653.511 82.8063 636.576 86.5645 629.05C96.5862 608.978 97.5258 575.579 98.3087 548.922C98.7785 531.987 99.2482 517.404 101.597 508.309L101.754 507.525H102.537L158.126 502.978L158.283 504.075C158.283 504.232 160.475 527.439 160.475 552.842C160.475 609.135 149.044 637.36 114.907 693.497C112.715 697.103 110.679 700.553 108.957 703.689L108.487 704.63ZM61.8232 679.384C77.6388 687.538 92.6715 694.908 107.548 701.494C109.113 698.514 110.993 695.378 113.028 692.242C147.008 636.419 158.283 608.508 158.283 552.842C158.283 530.732 156.56 510.348 156.091 505.487L103.633 509.877C101.441 518.815 101.127 532.928 100.658 549.235C99.8746 577.617 98.9351 609.762 88.7568 630.304C84.842 637.517 75.9163 654.138 61.8232 679.384Z" fill="#2D3C5A"/>
<path d="M163.451 613.683C173.316 577.304 157.187 504.075 157.187 504.075L102.694 508.623C97.9963 526.812 100.972 568.523 95.6475 601.922C96.587 602.079 155.465 613.055 163.451 613.683Z" fill="#2D3C5A"/>
<path d="M164.391 614.937H163.451C157.031 614.467 118.98 607.567 96.7437 603.333L94.2383 602.863L94.3948 601.765C97.0569 584.987 97.6833 565.857 98.153 548.922C98.6228 531.987 99.0925 517.404 101.441 508.309L101.598 507.525H102.381L157.814 502.978L157.97 503.919C158.597 506.898 174.099 577.931 164.234 613.996L164.391 614.937ZM96.9002 600.981H97.0569C132.603 607.567 156.091 611.644 162.512 612.428C170.967 578.872 157.971 514.268 156.091 505.33L103.477 509.72C101.285 518.658 100.972 532.771 100.502 549.079C100.032 565.543 99.5623 584.203 96.9002 600.981Z" fill="#2D3C5A"/>
<path d="M101.284 717.174C84.8423 709.804 68.7134 701.964 52.5846 693.653C43.8156 709.491 36.769 721.722 36.769 721.722L104.573 762.648C104.573 762.648 111.306 754.651 104.573 745.713C99.7183 739.127 94.3943 734.423 101.284 717.174Z" fill="#2D3C5A"/>
<path d="M104.259 727.994L87.6607 729.876C86.7212 730.032 86.7212 731.6 87.6607 731.444L104.259 729.562C105.199 729.405 105.199 727.837 104.259 727.994Z" fill="white"/>
<path d="M105.042 734.423C100.971 735.05 97.0563 736.618 93.4547 738.813C92.5152 739.284 93.4547 740.695 94.2377 740.225C97.6827 738.029 101.441 736.775 105.512 735.991C106.452 735.677 105.982 734.266 105.042 734.423Z" fill="white"/>
<path d="M164.39 566.484C163.764 566.484 163.138 566.014 163.138 565.23C163.138 556.292 163.921 549.706 163.921 549.706L164.077 548.922L164.86 548.765C164.86 548.765 170.811 547.511 176.918 542.963C177.387 542.65 178.17 542.65 178.64 543.12C178.953 543.591 178.953 544.375 178.484 544.845C173.159 548.765 168.305 550.49 166.27 550.96C166.113 552.999 165.643 558.487 165.643 565.386C165.487 566.014 165.017 566.484 164.39 566.484Z" fill="white"/>
<path d="M257.875 568.522C254.899 567.895 252.551 565.543 252.081 562.564C251.924 561.623 250.358 561.937 250.515 563.034C251.141 566.484 253.803 569.463 257.405 570.091C258.501 570.091 258.971 568.679 257.875 568.522Z" fill="#2D3C5A"/>
<path d="M137.926 625.443C138.396 624.502 137.143 623.718 136.517 624.659C134.638 627.952 134.638 631.715 136.517 635.008C136.987 635.949 138.396 635.165 137.926 634.224C136.36 631.402 136.36 628.109 137.926 625.443Z" fill="#2D3C5A"/>
<path d="M215.752 765C215.125 765 214.499 764.529 214.499 763.745V686.44H291.698C292.324 686.44 292.951 686.911 292.951 687.695C292.951 688.479 292.481 688.949 291.698 688.949H216.848V763.902C217.004 764.373 216.378 765 215.752 765Z" fill="#2D3C5A"/>
<path d="M291.698 688.949C291.072 688.949 290.445 688.479 290.445 687.695V610.39H343.529C344.156 610.39 344.782 610.86 344.782 611.644C344.782 612.428 344.312 612.899 343.529 612.899H292.794V687.852C292.951 688.322 292.481 688.949 291.698 688.949Z" fill="#2D3C5A"/>
<path d="M367.801 612.742H353.552C352.925 612.742 352.299 612.271 352.299 611.487C352.299 610.703 352.769 610.233 353.552 610.233H367.801C368.428 610.233 369.054 610.703 369.054 611.487C369.054 612.271 368.428 612.742 367.801 612.742Z" fill="#2D3C5A"/>
<path d="M367.801 612.742C367.175 612.742 366.548 612.271 366.548 611.487V566.327C366.548 565.7 367.018 565.073 367.801 565.073C368.584 565.073 369.054 565.543 369.054 566.327V611.487C368.897 612.271 368.427 612.742 367.801 612.742Z" fill="#2D3C5A"/>
<path d="M367.801 557.232C367.175 557.232 366.548 556.762 366.548 555.978V534.339H395.831C396.457 534.339 397.084 534.809 397.084 535.593C397.084 536.377 396.614 536.848 395.831 536.848H368.897V556.135C368.897 556.762 368.427 557.232 367.801 557.232Z" fill="#2D3C5A"/>
<path d="M443.747 536.691H430.281C429.654 536.691 429.028 536.221 429.028 535.436C429.028 534.652 429.498 534.182 430.281 534.182H443.747C444.374 534.182 445 534.652 445 535.436C445 536.221 444.374 536.691 443.747 536.691Z" fill="#2D3C5A"/>
<path d="M334.291 473.969L357.779 510.504C357.779 510.504 373.438 494.51 362.477 479.614C351.515 464.56 334.291 473.969 334.291 473.969Z" fill="white"/>
<path d="M357.622 512.386L332.725 473.498L333.821 472.871C333.977 472.714 352.142 463.149 363.573 478.83C375.004 494.51 358.875 511.132 358.719 511.288L357.622 512.386ZM336.013 474.439L357.936 508.623C361.067 504.859 370.306 492.315 361.537 480.241C352.768 468.167 339.928 472.714 336.013 474.439Z" fill="#2D3C5A"/>
<path d="M338.988 508.152C342.62 508.152 345.565 505.204 345.565 501.566C345.565 497.929 342.62 494.981 338.988 494.981C335.356 494.981 332.411 497.929 332.411 501.566C332.411 505.204 335.356 508.152 338.988 508.152Z" fill="#2D3C5A"/>
<path d="M338.988 509.407C334.76 509.407 331.315 505.957 331.315 501.723C331.315 497.49 334.76 494.04 338.988 494.04C343.216 494.04 346.661 497.49 346.661 501.723C346.661 505.957 343.216 509.407 338.988 509.407ZM338.988 496.235C336.013 496.235 333.664 498.587 333.664 501.567C333.664 504.546 336.013 506.898 338.988 506.898C341.964 506.898 344.312 504.546 344.312 501.567C344.312 498.587 341.964 496.235 338.988 496.235Z" fill="#2D3C5A"/>
<path d="M281.363 601.138C280.893 601.138 280.424 600.824 280.267 600.511L270.558 579.185C270.245 578.558 270.558 577.931 271.185 577.617C271.811 577.304 272.438 577.617 272.751 578.244L282.459 599.57C282.772 600.197 282.459 600.824 281.833 601.138C281.676 600.981 281.52 601.138 281.363 601.138Z" fill="#2D3C5A"/>
<path d="M265.861 595.179C265.391 595.179 264.921 594.866 264.764 594.552C264.451 593.925 264.764 593.298 265.391 592.984L286.687 583.262C287.313 582.949 287.94 583.262 288.253 583.89C288.566 584.517 288.253 585.144 287.627 585.458L266.33 595.179C266.174 595.179 266.017 595.179 265.861 595.179Z" fill="#2D3C5A"/>
<path d="M181.459 683.618L174.726 710.902L199.78 701.65L181.459 683.618Z" fill="#2D3C5A"/>
<path d="M173.003 712.784L180.832 681.423L201.972 702.278L173.003 712.784ZM182.085 685.97L176.291 709.02L197.588 701.18L182.085 685.97Z" fill="#2D3C5A"/>
<path d="M45.5386 559.741C45.2254 559.741 44.9122 559.585 44.7556 559.428L35.3602 551.117C34.8904 550.647 34.8905 550.02 35.2036 549.392C35.6734 548.922 36.2997 548.922 36.9261 549.235L46.3215 557.546C46.7913 558.017 46.7913 558.644 46.4782 559.271C46.3216 559.585 45.8517 559.741 45.5386 559.741Z" fill="#2D3C5A"/>
<path d="M1.22316 620.425C0.909983 620.425 0.596841 620.268 0.28366 619.955C-0.186111 619.484 -0.0295585 618.7 0.440212 618.23L15.0031 606.156C15.4729 605.685 16.2559 605.842 16.7256 606.313C17.1954 606.783 17.0388 607.567 16.569 608.037L2.00611 620.112C1.69293 620.268 1.53634 620.425 1.22316 620.425Z" fill="#2D3C5A"/>
<path d="M179.266 672.171C179.11 672.171 178.953 672.171 178.796 672.171L165.799 667.467C165.173 667.31 164.86 666.526 165.016 665.899C165.173 665.271 165.956 664.958 166.582 665.115L179.579 669.819C180.206 669.976 180.519 670.76 180.362 671.387C180.206 671.857 179.736 672.171 179.266 672.171Z" fill="#2D3C5A"/>
<path d="M176.761 678.914C176.604 678.914 176.604 678.914 176.448 678.914L164.39 675.778C163.764 675.621 163.451 674.993 163.607 674.366C163.764 673.739 164.39 673.425 165.017 673.582L177.074 676.718C177.7 676.875 178.014 677.502 177.857 678.13C177.7 678.6 177.231 678.914 176.761 678.914Z" fill="#2D3C5A"/>
<path d="M233.446 724.231L282.146 697.26V757.944L233.446 724.231Z" fill="#2D3C5A"/>
<path d="M283.399 760.139L231.254 724.074L283.399 695.378V760.139ZM235.639 724.231L280.893 755.592V699.142L235.639 724.231Z" fill="#2D3C5A"/>
<path d="M23.9058 743.857L13.5996 749.815L19.5501 760.136L29.8563 754.177L23.9058 743.857Z" fill="white"/>
<path d="M19.2309 761.707L12.0278 749.319L24.3984 742.106L31.6016 754.494L19.2309 761.707ZM15.3162 750.26L20.1704 758.571L28.4698 753.71L23.6155 745.399L15.3162 750.26Z" fill="#2D3C5A"/>
<path d="M325.991 372.515H227.966C211.68 372.515 198.37 359.344 198.37 342.879V327.983C198.37 311.675 211.524 298.346 227.966 298.346H325.991C342.277 298.346 355.587 311.518 355.587 327.983V342.879C355.587 359.187 342.277 372.515 325.991 372.515Z" fill="white"/>
<path d="M325.991 373.613H227.966C211.054 373.613 197.274 359.814 197.274 342.879V327.983C197.274 311.048 211.054 297.249 227.966 297.249H325.991C342.903 297.249 356.683 311.048 356.683 327.983V342.879C356.683 359.814 342.903 373.613 325.991 373.613ZM228.122 299.601C212.463 299.601 199.779 312.302 199.779 327.983V342.879C199.779 358.56 212.463 371.261 228.122 371.261H326.148C341.807 371.261 354.49 358.56 354.49 342.879V327.983C354.49 312.302 341.807 299.601 326.148 299.601H228.122Z" fill="#2D3C5A"/>
<path d="M262.885 324.846H236.422C235.795 324.846 235.169 324.376 235.169 323.592C235.169 322.808 235.639 322.338 236.422 322.338H262.885C263.512 322.338 264.138 322.808 264.138 323.592C264.138 324.376 263.512 324.846 262.885 324.846Z" fill="#2D3C5A"/>
<path d="M265.861 317.477H236.422C235.795 317.477 235.169 317.006 235.169 316.222C235.169 315.438 235.639 314.968 236.422 314.968H265.861C266.487 314.968 267.113 315.438 267.113 316.222C267.113 317.006 266.487 317.477 265.861 317.477Z" fill="#2D3C5A"/>
<path d="M213.873 289.722C216.208 289.722 218.101 287.826 218.101 285.488C218.101 283.15 216.208 281.254 213.873 281.254C211.538 281.254 209.645 283.15 209.645 285.488C209.645 287.826 211.538 289.722 213.873 289.722Z" fill="#2D3C5A"/>
<path d="M213.873 290.976C210.898 290.976 208.392 288.468 208.392 285.488C208.392 282.509 210.898 280 213.873 280C216.848 280 219.353 282.509 219.353 285.488C219.353 288.468 216.848 290.976 213.873 290.976ZM213.873 282.352C212.15 282.352 210.741 283.763 210.741 285.488C210.741 287.213 212.15 288.624 213.873 288.624C215.595 288.624 217.005 287.213 217.005 285.488C217.005 283.763 215.595 282.352 213.873 282.352Z" fill="#2D3C5A"/>
<path d="M232.037 289.722C234.372 289.722 236.265 287.826 236.265 285.488C236.265 283.15 234.372 281.254 232.037 281.254C229.702 281.254 227.809 283.15 227.809 285.488C227.809 287.826 229.702 289.722 232.037 289.722Z" fill="#2D3C5A"/>
<path d="M232.037 290.976C229.062 290.976 226.556 288.468 226.556 285.488C226.556 282.509 229.062 280 232.037 280C235.012 280 237.517 282.509 237.517 285.488C237.517 288.468 235.012 290.976 232.037 290.976ZM232.037 282.352C230.314 282.352 228.905 283.763 228.905 285.488C228.905 287.213 230.314 288.624 232.037 288.624C233.759 288.624 235.169 287.213 235.169 285.488C235.169 283.763 233.759 282.352 232.037 282.352Z" fill="#2D3C5A"/>
<path d="M250.202 289.722C252.537 289.722 254.43 287.826 254.43 285.488C254.43 283.15 252.537 281.254 250.202 281.254C247.867 281.254 245.974 283.15 245.974 285.488C245.974 287.826 247.867 289.722 250.202 289.722Z" fill="#2D3C5A"/>
<path d="M250.201 290.976C247.226 290.976 244.721 288.468 244.721 285.488C244.721 282.509 247.226 280 250.201 280C253.177 280 255.682 282.509 255.682 285.488C255.682 288.468 253.177 290.976 250.201 290.976ZM250.201 282.352C248.479 282.352 247.07 283.763 247.07 285.488C247.07 287.213 248.479 288.624 250.201 288.624C251.924 288.624 253.333 287.213 253.333 285.488C253.333 283.763 251.924 282.352 250.201 282.352Z" fill="#2D3C5A"/>
<path d="M175.978 415.01C205.26 430.847 216.378 442.451 227.34 432.415C248.479 413.128 237.988 383.021 252.081 359.344C258.971 347.74 262.886 343.82 264.921 347.897C266.957 351.974 260.067 365.93 260.067 365.93C260.067 365.93 278.858 364.832 277.762 380.513C277.292 386.628 275.1 391.175 275.1 391.175C275.1 391.175 272.907 466.756 235.169 476.164C197.431 485.572 170.341 453.114 170.341 453.114L175.978 415.01Z" fill="white"/>
<path d="M221.546 478.986C190.854 478.986 169.558 454.054 169.401 453.741L169.088 453.27L175.038 413.128L176.448 413.912C183.338 417.675 189.131 420.968 194.142 424.104C210.897 434.14 218.57 438.687 226.4 431.474C238.144 420.812 239.867 407.013 241.746 392.273C243.155 380.983 244.721 369.222 250.985 358.716C256.935 348.681 260.067 345.074 262.885 345.231C264.138 345.231 265.078 346.015 265.861 347.426C267.74 351.19 263.825 360.598 261.789 364.832C264.921 364.989 271.185 365.773 275.256 369.85C277.918 372.515 279.171 376.279 278.858 380.826C278.544 386.471 276.665 390.705 276.196 391.803C276.039 397.448 272.907 468.324 235.482 477.575C230.628 478.516 225.93 478.986 221.546 478.986ZM171.593 452.643C174.882 456.25 200.562 483.534 235.012 475.066C271.498 465.972 274.003 391.959 274.003 391.175V390.862L274.16 390.705C274.16 390.705 276.352 386.314 276.665 380.513C276.979 376.592 275.882 373.613 273.69 371.418C268.992 366.714 260.223 367.184 260.223 367.184L258.188 367.341L259.127 365.459C261.633 360.285 265.234 351.033 263.982 348.367C263.825 347.897 263.512 347.426 263.042 347.426C261.946 347.426 259.284 349.622 253.177 359.814C247.226 370.007 245.661 381.453 244.251 392.587C242.372 407.013 240.493 422.066 228.122 433.199C219.04 441.51 209.801 436.022 193.046 426.143C188.348 423.32 183.024 420.184 176.917 416.891L171.593 452.643Z" fill="#2D3C5A"/>
<path d="M210.271 434.14C202.285 430.847 191.794 423.477 175.978 415.01L170.341 453.114C170.341 453.114 180.363 465.031 196.491 472.401C200.876 459.543 205.73 446.841 210.271 434.14Z" fill="white"/>
<path d="M197.274 473.969L196.021 473.498C179.736 466.128 169.714 454.368 169.401 453.898L169.088 453.427L175.038 413.128L176.448 413.912C183.338 417.675 188.975 420.968 194.142 424.105C200.876 428.025 206.2 431.161 210.584 433.042L211.68 433.513L211.367 434.611C209.801 439.001 208.079 443.548 206.513 447.939C203.538 456.093 200.406 464.56 197.587 472.871L197.274 473.969ZM171.593 452.643C173.472 454.682 182.398 464.247 195.865 470.676C198.527 462.679 201.502 454.682 204.321 446.998C205.887 442.921 207.296 438.844 208.862 434.767C204.477 432.886 199.466 429.749 193.046 426.143C188.348 423.32 183.024 420.184 176.917 416.891L171.593 452.643Z" fill="#2D3C5A"/>
<path d="M255.995 382.081C257.561 378.945 260.536 373.3 257.405 370.477C254.116 367.655 251.298 372.359 249.888 374.711C249.262 375.495 250.671 376.279 251.298 375.495C251.767 374.868 252.237 374.084 252.707 373.299C255.839 369.536 257.874 373.927 256.935 375.965C256.935 377.847 255.369 380.199 254.586 381.767C254.429 382.237 254.586 382.551 254.899 382.865C258.657 385.687 258.031 390.391 257.405 394.468C257.248 395.409 258.814 395.88 258.971 394.939C259.44 390.078 259.754 385.374 255.995 382.081Z" fill="#2D3C5A"/>
<path d="M266.487 383.335C264.295 383.335 262.886 383.335 262.103 380.513C261.946 379.728 262.103 378.631 262.103 377.69C262.103 375.338 262.259 373.143 262.573 370.791C262.729 369.85 261.163 369.85 261.007 370.791C260.694 374.083 259.597 378.944 260.85 382.237C261.79 384.589 264.295 384.903 266.487 384.903C267.427 384.903 267.427 383.335 266.487 383.335Z" fill="#2D3C5A"/>
<path d="M274.16 386.942C267.27 388.039 270.402 377.063 270.872 373.456C271.028 372.515 269.462 372.045 269.306 372.986C268.68 377.847 265.391 389.921 274.473 388.51C275.569 388.353 275.1 386.785 274.16 386.942Z" fill="#2D3C5A"/>
<path d="M262.885 358.246C268.766 358.246 273.534 353.472 273.534 347.583C273.534 341.694 268.766 336.92 262.885 336.92C257.005 336.92 252.237 341.694 252.237 347.583C252.237 353.472 257.005 358.246 262.885 358.246Z" fill="#2D3C5A"/>
<path d="M318.945 347.426H236.265C235.639 347.426 235.012 346.956 235.012 346.172C235.012 345.388 235.482 344.917 236.265 344.917H318.945C319.571 344.917 320.197 345.388 320.197 346.172C320.197 346.956 319.571 347.426 318.945 347.426Z" fill="#2D3C5A"/>
<path d="M277.761 333.314C277.605 333.314 277.292 333.314 277.135 333.157C276.509 332.843 276.352 332.059 276.822 331.589L285.434 317.476C285.748 316.849 286.531 316.692 287 317.163C287.627 317.476 287.783 318.26 287.314 318.731L278.701 332.843C278.544 333.157 278.231 333.314 277.761 333.314Z" fill="#2D3C5A"/>
<path d="M281.363 340.213C281.05 340.213 280.58 340.057 280.424 339.743C280.11 339.273 280.267 338.489 280.737 338.175L290.915 331.432C291.385 331.119 292.168 331.275 292.481 331.746C292.794 332.216 292.638 333 292.168 333.314L281.99 340.057C281.833 340.057 281.52 340.213 281.363 340.213Z" fill="#2D3C5A"/>
<path d="M130.88 372.986C130.41 373.927 130.097 374.867 129.94 375.808C124.773 377.219 120.388 381.61 119.292 387.255C118.979 388.98 118.979 390.705 119.135 392.273C115.847 394.154 112.872 397.447 111.619 400.27C108.957 405.601 111.306 412.657 115.847 416.421C115.534 419.871 116.317 423.477 118.509 426.143C119.449 427.24 120.388 428.181 121.484 428.809C122.893 431.161 125.242 432.729 128.687 433.356C136.987 434.924 146.225 428.495 151.706 422.85C154.838 419.557 157.343 415.48 158.909 411.246C160.475 410.776 161.728 409.992 162.981 408.737C169.871 403.876 174.725 393.057 166.739 387.882C166.112 386.157 165.016 384.746 163.45 383.962C161.571 382.394 159.849 381.767 158.283 382.08C160.319 381.453 162.041 380.356 163.607 378.787C164.703 375.338 165.486 371.888 165.956 368.282C166.269 365.616 167.678 363.891 169.401 362.95C161.258 355.737 141.528 353.385 130.88 372.986Z" fill="#2D3C5A"/>
<path d="M186.469 516.149C155.307 521.951 98.3086 517.717 98.3086 517.717C98.3086 517.717 98.4651 482.436 107.078 448.88C114.907 418.459 131.036 406.856 147.321 405.915C153.742 405.445 160.162 406.856 166.269 409.208C170.184 410.776 173.315 412.658 175.821 415.01C191.01 428.495 186.625 453.898 181.771 467.226C176.291 482.75 186.469 516.149 186.469 516.149Z" fill="white"/>
<path d="M175.977 415.01C169.244 420.341 158.126 422.85 147.478 405.915C153.898 405.445 160.318 406.856 166.425 409.208C170.184 410.619 173.315 412.658 175.977 415.01Z" fill="white"/>
<path d="M181.615 463.62C181.458 463.62 181.458 463.62 181.302 463.62C180.675 463.463 180.362 462.836 180.519 462.208C180.519 462.051 185.06 444.176 178.953 432.886C178.64 432.258 178.796 431.631 179.423 431.318C180.049 431.004 180.675 431.161 180.989 431.788C187.565 443.862 183.024 462.052 182.711 462.836C182.711 463.306 182.241 463.62 181.615 463.62Z" fill="#2D3C5A"/>
<path d="M128.844 412.344C109.427 424.418 65.2684 474.282 109.114 540.454L139.492 522.735C139.492 522.735 130.41 499.214 130.41 476.478C130.41 458.445 146.069 437.119 146.069 437.119L128.844 412.344Z" fill="white"/>
<path d="M132.759 462.836C137.143 449.193 146.069 436.963 146.069 436.963L128.844 412.344C121.171 417.205 109.583 427.868 101.127 443.235C111.776 449.507 122.267 456.25 132.759 462.836Z" fill="white"/>
<path d="M134.482 459.386C134.325 459.386 134.168 459.386 134.012 459.229C133.386 458.915 133.229 458.288 133.386 457.661L138.24 447.312C138.553 446.684 139.179 446.528 139.806 446.685C140.432 446.998 140.589 447.625 140.432 448.253L135.578 458.602C135.421 459.072 134.951 459.386 134.482 459.386Z" fill="#2D3C5A"/>
<path d="M187.722 516.62C156.56 522.422 98.3086 518.188 98.3086 518.188C98.3086 518.188 99.7179 482.907 108.487 449.35C116.316 418.93 132.445 407.326 148.731 406.385C155.151 405.915 161.571 407.326 167.678 409.678C171.593 411.246 174.725 413.128 177.23 415.48C192.419 428.965 188.035 454.368 183.181 467.696C177.543 483.22 187.722 516.62 187.722 516.62Z" fill="white"/>
<path d="M141.84 520.854C118.822 520.854 98.465 519.442 98.1518 519.442L97.0557 519.286V518.188C97.0557 517.874 98.465 482.279 107.234 449.037C116.786 412.344 137.299 405.758 148.574 405.131C154.837 404.817 161.414 405.915 167.991 408.424C171.749 409.992 175.194 412.03 177.856 414.383C196.334 430.847 186.312 461.738 184.12 467.853C178.639 483.063 188.661 515.836 188.661 516.149L188.974 517.404L187.721 517.717C175.194 520.07 157.969 520.854 141.84 520.854ZM99.5611 517.09C107.704 517.561 157.656 520.54 186.312 515.679C184.433 509.25 176.917 481.495 182.084 467.226C184.12 461.424 193.672 431.631 176.447 416.264C173.941 413.912 170.81 412.03 167.208 410.619C160.944 408.11 154.837 407.013 148.887 407.483C130.409 408.581 116.473 423.477 109.583 449.664C101.91 479.3 99.8743 510.661 99.5611 517.09Z" fill="#2D3C5A"/>
<path d="M177.23 415.323C170.497 420.655 159.379 423.164 148.73 406.229C155.151 405.758 161.571 407.17 167.678 409.522C171.436 411.09 174.568 412.971 177.23 415.323Z" fill="white"/>
<path d="M166.738 420.498C165.955 420.498 165.016 420.498 164.233 420.341C158.282 419.4 152.802 414.853 147.791 407.013L146.695 405.288L148.73 405.131C154.994 404.817 161.571 405.915 168.148 408.424C171.906 409.992 175.351 412.03 178.013 414.383L179.109 415.323L178.013 416.264C175.351 418.303 171.436 420.498 166.738 420.498ZM150.923 407.326C155.151 413.599 159.848 417.048 164.703 417.989C169.087 418.773 172.845 417.048 175.351 415.323C173.002 413.442 170.34 411.874 167.208 410.619C161.727 408.424 156.403 407.326 151.079 407.326C150.923 407.326 150.923 407.326 150.923 407.326Z" fill="#2D3C5A"/>
<path d="M136.987 455.622C128.374 447.469 117.883 441.196 107.861 434.767C91.5753 457.975 80.3009 495.608 110.366 540.925L140.745 523.206C140.745 523.206 131.662 499.685 131.662 476.948C131.662 469.735 134.011 462.208 136.987 455.622Z" fill="white"/>
<path d="M110.053 542.493L109.427 541.552C76.3862 491.688 93.7678 452.8 106.921 434.14L107.548 433.199L112.089 436.179C120.858 441.824 130.097 447.625 137.77 454.838L138.396 455.466L138.083 456.25C134.638 464.09 132.915 470.989 132.915 476.948C132.915 499.214 141.841 522.578 141.998 522.892L142.311 523.833L110.053 542.493ZM108.174 436.335C95.4903 454.838 79.8313 491.845 110.68 539.357L139.336 522.578C137.613 517.874 130.41 496.862 130.41 476.791C130.41 470.676 132.132 463.776 135.577 455.936C128.218 449.193 119.449 443.548 110.836 438.06L108.174 436.335Z" fill="#2D3C5A"/>
<path d="M130.097 412.814C122.424 417.675 110.836 428.338 102.38 443.705C113.029 450.134 123.52 456.877 134.012 463.463C138.396 449.821 147.322 437.59 147.322 437.59" fill="white"/>
<path d="M134.638 465.031L133.385 464.247C130.41 462.365 127.278 460.483 124.303 458.602C116.943 453.898 109.27 449.193 101.754 444.646L100.814 444.019L101.441 443.078C109.897 427.711 121.641 416.891 129.627 411.874C130.253 411.56 130.88 411.717 131.193 412.187C131.506 412.815 131.35 413.442 130.88 413.755C123.207 418.46 112.402 428.652 104.103 443.078C111.306 447.468 118.666 452.016 125.712 456.563C128.374 458.131 130.88 459.856 133.542 461.424C138.083 448.253 146.226 437.119 146.539 436.649C146.852 436.179 147.635 436.022 148.105 436.335C148.575 436.649 148.731 437.433 148.418 437.903C148.261 438.06 139.649 450.134 135.264 463.463L134.638 465.031Z" fill="#2D3C5A"/>
<path d="M167.678 354.953C163.607 351.503 158.44 349.622 153.115 350.406C141.998 351.974 134.481 363.421 136.204 375.808C136.204 375.808 136.204 375.808 136.204 375.965C136.36 377.219 136.673 378.474 137.143 379.728C132.915 383.021 134.011 389.607 137.77 392.743C141.058 395.566 145.443 396.193 149.514 393.527C152.646 394.938 156.091 395.566 159.692 395.409C175.664 394.468 180.675 382.237 176.604 370.006C174.725 364.518 172.219 358.716 167.678 354.953Z" fill="white"/>
<path d="M158.44 396.663C155.464 396.663 152.489 396.036 149.67 394.938C145.443 397.291 140.901 396.82 136.987 393.684C134.638 391.645 133.229 388.509 133.229 385.373C133.229 383.021 134.168 380.983 135.734 379.415C135.421 378.317 135.108 377.219 134.951 376.279V376.122C134.012 369.85 135.421 363.734 138.709 358.56C142.154 353.542 147.008 350.249 152.802 349.308C158.126 348.524 163.607 350.249 168.305 354.169C173.159 358.246 175.821 364.518 177.544 369.693C179.892 376.592 179.423 383.492 175.978 388.509C172.689 393.37 167.052 396.193 159.692 396.663C159.379 396.663 158.909 396.663 158.44 396.663ZM149.514 392.273L150.14 392.586C153.115 393.998 156.561 394.468 159.692 394.311C166.426 393.841 171.437 391.489 174.255 387.098C177.23 382.708 177.7 376.592 175.508 370.32C173.785 365.302 171.437 359.5 167.052 355.894C162.824 352.444 157.97 350.876 153.429 351.503C148.418 352.287 143.877 355.11 140.901 359.657C137.926 364.205 136.674 369.849 137.456 375.651V375.808C137.613 376.906 137.926 378.003 138.239 379.258L138.553 380.042L137.926 380.512C136.047 381.924 135.734 383.805 135.734 385.217C135.734 387.569 136.83 390.077 138.709 391.646C141.841 394.311 145.599 394.625 149.044 392.43L149.514 392.273Z" fill="#2D3C5A"/>
<path d="M162.071 372.68C162.284 371.841 161.778 370.987 160.94 370.773C160.102 370.559 159.25 371.066 159.036 371.905C158.822 372.744 159.328 373.598 160.166 373.812C161.004 374.026 161.857 373.519 162.071 372.68Z" fill="#2D3C5A"/>
<path d="M172.846 377.376C171.906 373.927 170.497 370.79 168.618 367.811C168.148 367.027 166.739 367.811 167.209 368.595C169.088 371.418 170.341 374.554 171.28 377.69C171.593 378.788 173.159 378.317 172.846 377.376Z" fill="#2D3C5A"/>
<path d="M148.418 384.903C145.599 382.551 141.528 382.237 138.553 384.433C137.77 385.06 138.553 386.314 139.336 385.844C141.685 384.119 144.973 384.119 147.322 386.157C148.105 386.628 149.201 385.53 148.418 384.903Z" fill="#2D3C5A"/>
<path d="M145.13 377.376C148.731 379.572 148.105 373.299 153.742 365.459C156.247 362.009 171.28 361.382 172.689 350.562C173.472 339.272 156.091 344.29 153.116 350.562C141.998 352.13 130.723 365.459 137.457 381.14C139.649 379.258 143.407 377.376 145.13 377.376Z" fill="#2D3C5A"/>
<path d="M443.838 80.1651C443.838 91.0968 441.68 101.532 437.53 110.973C433.381 120.579 427.406 129.192 420.103 136.48C419.605 136.977 418.941 137.474 418.443 138.136C404.335 151.055 385.746 158.84 365.165 158.84C361.514 158.84 358.028 158.674 354.543 158.343C354.045 158.343 353.381 158.178 352.883 158.178C343.589 157.184 334.958 155.196 326.991 151.884C326.327 151.552 325.663 151.387 324.999 151.055C312.883 145.59 302.925 136.811 296.12 124.389C289.813 112.96 286.327 98.3846 286.327 80.1651C286.327 36.7697 321.514 1.49019 364.999 1.49019C408.485 1.49019 443.838 29.9788 443.838 80.1651Z" fill="white"/>
<path d="M365 160C361.349 160 357.697 159.834 354.212 159.503H354.046C353.548 159.503 353.05 159.337 352.552 159.337C342.925 158.344 334.129 156.19 326.328 152.878C325.664 152.547 325 152.381 324.336 152.05C311.39 146.087 301.598 136.977 294.959 124.886C288.32 112.795 285 97.7226 285 80C285 35.9421 320.851 0 365 0C387.075 0 407.158 7.45343 421.598 20.8696C436.867 35.2795 445 55.6522 445 79.8344C445 90.7661 442.842 101.366 438.527 111.139C434.378 120.911 428.402 129.524 420.768 136.977C420.27 137.474 419.606 138.137 419.108 138.633C404.336 152.547 385.083 160 365 160ZM365 2.65011C322.344 2.65011 287.49 37.4327 287.49 80.1656C287.49 97.3913 290.809 112.133 297.116 123.727C303.423 135.321 313.05 144.099 325.332 149.731C325.996 150.062 326.66 150.393 327.158 150.559C334.627 153.706 343.257 155.859 352.552 156.853C353.05 156.853 353.548 157.019 354.046 157.019H354.212C357.697 157.35 361.183 157.516 364.668 157.516C384.087 157.516 402.676 150.228 417.116 137.143C417.614 136.646 418.278 136.149 418.776 135.652C426.079 128.53 431.888 120.083 436.037 110.642C440.187 101.035 442.178 90.766 442.178 80.1656C442.51 33.7888 411.307 2.65011 365 2.65011Z" fill="#2D3C5A"/>
<path d="M437.531 110.973C433.381 120.58 427.406 129.193 420.103 136.48C419.605 136.977 418.941 137.474 418.444 138.137C404.336 151.056 385.746 158.841 365.165 158.841C361.514 158.841 358.029 158.675 354.543 158.344C354.045 158.344 353.381 158.178 352.883 158.178C343.589 157.184 334.958 155.197 326.991 151.884C336.618 127.868 349.896 103.354 370.643 92.588C378.278 88.6129 387.074 86.4597 397.033 87.1222C401.514 87.4535 405.663 88.2816 409.481 89.4411C422.427 93.4162 431.39 102.36 437.531 110.973Z" fill="#2D3C5A"/>
<path d="M385.083 94.7407C381.763 94.7407 378.278 94.4095 374.958 93.5813C374.128 93.4157 373.298 93.0844 372.635 92.7531C373.63 92.2562 374.626 91.7594 375.788 91.4281L377.116 90.9312L375.124 87.9498L374.294 88.1155C373.464 88.2811 372.469 88.2811 371.639 88.2811C360.352 88.2811 352.718 78.0119 348.236 69.3991C344.585 62.277 343.423 54.3266 345.415 47.0389C347.24 39.7511 351.722 33.954 358.029 30.6414C361.514 28.8194 365.332 27.8257 369.315 27.8257C379.937 27.8257 390.228 34.4509 395.539 44.72L396.037 45.7138L397.199 45.3825C399.523 44.3888 401.846 43.7262 404.004 43.7262C407.157 43.7262 409.979 45.0513 411.639 47.2045C413.298 49.1921 413.796 51.8422 413.133 54.4923C411.805 59.7925 406.991 65.9209 399.523 66.4178L398.361 66.5834L400.186 88.778L401.182 88.9436C402.842 89.1093 404.502 89.4405 405.996 89.9374C399.855 92.9188 392.552 94.7407 385.083 94.7407Z" fill="white"/>
<path d="M369.647 28.8199C379.771 28.8199 389.564 35.1139 394.875 45.0518V45.2174L396.037 47.3706L398.194 46.3768C400.352 45.383 402.51 44.8861 404.335 44.8861C407.157 44.8861 409.647 45.8799 411.14 47.8675C412.468 49.5238 412.966 51.8427 412.302 53.9959C411.14 58.9648 406.659 64.4307 399.854 65.0932L397.364 65.2588L397.53 67.7433L399.19 87.619L399.356 89.6066L401.348 89.9379C401.68 89.9379 402.012 90.1035 402.51 90.1035C397.198 92.4223 391.389 93.5818 385.248 93.5818C382.261 93.5818 379.273 93.2505 376.286 92.7536H376.452L379.273 91.5942L377.613 89.1098L376.949 87.9503L376.12 86.6253L374.626 86.7909C373.796 86.9565 372.966 86.9565 372.136 86.9565C361.514 86.9565 354.211 77.0186 349.73 68.7371C346.078 61.9462 345.248 54.3271 346.908 47.205C348.734 40.2485 352.883 34.617 359.024 31.6356C362.178 29.6481 365.829 28.8199 369.647 28.8199ZM369.647 26.3354C365.497 26.3354 361.514 27.3292 357.696 29.1512C343.92 36.2733 339.439 54.4928 347.406 69.7309C353.049 80.4969 361.182 89.2754 371.97 89.2754C372.8 89.2754 373.796 89.2754 374.792 89.1098L375.456 90.2692C373.796 90.9317 372.136 91.5942 370.476 92.4224C371.472 93.5818 372.8 94.41 374.792 94.7412C378.277 95.4037 381.597 95.9006 385.082 95.9006C393.713 95.9006 402.178 93.5818 409.315 89.1098C406.825 88.2816 404.335 87.7847 401.514 87.2878L399.854 67.412C407.489 66.7495 412.966 60.6211 414.626 54.4928C416.286 48.0331 411.638 42.236 404.335 42.236C402.178 42.236 399.688 42.7329 397.032 43.8923V43.7267C391.223 32.795 380.435 26.3354 369.647 26.3354Z" fill="#2D3C5A"/>
<path d="M391.224 48.8613C393.216 47.5362 396.204 46.2112 398.195 44.8861C398.195 44.5549 397.033 44.2236 397.033 43.8923C397.033 24.0166 373.465 11.9255 362.843 26.3354C360.353 27.6605 348.569 26.3354 347.739 33.9545C341.1 31.1387 331.805 36.7702 337.448 44.7205C338.444 46.0456 341.764 48.1988 343.755 49.6894C349.399 49.5238 355.042 48.6957 360.685 47.205C365.996 45.8799 370.311 42.7329 375.457 41.5735C382.262 39.9172 384.253 45.0518 389.233 47.8675C390.062 48.1987 390.56 48.53 391.224 48.8613Z" fill="#2D3C5A"/>
<path d="M368.87 60.9652C369.631 60.0503 369.505 58.693 368.588 57.9336C367.671 57.1741 366.311 57.3002 365.55 58.2151C364.789 59.13 364.916 60.4872 365.832 61.2467C366.749 62.0061 368.109 61.8801 368.87 60.9652Z" fill="#2D3C5A"/>
<path d="M405.166 50.6833C400.187 49.3582 395.54 52.8365 395.374 57.9711C395.374 58.9648 397.033 58.9648 397.033 57.9711C397.199 53.9959 400.851 51.1802 404.834 52.3396C405.83 52.6709 406.162 51.0145 405.166 50.6833Z" fill="#2D3C5A"/>
<path d="M362.842 77.1842C359.689 72.3809 357.697 67.0807 356.867 61.2836C356.701 60.2898 355.041 60.2898 355.207 61.2836C356.037 67.412 358.029 72.8778 361.349 78.0124C362.012 79.0062 363.34 78.178 362.842 77.1842Z" fill="#2D3C5A"/>
<path d="M339.44 103.519C336.12 108.985 329.315 134.161 325 150.89C312.884 145.424 302.925 136.646 296.12 124.223C299.44 113.457 302.593 106.335 301.929 98.8816C300.767 87.2874 303.423 73.3744 306.245 63.1052C306.245 63.1052 309.73 57.9706 314.377 61.9458C314.377 61.9458 319.523 56.8112 322.51 62.4427C322.51 62.4427 328.153 57.4737 329.813 64.099C330.975 68.4054 333.464 75.5276 333.796 86.9561C334.46 86.7905 334.958 86.6249 334.958 86.6249C334.958 86.6249 337.116 70.7243 341.929 73.2087C346.742 76.0245 343.423 97.0596 339.44 103.519Z" fill="white"/>
<path d="M325.83 152.712L324.502 152.05C311.556 146.087 301.763 136.977 295.124 124.886L294.792 124.389L294.958 123.892C295.622 121.739 296.286 119.752 296.95 117.93C299.44 110.311 301.266 104.845 300.768 99.0477C299.606 86.1284 302.925 70.7247 305.249 62.7743L305.415 62.4431C305.415 62.2775 307.241 59.6274 310.228 59.2961C311.722 59.1305 313.216 59.4617 314.544 60.4555C315.705 59.6274 317.531 58.4679 319.689 58.7992C321.017 58.9648 322.012 59.6274 323.008 60.9524C324.17 60.1243 326.162 59.2961 327.988 59.9586C329.647 60.4555 330.643 61.7806 331.307 64.0994C331.473 64.9276 331.805 65.7557 331.971 66.5839C332.967 70.0622 334.295 75.0311 334.958 81.6564C335.788 78.0125 337.282 73.8717 339.606 72.5466C340.602 72.0497 341.597 72.0497 342.759 72.5466C343.921 73.0435 344.751 74.3685 345.249 76.0249C347.241 82.8157 344.253 98.5507 340.768 104.348C338.444 108.323 333.299 125.052 326.494 151.387L325.83 152.712ZM297.448 124.224C303.589 135.155 312.552 143.603 324.17 149.234C328.983 130.683 335.29 108.157 338.444 103.023C341.597 97.7226 344.419 82.8158 342.593 76.6874C342.261 75.6936 341.929 74.8655 341.431 74.6998C341.1 74.5342 340.934 74.5342 340.602 74.6998C338.61 75.6936 336.95 82.6501 336.286 87.1222L336.12 87.9503L335.29 88.116C335.29 88.116 334.793 88.116 334.295 88.4472L332.801 88.9441V87.2878C332.469 78.0125 330.643 71.5528 329.481 67.2464C329.149 66.2526 328.983 65.4245 328.817 64.5963C328.651 63.6025 328.153 62.4431 327.324 62.2775C326.162 61.9462 324.17 63.1056 323.672 63.6025L322.51 64.5963L321.846 63.2713C321.183 62.1119 320.519 61.4493 319.689 61.2837C318.195 61.118 316.369 62.4431 315.871 63.1056L315.041 63.9338L314.212 63.2713C313.05 62.2775 312.054 61.9462 310.892 62.1118C309.398 62.2775 308.236 63.6025 307.905 64.0994C305.747 71.8841 302.427 86.7909 303.589 99.2133C304.253 105.507 302.261 111.47 299.772 119.089C298.776 120.414 298.112 122.236 297.448 124.224Z" fill="#2D3C5A"/>
<path d="M330.643 88.7784C324.17 90.4348 320.684 96.5631 321.846 103.023C322.012 104.017 323.672 103.52 323.506 102.526C322.344 96.8944 325.664 91.9254 331.141 90.4348C332.303 90.1035 331.805 88.4472 330.643 88.7784Z" fill="#2D3C5A"/>
<path d="M325 84.8034C321.681 77.35 321.183 69.3997 323.506 61.615C323.838 60.6212 322.179 60.2899 321.847 61.2837C319.357 69.3996 320.021 77.6812 323.34 85.3003C323.838 86.294 325.498 85.7972 325 84.8034Z" fill="#2D3C5A"/>
<path d="M315.871 85.4659C313.547 77.6812 313.215 69.8965 315.207 62.1119C315.373 61.1181 313.879 60.7868 313.547 61.7806C311.555 69.8966 311.887 78.0125 314.377 85.9628C314.543 86.9566 316.203 86.4597 315.871 85.4659Z" fill="#2D3C5A"/>
<path d="M352.718 156.687C352.054 156.687 351.39 156.19 351.39 155.528C351.722 147.412 352.054 138.965 352.22 130.518C352.22 129.855 352.718 129.358 353.548 129.358C354.212 129.358 354.71 129.855 354.71 130.518C354.544 138.965 354.378 147.412 353.88 155.694C354.046 156.19 353.382 156.687 352.718 156.687Z" fill="white"/>
<path d="M419.938 135.155C419.274 135.155 418.61 134.658 418.61 134.162C418.61 131.346 418.61 128.861 418.61 126.211C418.61 125.714 419.108 125.217 419.772 125.217C420.436 125.217 421.099 125.714 421.099 126.211C421.099 128.696 421.099 131.346 421.099 134.162C421.265 134.658 420.602 135.155 419.938 135.155Z" fill="white"/>
</svg>
