<svg width="570" height="360" viewBox="0 0 570 360" fill="none" xmlns="http://www.w3.org/2000/svg">
<path d="M207.838 290.281C200.29 287.255 193.555 286.789 193.555 254.781C180.55 257.691 167.544 260.019 154.306 261.765C155.002 281.551 155.467 300.989 155.467 300.989L214.225 301.105C214.225 300.989 215.503 293.307 207.838 290.281Z" fill="white"/>
<path d="M215.038 301.92L154.654 301.804V300.989C154.654 300.756 154.19 281.435 153.493 261.765V260.95L154.306 260.834C167.776 258.971 180.898 256.644 193.439 253.85L194.484 253.617V254.665C194.484 284.112 200.174 286.324 206.91 288.884C207.374 289.001 207.839 289.233 208.187 289.35C216.432 292.609 215.154 300.989 215.154 301.105L215.038 301.92ZM156.28 300.058L213.412 300.174C213.529 298.312 213.064 293.307 207.374 291.096C206.91 290.863 206.445 290.746 206.097 290.63C198.897 287.953 192.742 285.509 192.626 255.945C180.55 258.622 168.008 260.834 155.119 262.58C155.815 279.573 156.28 296.217 156.28 300.058Z" fill="#2D3C5A"/>
<path d="M193.671 261.881C193.555 259.203 193.555 256.294 193.555 253.151C193.788 218.466 204.703 198.098 171.724 184.014C162.202 179.941 150.59 173.423 133.52 168.418C115.288 163.064 120.049 164.926 120.049 164.926L94.5022 183.432C148.151 220.096 144.203 217.302 152.796 223.122C151.403 231.735 154.073 248.612 154.654 265.489C167.544 264.558 180.666 263.51 193.671 261.881Z" fill="white"/>
<path d="M153.609 266.304V265.373C153.377 258.855 152.912 252.57 152.448 246.401C151.635 236.974 151.054 228.826 151.751 223.356C146.293 219.631 145.945 219.398 129.804 208.458L92.8765 183.2L118.54 164.694C118.54 164.578 118.54 164.345 118.54 164.229C118.888 163.181 118.888 163.065 133.636 167.488C146.293 171.212 156.047 175.751 163.944 179.476C166.847 180.873 169.518 182.037 172.072 183.2C198.549 194.491 197.387 209.738 195.529 232.783C195.065 238.836 194.484 245.703 194.484 253.152C194.484 256.295 194.484 259.204 194.6 261.881V262.696L193.787 262.813C181.246 264.326 168.356 265.49 154.538 266.304H153.609ZM95.7795 183.317L130.616 207.061C147.106 218.351 147.106 218.351 153.028 222.308L153.493 222.657L153.377 223.239C152.564 228.477 153.26 236.741 153.957 246.401C154.422 252.337 154.886 258.39 155.118 264.558C168.356 263.744 180.549 262.58 192.626 261.183C192.51 258.739 192.51 256.062 192.51 253.152C192.51 245.703 193.091 238.719 193.555 232.667C195.297 210.32 196.574 195.654 171.143 184.83C168.589 183.782 165.918 182.502 163.015 181.105C155.235 177.497 145.48 172.958 132.939 169.233C124.926 166.906 121.559 165.975 120.165 165.625L95.7795 183.317Z" fill="#2D3C5A"/>
<path d="M143.971 231.619C145.248 229.291 165.802 194.024 171.608 183.898C162.783 178.311 150.473 173.306 133.403 168.302C115.172 162.948 119.933 164.81 119.933 164.81L94.386 183.316C123.765 216.371 138.629 228.011 143.971 231.619Z" fill="#2D3C5A"/>
<path d="M144.319 232.9L143.506 232.318C137.119 228.011 122.256 216.023 93.6895 183.782L92.9927 183.084L118.54 164.694C118.54 164.578 118.54 164.345 118.54 164.229C118.888 163.181 118.888 163.065 133.636 167.488C150.938 172.609 163.131 177.614 172.073 183.2L172.769 183.666L172.305 184.364C170.331 187.856 166.615 194.141 162.55 201.125C154.886 214.161 145.48 230.456 144.667 231.969L144.319 232.9ZM95.5474 183.433C123.185 214.51 137.932 226.382 143.622 230.339C145.713 226.615 153.841 212.648 161.041 200.31C164.873 193.792 168.357 187.856 170.447 184.248C161.738 178.894 149.777 174.122 133.171 169.117C125.159 166.789 121.791 165.858 120.398 165.509L95.5474 183.433Z" fill="#2D3C5A"/>
<path d="M194.717 273.404C181.479 275.033 168.124 276.197 154.77 277.012C155.235 290.397 155.467 300.872 155.467 300.872L214.225 300.989C214.225 300.989 215.503 293.307 207.722 290.164C202.148 287.953 196.923 287.138 194.717 273.404Z" fill="#2D3C5A"/>
<path d="M200.755 279.224L190.884 286.789C190.304 287.255 190.884 288.186 191.465 287.837L201.335 280.271C201.916 279.806 201.335 278.758 200.755 279.224Z" fill="white"/>
<path d="M203.658 282.948C201.336 284.927 199.362 287.371 197.968 290.165C197.62 290.863 198.665 291.445 199.013 290.747C200.407 288.07 202.265 285.742 204.587 283.763C205.052 283.297 204.239 282.483 203.658 282.948Z" fill="white"/>
<path d="M76.1548 169.699C71.5098 187.39 76.9676 235.227 64.8908 259.553C57.9234 273.52 27.3831 327.875 27.3831 327.875L77.6644 358.253C77.6644 358.253 82.6576 352.317 77.6644 345.683C72.6711 339.049 67.0972 335.208 84.5156 306.459C109.018 266.071 118.191 245.237 118.191 202.521C118.191 183.549 116.566 166.439 116.566 166.439L76.1548 169.699Z" fill="white"/>
<path d="M77.8967 359.301L26.2219 328.108L26.6864 327.41C27.0348 326.828 57.3429 273.055 64.1942 259.204C71.6261 244.306 72.3228 219.515 72.9034 199.728C73.2518 187.158 73.6001 176.333 75.342 169.583L75.4582 169.001H76.0388L117.262 165.625L117.379 166.44C117.379 166.556 119.004 183.782 119.004 202.638C119.004 244.423 110.527 265.373 85.2125 307.041C69.0713 333.579 73.0196 338.467 77.4323 344.054C77.7806 344.403 78.0129 344.752 78.3612 345.218C83.7029 352.318 78.3612 358.836 78.3612 358.836L77.8967 359.301ZM28.5444 327.41L77.4323 356.974C78.4774 355.344 80.6837 350.921 76.9677 346.149C76.6194 345.8 76.3871 345.451 76.0388 344.985C71.1616 338.816 66.9811 333.462 83.7029 305.994C108.902 264.558 117.262 243.841 117.262 202.521C117.262 186.11 115.985 170.979 115.637 167.371L76.7355 170.63C75.1098 177.264 74.8776 187.74 74.5292 199.844C73.9486 220.911 73.2518 244.772 65.7038 260.019C59.317 272.822 32.2603 320.892 28.5444 327.41Z" fill="#2D3C5A"/>
<path d="M80.1028 314.024C81.3802 311.696 82.7737 309.135 84.5155 306.458C109.017 266.071 118.191 245.236 118.191 202.52C118.191 183.549 116.565 166.439 116.565 166.439L76.1546 169.814C71.5097 187.506 76.9675 235.343 64.8907 259.669C61.5231 266.303 52.93 282.249 44.6853 296.914C56.2976 302.85 68.1422 308.67 80.1028 314.024Z" fill="white"/>
<path d="M80.4513 315.189L79.7546 314.84C68.2584 309.602 56.6461 304.015 44.337 297.614L43.5242 297.148L43.9886 296.333C54.6719 277.245 61.4071 264.675 64.1941 259.088C71.6259 244.19 72.3227 219.398 72.9033 199.612C73.2517 187.041 73.6 176.217 75.3419 169.466L75.458 168.884H76.0386L117.262 165.509L117.378 166.324C117.378 166.44 119.004 183.666 119.004 202.522C119.004 244.306 110.527 265.257 85.2123 306.925C83.5866 309.602 82.077 312.163 80.7997 314.491L80.4513 315.189ZM45.8466 296.45C57.5751 302.502 68.7229 307.973 79.7546 312.861C80.9158 310.65 82.3093 308.322 83.8189 305.994C109.018 264.558 117.378 243.841 117.378 202.522C117.378 186.11 116.101 170.979 115.753 167.371L76.8515 170.63C75.2258 177.265 74.9935 187.74 74.6452 199.845C74.0645 220.912 73.3678 244.772 65.8198 260.019C62.9167 265.373 56.2977 277.711 45.8466 296.45Z" fill="#2D3C5A"/>
<path d="M121.21 247.681C128.526 220.678 116.566 166.323 116.566 166.323L76.1547 169.698C72.671 183.2 74.8774 214.16 70.9292 238.951C71.6259 239.068 115.288 247.215 121.21 247.681Z" fill="#2D3C5A"/>
<path d="M121.907 248.613H121.211C116.45 248.264 88.2317 243.142 71.7422 240L69.8843 239.651L70.0004 238.836C71.9745 226.382 72.439 212.182 72.7874 199.612C73.1357 187.041 73.4841 176.217 75.2259 169.466L75.342 168.884H75.9226L117.03 165.509L117.146 166.207C117.611 168.419 129.107 221.144 121.791 247.914L121.907 248.613ZM71.8583 238.254H71.9745C98.3344 243.142 115.753 246.169 120.514 246.75C126.785 221.843 117.146 173.889 115.753 167.255L76.7355 170.514C75.1098 177.148 74.8776 187.623 74.5292 199.728C74.1808 211.949 73.8324 225.8 71.8583 238.254Z" fill="#2D3C5A"/>
<path d="M75.1096 324.5C62.9167 319.03 50.9559 313.21 38.9953 307.041C32.4924 318.797 27.2668 327.876 27.2668 327.876L77.5481 358.254C77.5481 358.254 82.5414 352.318 77.5481 345.683C73.9483 340.795 70.0002 337.303 75.1096 324.5Z" fill="#2D3C5A"/>
<path d="M77.316 332.531L65.0069 333.928C64.3102 334.045 64.3102 335.209 65.0069 335.092L77.316 333.695C78.0127 333.579 78.0127 332.415 77.316 332.531Z" fill="white"/>
<path d="M77.8966 337.303C74.8774 337.769 71.9744 338.933 69.3036 340.562C68.6068 340.912 69.3036 341.959 69.8842 341.61C72.4389 339.98 75.2258 339.049 78.245 338.467C78.9417 338.235 78.5934 337.187 77.8966 337.303Z" fill="white"/>
<path d="M121.907 212.648C121.443 212.648 120.979 212.299 120.979 211.717C120.979 205.082 121.559 200.194 121.559 200.194L121.675 199.612L122.256 199.496C122.256 199.496 126.669 198.564 131.197 195.189C131.546 194.956 132.126 194.956 132.475 195.306C132.707 195.655 132.707 196.237 132.359 196.586C128.41 199.496 124.811 200.776 123.301 201.125C123.185 202.638 122.836 206.712 122.836 211.833C122.72 212.299 122.372 212.648 121.907 212.648Z" fill="white"/>
<path d="M191.233 214.161C189.027 213.695 187.285 211.949 186.936 209.738C186.82 209.04 185.659 209.272 185.775 210.087C186.24 212.648 188.214 214.859 190.885 215.325C191.697 215.325 192.046 214.277 191.233 214.161Z" fill="#2D3C5A"/>
<path d="M102.282 256.411C102.631 255.713 101.702 255.131 101.237 255.829C99.8438 258.273 99.8438 261.067 101.237 263.511C101.586 264.209 102.631 263.627 102.282 262.929C101.121 260.834 101.121 258.39 102.282 256.411Z" fill="#2D3C5A"/>
<path d="M159.996 360C159.531 360 159.067 359.651 159.067 359.069V301.688H216.316C216.78 301.688 217.245 302.037 217.245 302.619C217.245 303.201 216.896 303.55 216.316 303.55H160.809V359.185C160.925 359.535 160.46 360 159.996 360Z" fill="#2D3C5A"/>
<path d="M216.316 303.55C215.851 303.55 215.387 303.201 215.387 302.619V245.238H254.752C255.217 245.238 255.681 245.587 255.681 246.169C255.681 246.751 255.333 247.1 254.752 247.1H217.129V302.736C217.245 303.085 216.896 303.55 216.316 303.55Z" fill="#2D3C5A"/>
<path d="M272.752 246.983H262.184C261.72 246.983 261.255 246.634 261.255 246.052C261.255 245.47 261.604 245.121 262.184 245.121H272.752C273.216 245.121 273.681 245.47 273.681 246.052C273.681 246.634 273.216 246.983 272.752 246.983Z" fill="#2D3C5A"/>
<path d="M272.752 246.984C272.287 246.984 271.823 246.634 271.823 246.052V212.532C271.823 212.066 272.171 211.6 272.752 211.6C273.332 211.6 273.681 211.95 273.681 212.532V246.052C273.565 246.634 273.216 246.984 272.752 246.984Z" fill="#2D3C5A"/>
<path d="M272.751 205.781C272.287 205.781 271.823 205.432 271.823 204.85V188.788H293.538C294.002 188.788 294.467 189.137 294.467 189.719C294.467 190.301 294.118 190.65 293.538 190.65H273.564V204.966C273.564 205.432 273.216 205.781 272.751 205.781Z" fill="#2D3C5A"/>
<path d="M329.071 190.534H319.085C318.62 190.534 318.156 190.184 318.156 189.602C318.156 189.02 318.504 188.671 319.085 188.671H329.071C329.536 188.671 330 189.02 330 189.602C330 190.184 329.536 190.534 329.071 190.534Z" fill="#2D3C5A"/>
<path d="M247.901 143.977L265.319 171.096C265.319 171.096 276.932 159.224 268.803 148.167C260.674 136.993 247.901 143.977 247.901 143.977Z" fill="white"/>
<path d="M265.203 172.493L246.74 143.627L247.553 143.162C247.669 143.045 261.139 135.946 269.616 147.585C278.093 159.224 266.132 171.561 266.016 171.678L265.203 172.493ZM249.178 144.326L265.436 169.699C267.758 166.906 274.609 157.594 268.106 148.632C261.603 139.67 252.081 143.045 249.178 144.326Z" fill="#2D3C5A"/>
<path d="M251.385 169.35C254.078 169.35 256.262 167.161 256.262 164.461C256.262 161.761 254.078 159.573 251.385 159.573C248.691 159.573 246.507 161.761 246.507 164.461C246.507 167.161 248.691 169.35 251.385 169.35Z" fill="#2D3C5A"/>
<path d="M251.385 170.282C248.249 170.282 245.695 167.721 245.695 164.578C245.695 161.436 248.249 158.875 251.385 158.875C254.52 158.875 257.075 161.436 257.075 164.578C257.075 167.721 254.52 170.282 251.385 170.282ZM251.385 160.505C249.178 160.505 247.436 162.25 247.436 164.462C247.436 166.673 249.178 168.419 251.385 168.419C253.591 168.419 255.333 166.673 255.333 164.462C255.333 162.25 253.591 160.505 251.385 160.505Z" fill="#2D3C5A"/>
<path d="M208.651 238.37C208.303 238.37 207.955 238.138 207.839 237.905L200.639 222.076C200.407 221.61 200.639 221.144 201.103 220.912C201.568 220.679 202.032 220.912 202.265 221.377L209.464 237.206C209.697 237.672 209.464 238.138 209 238.37C208.884 238.254 208.768 238.37 208.651 238.37Z" fill="#2D3C5A"/>
<path d="M197.155 233.947C196.807 233.947 196.458 233.715 196.342 233.482C196.11 233.016 196.342 232.551 196.807 232.318L212.6 225.102C213.064 224.869 213.529 225.102 213.761 225.567C213.993 226.033 213.761 226.498 213.296 226.731L197.504 233.947C197.387 233.947 197.271 233.947 197.155 233.947Z" fill="#2D3C5A"/>
<path d="M134.565 299.593L129.571 319.845L148.151 312.978L134.565 299.593Z" fill="#2D3C5A"/>
<path d="M128.294 321.242L134.1 297.963L149.777 313.444L128.294 321.242ZM135.029 301.339L130.733 318.448L146.526 312.629L135.029 301.339Z" fill="#2D3C5A"/>
<path d="M33.7701 207.643C33.5378 207.643 33.3056 207.527 33.1894 207.41L26.2221 201.242C25.8737 200.893 25.8737 200.427 26.106 199.961C26.4543 199.612 26.9188 199.612 27.3833 199.845L34.3507 206.014C34.699 206.363 34.6991 206.829 34.4668 207.294C34.3507 207.527 34.0023 207.643 33.7701 207.643Z" fill="#2D3C5A"/>
<path d="M0.907065 252.686C0.674819 252.686 0.442601 252.57 0.210355 252.337C-0.138015 251.988 -0.0219198 251.406 0.32645 251.057L11.1259 242.095C11.4743 241.746 12.0549 241.862 12.4033 242.211C12.7517 242.56 12.6355 243.142 12.2871 243.492L1.48768 252.454C1.25543 252.57 1.13931 252.686 0.907065 252.686Z" fill="#2D3C5A"/>
<path d="M132.939 291.096C132.823 291.096 132.707 291.096 132.591 291.096L122.952 287.604C122.488 287.488 122.256 286.906 122.372 286.44C122.488 285.974 123.068 285.742 123.533 285.858L133.171 289.35C133.636 289.466 133.868 290.048 133.752 290.514C133.636 290.863 133.287 291.096 132.939 291.096Z" fill="#2D3C5A"/>
<path d="M131.081 296.101C130.965 296.101 130.965 296.101 130.849 296.101L121.907 293.773C121.443 293.657 121.21 293.191 121.326 292.726C121.443 292.26 121.907 292.027 122.372 292.144L131.313 294.472C131.778 294.588 132.01 295.054 131.894 295.519C131.778 295.868 131.429 296.101 131.081 296.101Z" fill="#2D3C5A"/>
<path d="M173.118 329.739L209.232 309.719V354.763L173.118 329.739Z" fill="#2D3C5A"/>
<path d="M210.161 356.392L171.492 329.622L210.161 308.322V356.392ZM174.744 329.738L208.303 353.017V311.116L174.744 329.738Z" fill="#2D3C5A"/>
<path d="M17.728 344.306L10.0852 348.729L14.4979 356.39L22.1407 351.967L17.728 344.306Z" fill="white"/>
<path d="M14.2611 357.556L8.91943 348.361L18.0931 343.007L23.4348 352.202L14.2611 357.556ZM11.358 349.059L14.9578 355.228L21.1124 351.62L17.5125 345.451L11.358 349.059Z" fill="#2D3C5A"/>
<path d="M241.746 68.6705H169.053C156.976 68.6705 147.106 58.8937 147.106 46.6725V35.6153C147.106 23.5105 156.86 13.6172 169.053 13.6172H241.746C253.823 13.6172 263.694 23.3941 263.694 35.6153V46.6725C263.694 58.7773 253.823 68.6705 241.746 68.6705Z" fill="white"/>
<path d="M241.746 69.4859H169.053C156.512 69.4859 146.293 59.2434 146.293 46.6731V35.6159C146.293 23.0455 156.512 12.803 169.053 12.803H241.746C254.288 12.803 264.507 23.0455 264.507 35.6159V46.6731C264.507 59.2434 254.288 69.4859 241.746 69.4859ZM169.169 14.5489C157.557 14.5489 148.151 23.9767 148.151 35.6159V46.6731C148.151 58.3123 157.557 67.74 169.169 67.74H241.863C253.475 67.74 262.881 58.3123 262.881 46.6731V35.6159C262.881 23.9767 253.475 14.5489 241.863 14.5489H169.169Z" fill="#2D3C5A"/>
<path d="M194.949 33.2882H175.324C174.859 33.2882 174.395 32.9391 174.395 32.3571C174.395 31.7752 174.743 31.4259 175.324 31.4259H194.949C195.413 31.4259 195.878 31.7752 195.878 32.3571C195.878 32.9391 195.413 33.2882 194.949 33.2882Z" fill="#2D3C5A"/>
<path d="M197.155 27.8177H175.324C174.859 27.8177 174.395 27.4686 174.395 26.8866C174.395 26.3046 174.743 25.9555 175.324 25.9555H197.155C197.62 25.9555 198.084 26.3046 198.084 26.8866C198.084 27.4686 197.62 27.8177 197.155 27.8177Z" fill="#2D3C5A"/>
<path d="M158.603 7.21554C160.334 7.21554 161.738 5.80858 161.738 4.07298C161.738 2.33738 160.334 0.930389 158.603 0.930389C156.871 0.930389 155.467 2.33738 155.467 4.07298C155.467 5.80858 156.871 7.21554 158.603 7.21554Z" fill="#2D3C5A"/>
<path d="M158.602 8.1474C156.396 8.1474 154.538 6.28516 154.538 4.07372C154.538 1.86227 156.396 0 158.602 0C160.809 0 162.667 1.86227 162.667 4.07372C162.667 6.28516 160.809 8.1474 158.602 8.1474ZM158.602 1.74588C157.325 1.74588 156.28 2.79341 156.28 4.07372C156.28 5.35403 157.325 6.40155 158.602 6.40155C159.88 6.40155 160.925 5.35403 160.925 4.07372C160.925 2.79341 159.88 1.74588 158.602 1.74588Z" fill="#2D3C5A"/>
<path d="M172.073 7.21554C173.804 7.21554 175.208 5.80858 175.208 4.07298C175.208 2.33738 173.804 0.930389 172.073 0.930389C170.341 0.930389 168.937 2.33738 168.937 4.07298C168.937 5.80858 170.341 7.21554 172.073 7.21554Z" fill="#2D3C5A"/>
<path d="M172.072 8.1474C169.866 8.1474 168.008 6.28516 168.008 4.07372C168.008 1.86227 169.866 0 172.072 0C174.279 0 176.137 1.86227 176.137 4.07372C176.137 6.28516 174.279 8.1474 172.072 8.1474ZM172.072 1.74588C170.795 1.74588 169.75 2.79341 169.75 4.07372C169.75 5.35403 170.795 6.40155 172.072 6.40155C173.35 6.40155 174.395 5.35403 174.395 4.07372C174.395 2.79341 173.35 1.74588 172.072 1.74588Z" fill="#2D3C5A"/>
<path d="M185.543 7.21554C187.274 7.21554 188.678 5.80858 188.678 4.07298C188.678 2.33738 187.274 0.930389 185.543 0.930389C183.811 0.930389 182.407 2.33738 182.407 4.07298C182.407 5.80858 183.811 7.21554 185.543 7.21554Z" fill="#2D3C5A"/>
<path d="M185.543 8.1474C183.336 8.1474 181.479 6.28516 181.479 4.07372C181.479 1.86227 183.336 0 185.543 0C187.749 0 189.607 1.86227 189.607 4.07372C189.607 6.28516 187.749 8.1474 185.543 8.1474ZM185.543 1.74588C184.265 1.74588 183.22 2.79341 183.22 4.07372C183.22 5.35403 184.265 6.40155 185.543 6.40155C186.82 6.40155 187.865 5.35403 187.865 4.07372C187.865 2.79341 186.82 1.74588 185.543 1.74588Z" fill="#2D3C5A"/>
<path d="M130.501 100.212C152.216 111.968 160.461 120.581 168.589 113.132C184.266 98.8157 176.486 76.4685 186.937 58.8934C192.046 50.2804 194.949 47.3706 196.459 50.3968C197.968 53.423 192.859 63.7818 192.859 63.7818C192.859 63.7818 206.794 62.9671 205.981 74.6063C205.632 79.1455 204.007 82.5209 204.007 82.5209C204.007 82.5209 202.381 138.622 174.395 145.605C146.41 152.589 126.32 128.496 126.32 128.496L130.501 100.212Z" fill="white"/>
<path d="M164.293 147.701C141.532 147.701 125.74 129.195 125.624 128.962L125.391 128.613L129.804 98.8168L130.849 99.3987C135.959 102.192 140.255 104.636 143.971 106.964C156.396 114.413 162.086 117.789 167.892 112.435C176.602 104.52 177.879 94.2775 179.272 83.3367C180.318 74.9564 181.479 66.227 186.124 58.4288C190.536 50.9797 192.859 48.3027 194.949 48.4191C195.878 48.4191 196.575 49.001 197.155 50.0485C198.549 52.8419 195.646 59.8255 194.136 62.9681C196.459 63.0845 201.104 63.6664 204.123 66.6926C206.097 68.6713 207.026 71.4647 206.794 74.8401C206.561 79.0302 205.168 82.1727 204.82 82.9875C204.703 87.1776 202.381 139.787 174.628 146.654C171.028 147.352 167.544 147.701 164.293 147.701ZM127.249 128.148C129.688 130.825 148.732 151.077 174.279 144.792C201.336 138.041 203.194 83.1039 203.194 82.5219V82.2891L203.31 82.1727C203.31 82.1727 204.936 78.9138 205.168 74.6073C205.4 71.6975 204.587 69.486 202.962 67.8565C199.478 64.3648 192.975 64.7139 192.975 64.7139L191.465 64.8303L192.162 63.4336C194.02 59.5927 196.691 52.7256 195.762 50.7469C195.646 50.3977 195.414 50.0485 195.065 50.0485C194.252 50.0485 192.278 51.678 187.749 59.2435C183.337 66.809 182.176 75.3056 181.13 83.5694C179.737 94.2775 178.344 105.451 169.17 113.715C162.435 119.884 155.583 115.81 143.158 108.477C139.674 106.382 135.726 104.054 131.198 101.61L127.249 128.148Z" fill="#2D3C5A"/>
<path d="M155.932 114.413C150.009 111.969 142.229 106.498 130.501 100.213L126.32 128.496C126.32 128.496 133.752 137.342 145.713 142.813C148.964 133.268 152.564 123.841 155.932 114.413Z" fill="white"/>
<path d="M146.293 143.977L145.364 143.627C133.287 138.157 125.856 129.428 125.623 129.079L125.391 128.729L129.804 98.8166L130.849 99.3986C135.958 102.192 140.139 104.636 143.971 106.964C148.964 109.874 152.912 112.202 156.164 113.598L156.977 113.948L156.744 114.762C155.583 118.021 154.306 121.397 153.144 124.656C150.938 130.708 148.616 136.993 146.526 143.162L146.293 143.977ZM127.249 128.147C128.643 129.66 135.262 136.76 145.248 141.532C147.222 135.596 149.429 129.66 151.519 123.957C152.68 120.931 153.725 117.905 154.886 114.879C151.635 113.482 147.919 111.154 143.158 108.477C139.674 106.382 135.726 104.054 131.197 101.61L127.249 128.147Z" fill="#2D3C5A"/>
<path d="M189.84 75.7712C191.001 73.4433 193.207 69.2532 190.885 67.1581C188.446 65.0631 186.356 68.5549 185.311 70.3007C184.846 70.8827 185.891 71.4646 186.356 70.8827C186.704 70.4171 187.053 69.8351 187.401 69.2532C189.723 66.4598 191.233 69.7188 190.536 71.2319C190.536 72.6286 189.375 74.3744 188.794 75.5384C188.678 75.8875 188.794 76.1203 189.027 76.3531C191.814 78.4482 191.349 81.9399 190.885 84.9661C190.768 85.6644 191.93 86.0137 192.046 85.3153C192.394 81.7072 192.626 78.2154 189.84 75.7712Z" fill="#2D3C5A"/>
<path d="M197.62 76.7019C195.994 76.7019 194.949 76.7019 194.368 74.6068C194.252 74.0249 194.368 73.2101 194.368 72.5118C194.368 70.7659 194.484 69.1364 194.717 67.3905C194.833 66.6922 193.672 66.6922 193.555 67.3905C193.323 69.8348 192.51 73.4429 193.439 75.8871C194.136 77.633 195.994 77.8658 197.62 77.8658C198.317 77.8658 198.317 76.7019 197.62 76.7019Z" fill="#2D3C5A"/>
<path d="M203.31 79.3789C198.2 80.1937 200.523 72.0463 200.871 69.3693C200.987 68.6709 199.826 68.3217 199.71 69.0201C199.245 72.6282 196.807 81.5904 203.542 80.5429C204.355 80.4265 204.006 79.2625 203.31 79.3789Z" fill="#2D3C5A"/>
<path d="M194.949 58.0791C199.31 58.0791 202.845 54.5356 202.845 50.1644C202.845 45.7933 199.31 42.2498 194.949 42.2498C190.588 42.2498 187.052 45.7933 187.052 50.1644C187.052 54.5356 190.588 58.0791 194.949 58.0791Z" fill="#2D3C5A"/>
<path d="M236.521 50.0482H175.208C174.744 50.0482 174.279 49.6991 174.279 49.1171C174.279 48.5352 174.627 48.186 175.208 48.186H236.521C236.986 48.186 237.45 48.5352 237.45 49.1171C237.45 49.6991 236.986 50.0482 236.521 50.0482Z" fill="#2D3C5A"/>
<path d="M205.981 39.573C205.865 39.573 205.632 39.573 205.516 39.4566C205.052 39.2238 204.936 38.6419 205.284 38.2927L211.671 27.8174C211.903 27.3518 212.484 27.2354 212.832 27.5846C213.297 27.8174 213.413 28.3994 213.064 28.7485L206.678 39.2238C206.561 39.4566 206.329 39.573 205.981 39.573Z" fill="#2D3C5A"/>
<path d="M208.652 44.694C208.419 44.694 208.071 44.5776 207.955 44.3448C207.723 43.9956 207.839 43.4137 208.187 43.1809L215.735 38.1761C216.083 37.9433 216.664 38.0596 216.896 38.4088C217.129 38.758 217.012 39.3399 216.664 39.5727L209.116 44.5776C209 44.5776 208.768 44.694 208.652 44.694Z" fill="#2D3C5A"/>
<path d="M97.0569 69.0201C96.7085 69.7184 96.4763 70.4167 96.3602 71.1151C92.5281 72.1626 89.2767 75.4216 88.4638 79.6117C88.2316 80.892 88.2316 82.1723 88.3477 83.3362C85.9091 84.733 83.7028 87.1772 82.7738 89.2722C80.7997 93.2295 82.5416 98.4672 85.9091 101.261C85.6769 103.821 86.2575 106.498 87.8832 108.477C88.58 109.292 89.2767 109.99 90.0895 110.456C91.1346 112.201 92.8765 113.365 95.4312 113.831C101.586 114.995 108.437 110.223 112.501 106.033C114.824 103.588 116.682 100.562 117.843 97.4196C119.004 97.0705 119.933 96.4885 120.862 95.5574C125.972 91.9492 129.571 83.9182 123.649 80.0773C123.185 78.797 122.372 77.7495 121.211 77.1675C119.817 76.0036 118.54 75.538 117.378 75.7708C118.888 75.3052 120.165 74.4904 121.327 73.3265C122.14 70.7659 122.72 68.2053 123.069 65.5283C123.301 63.5496 124.346 62.2693 125.623 61.571C119.585 56.2169 104.953 54.4711 97.0569 69.0201Z" fill="#2D3C5A"/>
<path d="M138.281 175.286C115.172 179.592 72.9033 176.45 72.9033 176.45C72.9033 176.45 73.0194 150.261 79.4062 125.354C85.2123 102.774 97.173 94.1606 109.25 93.4623C114.011 93.1131 118.772 94.1606 123.301 95.9065C126.204 97.0704 128.526 98.4671 130.384 100.213C141.648 110.223 138.397 129.078 134.797 138.971C130.733 150.494 138.281 175.286 138.281 175.286Z" fill="white"/>
<path d="M130.501 100.213C125.507 104.17 117.263 106.032 109.366 93.462C114.127 93.1128 118.888 94.1603 123.417 95.9062C126.204 96.9537 128.526 98.4669 130.501 100.213Z" fill="white"/>
<path d="M134.681 136.295C134.565 136.295 134.565 136.295 134.449 136.295C133.985 136.178 133.752 135.713 133.868 135.247C133.868 135.131 137.236 121.862 132.707 113.482C132.475 113.016 132.591 112.551 133.056 112.318C133.52 112.085 133.985 112.201 134.217 112.667C139.094 121.629 135.726 135.131 135.494 135.713C135.494 136.062 135.146 136.295 134.681 136.295Z" fill="#2D3C5A"/>
<path d="M95.5475 98.2347C81.1483 107.197 48.4016 144.21 80.9161 193.327L103.444 180.175C103.444 180.175 96.7088 162.716 96.7088 145.839C96.7088 132.454 108.321 116.625 108.321 116.625L95.5475 98.2347Z" fill="white"/>
<path d="M98.4508 135.713C101.702 125.587 108.321 116.508 108.321 116.508L95.5477 98.2346C89.8577 101.843 81.2645 109.757 74.9939 121.164C82.8903 125.82 90.6705 130.824 98.4508 135.713Z" fill="white"/>
<path d="M99.728 133.152C99.6119 133.152 99.4958 133.152 99.3796 133.036C98.9151 132.803 98.7991 132.337 98.9152 131.872L102.515 124.19C102.747 123.724 103.212 123.608 103.676 123.724C104.141 123.957 104.257 124.423 104.141 124.888L100.541 132.57C100.425 132.919 100.076 133.152 99.728 133.152Z" fill="#2D3C5A"/>
<path d="M139.21 175.635C116.101 179.942 72.9033 176.799 72.9033 176.799C72.9033 176.799 73.9484 150.611 80.4513 125.703C86.2575 103.123 98.2182 94.5099 110.295 93.8116C115.056 93.4624 119.817 94.5099 124.346 96.2558C127.249 97.4197 129.571 98.8164 131.429 100.562C142.693 110.572 139.442 129.427 135.842 139.321C131.662 150.844 139.21 175.635 139.21 175.635Z" fill="white"/>
<path d="M105.186 178.778C88.1154 178.778 73.0195 177.73 72.7872 177.73L71.9744 177.614V176.799C71.9744 176.566 73.0195 150.146 79.5224 125.47C86.6059 98.2348 101.818 93.3463 110.179 92.8807C114.824 92.648 119.701 93.4627 124.578 95.3249C127.365 96.4889 129.92 98.0019 131.894 99.7478C145.596 111.969 138.165 134.898 136.539 139.437C132.474 150.728 139.906 175.053 139.906 175.286L140.139 176.217L139.21 176.45C129.92 178.196 117.146 178.778 105.186 178.778ZM73.8323 175.985C79.8707 176.334 116.914 178.545 138.165 174.937C136.771 170.165 131.197 149.564 135.029 138.972C136.539 134.665 143.622 112.551 130.849 101.145C128.991 99.3987 126.668 98.002 123.998 96.9545C119.353 95.0922 114.824 94.2775 110.411 94.6266C96.7086 95.4414 86.3736 106.499 81.2642 125.936C75.5742 147.934 74.0646 171.212 73.8323 175.985Z" fill="#2D3C5A"/>
<path d="M131.43 100.445C126.436 104.403 118.192 106.265 110.295 93.6947C115.056 93.3455 119.817 94.3931 124.346 96.139C127.133 97.3029 129.455 98.6996 131.43 100.445Z" fill="white"/>
<path d="M123.649 104.287C123.069 104.287 122.372 104.287 121.791 104.171C117.378 103.472 113.314 100.097 109.598 94.2773L108.785 92.997L110.295 92.8807C114.94 92.6479 119.817 93.4626 124.694 95.3249C127.481 96.4888 130.036 98.0019 132.01 99.7477L132.823 100.446L132.01 101.144C130.036 102.658 127.133 104.287 123.649 104.287ZM111.921 94.5101C115.056 99.1658 118.54 101.726 122.14 102.425C125.391 103.007 128.178 101.726 130.036 100.446C128.294 99.0494 126.32 97.8855 123.998 96.9544C119.933 95.3249 115.985 94.5101 112.037 94.5101C111.921 94.5101 111.921 94.5101 111.921 94.5101Z" fill="#2D3C5A"/>
<path d="M101.586 130.359C95.199 124.307 87.4187 119.651 79.9869 114.879C67.9101 132.105 59.5492 160.039 81.8449 193.676L104.373 180.524C104.373 180.524 97.6376 163.065 97.6376 146.188C97.6376 140.834 99.3795 135.248 101.586 130.359Z" fill="white"/>
<path d="M81.6127 194.84L81.1481 194.142C56.6462 157.129 69.5359 128.264 79.2902 114.413L79.7547 113.715L83.1222 115.926C89.6251 120.116 96.4764 124.423 102.166 129.777L102.631 130.242L102.399 130.824C99.844 136.644 98.5666 141.765 98.5666 146.188C98.5666 162.716 105.186 180.058 105.302 180.291L105.534 180.989L81.6127 194.84ZM80.2192 116.043C70.8132 129.777 59.2009 157.245 82.0772 192.512L103.328 180.058C102.05 176.566 96.7087 160.97 96.7087 146.072C96.7087 141.532 97.986 136.411 100.541 130.592C95.0829 125.587 88.5801 121.397 82.1933 117.323L80.2192 116.043Z" fill="#2D3C5A"/>
<path d="M96.4767 98.5834C90.7866 102.192 82.1935 110.106 75.9229 121.513C83.8192 126.285 91.5995 131.289 99.3797 136.178C102.631 126.052 109.25 116.973 109.25 116.973" fill="white"/>
<path d="M99.8441 137.342L98.9151 136.76C96.7088 135.364 94.3863 133.967 92.1799 132.57C86.7222 129.079 81.0322 125.587 75.4583 122.211L74.7615 121.746L75.226 121.047C81.4966 109.641 90.2059 101.61 96.1282 97.8855C96.5926 97.6528 97.0571 97.7692 97.2894 98.1183C97.5216 98.5839 97.4055 99.0495 97.0571 99.2823C91.3671 102.774 83.3546 110.339 77.2001 121.047C82.5418 124.306 87.9995 127.682 93.2251 131.057C95.1992 132.221 97.0571 133.501 99.0312 134.665C102.399 124.888 108.437 116.625 108.669 116.275C108.902 115.926 109.482 115.81 109.831 116.043C110.179 116.275 110.295 116.857 110.063 117.207C109.947 117.323 103.56 126.285 100.309 136.178L99.8441 137.342Z" fill="#2D3C5A"/>
<path d="M124.346 55.6346C121.327 53.074 117.495 51.6773 113.547 52.2592C105.302 53.4232 99.728 61.9198 101.005 71.1147C101.005 71.1147 101.005 71.1147 101.005 71.2311C101.122 72.1622 101.354 73.0934 101.702 74.0245C98.5668 76.4688 99.3797 81.3572 102.167 83.685C104.605 85.7801 107.857 86.2457 110.876 84.267C113.198 85.3145 115.753 85.7801 118.424 85.6637C130.268 84.9654 133.984 75.8868 130.965 66.8082C129.572 62.7345 127.714 58.428 124.346 55.6346Z" fill="white"/>
<path d="M117.495 86.5955C115.289 86.5955 113.082 86.1299 110.992 85.3152C107.857 87.0611 104.489 86.7118 101.586 84.384C99.8442 82.8709 98.7991 80.5431 98.7991 78.2152C98.7991 76.4694 99.4959 74.9563 100.657 73.7924C100.425 72.9776 100.193 72.1629 100.076 71.4645V71.3482C99.3797 66.6925 100.425 62.1532 102.863 58.3122C105.418 54.5877 109.018 52.1434 113.314 51.4451C117.263 50.8631 121.327 52.1435 124.811 55.0533C128.41 58.0795 130.385 62.7351 131.662 66.576C133.404 71.6973 133.055 76.8185 130.501 80.5431C128.062 84.1512 123.882 86.2463 118.424 86.5955C118.192 86.5955 117.843 86.5955 117.495 86.5955ZM110.876 83.3365L111.34 83.5693C113.547 84.6168 116.101 84.966 118.424 84.8496C123.417 84.5004 127.133 82.7546 129.223 79.4956C131.43 76.2366 131.778 71.6973 130.152 67.0416C128.875 63.3171 127.133 59.0106 123.882 56.3336C120.746 53.7729 117.147 52.609 113.779 53.0746C110.063 53.6566 106.695 55.7516 104.489 59.127C102.283 62.5024 101.354 66.6924 101.934 70.9989V71.1154C102.051 71.9301 102.283 72.7449 102.515 73.676L102.747 74.2579L102.283 74.6071C100.889 75.6546 100.657 77.0513 100.657 78.0989C100.657 79.8447 101.47 81.707 102.863 82.8709C105.186 84.8496 107.973 85.0824 110.528 83.4529L110.876 83.3365Z" fill="#2D3C5A"/>
<path d="M120.188 68.7929C120.346 68.17 119.971 67.5363 119.349 67.3775C118.728 67.2186 118.096 67.5948 117.937 68.2177C117.779 68.8406 118.154 69.4743 118.775 69.6332C119.397 69.792 120.029 69.4158 120.188 68.7929Z" fill="#2D3C5A"/>
<path d="M128.178 72.2792C127.482 69.7186 126.436 67.3907 125.043 65.1793C124.695 64.5973 123.649 65.1793 123.998 65.7612C125.391 67.8563 126.32 70.1842 127.017 72.512C127.249 73.3268 128.41 72.9776 128.178 72.2792Z" fill="#2D3C5A"/>
<path d="M110.063 77.866C107.973 76.1201 104.954 75.8874 102.747 77.5168C102.167 77.9824 102.747 78.9135 103.328 78.5643C105.07 77.284 107.508 77.284 109.25 78.7971C109.831 79.1463 110.644 78.3316 110.063 77.866Z" fill="#2D3C5A"/>
<path d="M107.625 72.2791C110.295 73.9086 109.831 69.2529 114.011 63.4333C115.869 60.8727 127.017 60.4071 128.062 52.3761C128.643 43.9958 115.753 47.7204 113.547 52.3761C105.302 53.54 96.9412 63.4333 101.934 75.0725C103.56 73.6758 106.347 72.2791 107.625 72.2791Z" fill="#2D3C5A"/>
<path d="M569.128 60.1239C569.128 68.3226 567.51 76.1487 564.398 83.2295C561.286 90.4344 556.805 96.8941 551.328 102.36C550.954 102.733 550.456 103.105 550.083 103.602C539.502 113.292 525.56 119.13 510.124 119.13C507.386 119.13 504.772 119.006 502.157 118.757C501.784 118.757 501.286 118.633 500.913 118.633C493.942 117.888 487.469 116.397 481.494 113.913C480.996 113.664 480.498 113.54 480 113.292C470.913 109.192 463.444 102.608 458.34 93.2916C453.61 84.7202 450.996 73.7885 450.996 60.1239C450.996 27.5773 477.386 1.11768 510 1.11768C542.614 1.11768 569.128 22.4841 569.128 60.1239Z" fill="white"/>
<path d="M510 120C507.261 120 504.523 119.876 501.909 119.627H501.784C501.411 119.627 501.037 119.503 500.664 119.503C493.444 118.758 486.846 117.143 480.996 114.658C480.498 114.41 480 114.286 479.502 114.037C469.793 109.565 462.448 102.733 457.469 93.6646C452.49 84.5963 450 73.2919 450 60C450 26.9565 476.888 0 510 0C526.556 0 541.618 5.59007 552.448 15.6522C563.9 26.4596 570 41.7391 570 59.8758C570 68.0745 568.382 76.0248 565.145 83.354C562.033 90.6832 557.552 97.1428 551.826 102.733C551.452 103.106 550.954 103.602 550.581 103.975C539.502 114.41 525.062 120 510 120ZM510 1.98759C478.008 1.98759 451.867 28.0745 451.867 60.1242C451.867 73.0435 454.357 84.0994 459.087 92.795C463.817 101.491 471.037 108.075 480.249 112.298C480.747 112.547 481.245 112.795 481.618 112.919C487.22 115.279 493.693 116.894 500.664 117.64C501.037 117.64 501.411 117.764 501.784 117.764H501.909C504.523 118.012 507.137 118.137 509.751 118.137C524.315 118.137 538.257 112.671 549.087 102.857C549.461 102.484 549.959 102.112 550.332 101.739C555.809 96.3975 560.166 90.0621 563.278 82.9814C566.39 75.7764 567.884 68.0745 567.884 60.1242C568.133 25.3416 544.73 1.98759 510 1.98759Z" fill="#2D3C5A"/>
<path d="M564.398 83.2302C561.286 90.4351 556.805 96.8948 551.327 102.361C550.954 102.733 550.456 103.106 550.083 103.603C539.502 113.292 525.56 119.131 510.124 119.131C507.386 119.131 504.771 119.007 502.157 118.758C501.784 118.758 501.286 118.634 500.913 118.634C493.942 117.889 487.469 116.398 481.493 113.913C488.713 95.901 498.672 77.5159 514.232 69.4414C519.958 66.46 526.556 64.8451 534.025 65.342C537.386 65.5904 540.498 66.2116 543.361 67.0811C553.07 70.0625 559.792 76.7706 564.398 83.2302Z" fill="#2D3C5A"/>
<path d="M525.062 71.0558C522.572 71.0558 519.958 70.8074 517.469 70.1862C516.846 70.062 516.224 69.8136 515.726 69.5651C516.473 69.1925 517.22 68.8198 518.091 68.5714L519.087 68.1987L517.593 65.9627L516.971 66.0869C516.348 66.2111 515.601 66.2111 514.979 66.2111C506.514 66.2111 500.788 58.5092 497.427 52.0496C494.689 46.708 493.817 40.7452 495.311 35.2794C496.68 29.8136 500.041 25.4658 504.772 22.9813C507.386 21.6148 510.249 20.8695 513.236 20.8695C521.203 20.8695 528.921 25.8384 532.904 33.5403L533.278 34.2856L534.149 34.0372C535.892 33.2918 537.635 32.7949 539.253 32.7949C541.618 32.7949 543.734 33.7887 544.979 35.4036C546.224 36.8943 546.597 38.8819 546.099 40.8695C545.104 44.8446 541.494 49.4409 535.892 49.8136L535.021 49.9378L536.39 66.5838L537.137 66.708C538.382 66.8322 539.626 67.0807 540.747 67.4534C536.141 69.6894 530.664 71.0558 525.062 71.0558Z" fill="white"/>
<path d="M513.485 21.6151C521.078 21.6151 528.423 26.3356 532.406 33.789V33.9132L533.277 35.5281L534.896 34.7828C536.514 34.0374 538.132 33.6648 539.502 33.6648C541.618 33.6648 543.485 34.4101 544.605 35.9008C545.601 37.143 545.975 38.8822 545.477 40.4971C544.605 44.2238 541.244 48.3232 536.141 48.8201L534.273 48.9443L534.398 50.8076L535.643 65.7144L535.767 67.2051L537.261 67.4536C537.51 67.4536 537.759 67.5778 538.132 67.5778C534.149 69.3169 529.792 70.1865 525.186 70.1865C522.946 70.1865 520.705 69.938 518.464 69.5654H518.589L520.705 68.6958L519.46 66.8325L518.962 65.9629L518.34 64.9691L517.219 65.0933C516.597 65.2175 515.975 65.2175 515.352 65.2175C507.385 65.2175 501.908 57.7641 498.547 51.553C495.809 46.4598 495.186 40.7455 496.431 35.4039C497.8 30.1865 500.912 25.9629 505.518 23.7269C507.883 22.2362 510.622 21.6151 513.485 21.6151ZM513.485 19.7517C510.373 19.7517 507.385 20.4971 504.522 21.8635C494.19 27.2051 490.829 40.8697 496.804 52.2983C501.037 60.3728 507.136 66.9567 515.228 66.9567C515.85 66.9567 516.597 66.9567 517.344 66.8325L517.842 67.702C516.597 68.1989 515.352 68.6958 514.107 69.3169C514.854 70.1865 515.85 70.8076 517.344 71.0561C519.958 71.553 522.448 71.9256 525.062 71.9256C531.535 71.9256 537.883 70.1865 543.236 66.8325C541.369 66.2114 539.502 65.8387 537.385 65.466L536.141 50.5592C541.867 50.0623 545.975 45.466 547.219 40.8697C548.464 36.025 544.979 31.6772 539.502 31.6772C537.883 31.6772 536.016 32.0499 534.024 32.9194V32.7952C529.668 24.5964 521.576 19.7517 513.485 19.7517Z" fill="#2D3C5A"/>
<path d="M529.668 36.6462C531.162 35.6524 533.403 34.6586 534.896 33.6648C534.896 33.4163 534.025 33.1679 534.025 32.9194C534.025 18.0126 516.349 8.94429 508.382 19.7517C506.515 20.7455 497.676 19.7517 497.054 25.466C492.075 23.3542 485.104 27.5778 489.336 33.5406C490.083 34.5344 492.573 36.1493 494.067 37.2673C498.299 37.1431 502.531 36.5219 506.764 35.4039C510.747 34.4101 513.984 32.0499 517.842 31.1803C522.946 29.9381 524.44 33.789 528.174 35.9008C528.797 36.1493 529.17 36.3977 529.668 36.6462Z" fill="#2D3C5A"/>
<path d="M512.903 45.724C513.473 45.0378 513.379 44.0198 512.691 43.4503C512.003 42.8807 510.983 42.9752 510.413 43.6614C509.842 44.3476 509.937 45.3655 510.624 45.9351C511.312 46.5047 512.332 46.4102 512.903 45.724Z" fill="#2D3C5A"/>
<path d="M540.124 38.0127C536.39 37.0189 532.905 39.6276 532.78 43.4785C532.78 44.2239 534.025 44.2239 534.025 43.4785C534.149 40.4971 536.888 38.3854 539.875 39.2549C540.622 39.5034 540.871 38.2611 540.124 38.0127Z" fill="#2D3C5A"/>
<path d="M508.382 57.8885C506.016 54.286 504.523 50.3109 503.9 45.9631C503.776 45.2177 502.531 45.2177 502.655 45.9631C503.278 50.5593 504.772 54.6587 507.261 58.5096C507.759 59.255 508.755 58.6339 508.382 57.8885Z" fill="#2D3C5A"/>
<path d="M490.829 77.6399C488.34 81.7392 483.236 100.621 480 113.168C470.912 109.068 463.444 102.485 458.34 93.1678C460.829 85.0933 463.195 79.7517 462.697 74.1616C461.825 65.466 463.817 55.0312 465.933 47.3293C465.933 47.3293 468.547 43.4784 472.033 46.4597C472.033 46.4597 475.892 42.6088 478.132 46.8324C478.132 46.8324 482.365 43.1057 483.61 48.0747C484.481 51.3045 486.348 56.6461 486.597 65.2175C487.095 65.0933 487.468 64.9691 487.468 64.9691C487.468 64.9691 489.087 53.0436 492.697 54.907C496.307 57.0188 493.817 72.7951 490.829 77.6399Z" fill="white"/>
<path d="M480.622 114.534L479.626 114.037C469.917 109.565 462.572 102.733 457.593 93.6647L457.344 93.2921L457.469 92.9194C457.967 91.3045 458.465 89.8138 458.963 88.4474C460.83 82.7331 462.199 78.6337 461.826 74.2859C460.954 64.5964 463.444 53.0436 465.187 47.0809L465.311 46.8325C465.311 46.7082 466.68 44.7207 468.921 44.4722C470.041 44.348 471.162 44.5964 472.158 45.3418C473.029 44.7207 474.398 43.8511 476.016 44.0995C477.012 44.2238 477.759 44.7207 478.506 45.7145C479.377 45.0933 480.871 44.4722 482.241 44.9691C483.485 45.3418 484.232 46.3356 484.73 48.0747C484.855 48.6958 485.104 49.3169 485.228 49.9381C485.975 52.5468 486.971 56.2735 487.469 61.2424C488.091 58.5095 489.211 55.4039 490.954 54.4101C491.701 54.0374 492.448 54.0374 493.319 54.4101C494.191 54.7828 494.813 55.7765 495.187 57.0188C496.68 62.1119 494.44 73.9132 491.826 78.261C490.083 81.2424 486.224 93.789 481.12 113.54L480.622 114.534ZM459.336 93.1678C463.942 101.367 470.664 107.702 479.377 111.926C482.987 98.0126 487.718 81.1182 490.083 77.2672C492.448 73.2921 494.564 62.112 493.195 57.5157C492.946 56.7704 492.697 56.1492 492.324 56.025C492.075 55.9008 491.95 55.9008 491.701 56.025C490.207 56.7703 488.962 61.9877 488.465 65.3418L488.34 65.9629L487.718 66.0871C487.718 66.0871 487.344 66.0871 486.971 66.3355L485.85 66.7082V65.466C485.601 58.5095 484.232 53.6648 483.361 50.4349C483.112 49.6896 482.987 49.0685 482.863 48.4474C482.738 47.702 482.365 46.8325 481.743 46.7082C480.871 46.4598 479.377 47.3293 479.004 47.702L478.133 48.4474L477.635 47.4536C477.137 46.584 476.639 46.0871 476.016 45.9629C474.896 45.8387 473.527 46.8325 473.153 47.3294L472.531 47.9505L471.909 47.4536C471.037 46.7082 470.29 46.4598 469.419 46.584C468.299 46.7082 467.427 47.702 467.178 48.0747C465.56 53.9132 463.07 65.0933 463.942 74.4101C464.44 79.1306 462.946 83.6026 461.079 89.3169C460.332 90.3107 459.834 91.6772 459.336 93.1678Z" fill="#2D3C5A"/>
<path d="M484.232 66.5839C479.377 67.8262 476.763 72.4225 477.635 77.2672C477.759 78.0125 479.004 77.6398 478.879 76.8945C478.008 72.6709 480.498 68.9442 484.606 67.8262C485.477 67.5777 485.104 66.3355 484.232 66.5839Z" fill="#2D3C5A"/>
<path d="M480 63.6026C477.51 58.0125 477.137 52.0498 478.88 46.2113C479.129 45.466 477.884 45.2175 477.635 45.9628C475.768 52.0498 476.266 58.261 478.755 63.9753C479.129 64.7206 480.373 64.348 480 63.6026Z" fill="#2D3C5A"/>
<path d="M473.153 64.0996C471.41 58.2611 471.161 52.4226 472.655 46.5841C472.78 45.8387 471.659 45.5903 471.41 46.3357C469.916 52.4226 470.165 58.5095 472.033 64.4723C472.157 65.2176 473.402 64.845 473.153 64.0996Z" fill="#2D3C5A"/>
<path d="M500.788 117.516C500.29 117.516 499.792 117.143 499.792 116.646C500.041 110.559 500.29 104.224 500.415 97.8885C500.415 97.3916 500.788 97.0189 501.411 97.0189C501.909 97.0189 502.282 97.3916 502.282 97.8885C502.158 104.224 502.033 110.559 501.66 116.771C501.784 117.143 501.286 117.516 500.788 117.516Z" fill="white"/>
<path d="M551.203 101.367C550.705 101.367 550.207 100.994 550.207 100.621C550.207 98.5094 550.207 96.646 550.207 94.6584C550.207 94.2858 550.581 93.9131 551.079 93.9131C551.577 93.9131 552.074 94.2858 552.074 94.6584C552.074 96.5218 552.074 98.5094 552.074 100.621C552.199 100.994 551.701 101.367 551.203 101.367Z" fill="white"/>
</svg>
