<svg width="320" height="274" viewBox="0 0 320 274" fill="none" xmlns="http://www.w3.org/2000/svg">
<path d="M242.673 255.386C242.673 255.386 240.65 248.791 234.898 246.983C231.596 245.919 227.229 246.77 223.182 239.006C220.306 233.368 216.578 213.903 211.466 196.14C195.702 140.617 176.956 110.834 176.956 110.834L164.601 122.215H134.352C129.772 152.211 81.203 251.131 81.203 251.131L122.636 272.936C122.636 272.936 125.618 266.767 122.636 261.555C119.653 256.343 110.813 253.471 136.589 217.307C147.772 201.565 156.08 181.461 161.938 163.698C178.447 203.905 197.406 267.405 197.406 267.405L242.673 255.386Z" fill="white"/>
<path d="M123.062 274L80.2444 251.45L80.564 250.706C81.0965 249.749 129.133 151.572 133.606 122.003L133.713 121.364H164.281L177.063 109.558L177.595 110.409C177.808 110.728 196.661 140.936 212.318 195.927C214.341 203.16 216.259 210.712 217.856 217.413C220.2 227.093 222.223 235.389 223.927 238.686C227.016 244.643 230.105 245.281 233.087 245.813C233.833 245.919 234.472 246.132 235.217 246.345C241.289 248.259 243.419 254.961 243.525 255.28L243.738 256.024L196.98 268.575L196.767 267.831C196.554 267.193 178.234 206.032 162.151 166.145C155.015 187.418 146.707 204.756 137.441 217.839C114.967 249.429 119.227 255.173 122.316 259.428C122.742 260.066 123.168 260.598 123.488 261.236C126.683 266.767 123.594 273.149 123.488 273.362L123.062 274ZM82.2681 250.812L122.21 271.873C122.849 270.171 124.127 265.704 121.89 261.981C121.571 261.449 121.145 260.917 120.719 260.385C117.097 255.492 112.624 249.43 135.843 216.881C145.322 203.586 153.843 185.61 161.086 163.592L161.725 161.571L162.577 163.592C177.915 201.033 195.702 259.428 197.832 266.661L241.502 254.961C240.756 253.259 238.732 249.217 234.578 247.94C233.939 247.728 233.3 247.621 232.661 247.515C229.679 246.983 225.845 246.238 222.436 239.537C220.626 236.134 218.708 228.05 216.259 217.945C214.661 211.244 212.744 203.692 210.72 196.565C196.554 146.786 179.832 117.429 176.743 112.217L164.92 123.173H135.097C130.091 152.211 86.5285 241.984 82.2681 250.812Z" fill="#2D3C5A"/>
<path d="M223.182 239.006C212.744 242.41 202.412 246.239 191.868 249.43C195.276 260.386 197.406 267.406 197.406 267.406L242.673 255.28C242.673 255.28 240.65 248.685 234.898 246.877C231.596 246.026 227.336 246.877 223.182 239.006Z" fill="#2D3C5A"/>
<path d="M225.525 241.346C223.714 243.261 221.904 245.069 220.093 246.983C219.667 247.409 220.306 248.153 220.732 247.728C222.543 245.813 224.353 244.005 226.164 242.091C226.59 241.559 225.951 240.814 225.525 241.346Z" fill="white"/>
<path d="M228.188 242.303C226.377 244.217 224.566 246.025 222.756 247.94C222.33 248.366 222.969 249.11 223.395 248.685C225.205 246.77 227.016 244.962 228.827 243.047C229.359 242.622 228.614 241.877 228.188 242.303Z" fill="white"/>
<path d="M119.44 247.727C109.428 243.047 99.2034 238.899 89.2979 234.112C84.3984 244.43 81.0966 251.131 81.0966 251.131L122.529 272.936C122.529 272.936 125.512 266.767 122.529 261.555C120.932 258.47 117.204 256.237 119.44 247.727Z" fill="#2D3C5A"/>
<path d="M119.653 250.918C117.097 251.025 114.434 251.238 111.878 251.344C111.239 251.344 111.239 252.301 111.878 252.301C114.434 252.195 117.097 251.982 119.653 251.876C120.292 251.876 120.292 250.918 119.653 250.918Z" fill="white"/>
<path d="M120.932 253.578C118.375 253.684 115.712 253.897 113.156 254.003C112.517 254.003 112.517 254.96 113.156 254.96C115.712 254.854 118.375 254.641 120.932 254.535C121.571 254.428 121.571 253.471 120.932 253.578Z" fill="white"/>
<path d="M161.725 162.422C161.619 162.422 161.512 162.422 161.406 162.316C160.98 162.103 160.767 161.678 160.98 161.252C164.92 151.254 166.199 144.234 166.199 144.127L166.305 143.595L173.654 141.362C174.08 141.255 174.506 141.468 174.613 141.894C174.719 142.319 174.506 142.745 174.08 142.851L167.69 144.766C167.37 146.574 165.879 153.062 162.471 161.678C162.258 162.21 162.045 162.422 161.725 162.422Z" fill="#2D3C5A"/>
<path d="M67.0371 261.663H16.6576C16.6576 261.663 -16.6802 199.758 13.1428 195.29C42.9658 190.717 48.6108 232.731 48.6108 232.731C48.6108 232.731 64.2679 223.371 67.0371 261.663Z" fill="white"/>
<path d="M67.9958 262.513H16.2316L16.0185 262.087C15.0599 260.385 -6.66826 219.541 2.06562 202.097C4.19583 197.842 7.92372 195.396 13.0362 194.545C20.3855 193.481 26.8826 194.97 32.4212 199.118C44.5634 208.266 48.3978 226.88 49.2499 231.56C50.741 231.028 53.6168 230.284 56.8121 231.986C62.8832 235.177 66.6111 245.175 67.8892 261.662L67.9958 262.513ZM17.1901 260.917H66.1851C64.6939 241.771 59.7944 235.389 56.0665 233.368C52.4452 231.454 49.1433 233.368 49.0368 233.368L47.9717 234.007L47.7587 232.837C47.7587 232.624 44.5634 210.18 31.3561 200.395C26.137 196.459 20.0659 195.076 13.1428 196.14C8.45628 196.885 5.15444 199.012 3.34376 202.841C-4.53803 218.69 14.8469 256.45 17.1901 260.917Z" fill="#2D3C5A"/>
<path d="M287.195 261.662H261.952C265.041 247.728 286.875 221.137 287.195 261.662Z" fill="white"/>
<path d="M287.94 262.513H260.886L261.1 261.556C263.123 252.515 272.39 238.581 279.739 239.432C285.064 239.963 287.727 247.515 287.834 261.768L287.94 262.513ZM263.017 260.917H286.449C286.236 248.473 283.893 241.452 279.739 241.027C273.668 240.282 265.253 252.515 263.017 260.917Z" fill="#2D3C5A"/>
<path d="M319.254 261.662H294.011C288.899 203.373 318.935 221.136 319.254 261.662Z" fill="white"/>
<path d="M320 262.513H293.266L293.159 261.768C291.349 241.559 293.585 228.369 299.337 224.54C301.361 223.157 303.704 223.157 306.154 224.434C312.864 228.05 319.787 241.984 319.893 261.662L320 262.513ZM294.757 260.917H318.402C318.083 242.516 311.586 229.114 305.515 225.923C303.597 224.965 301.893 224.965 300.296 225.923C295.29 229.22 293.159 242.303 294.757 260.917Z" fill="#2D3C5A"/>
<path d="M307.432 262.513H305.302C304.875 262.513 304.449 262.194 304.449 261.662C304.449 261.13 304.769 260.811 305.302 260.811H305.834C305.728 251.664 304.982 239.644 302.426 232.092C302.319 231.667 302.532 231.241 302.958 231.029C303.384 230.922 303.81 231.135 304.023 231.56C306.793 239.538 307.432 252.302 307.538 261.556L307.432 262.513Z" fill="#2D3C5A"/>
<path d="M276.224 262.513C276.118 262.513 276.118 262.513 276.011 262.513C275.585 262.407 275.372 261.981 275.479 261.556L278.461 250.494C278.567 250.068 278.993 249.856 279.419 249.962C279.846 250.068 280.059 250.494 279.952 250.919L276.97 261.981C276.863 262.3 276.544 262.513 276.224 262.513Z" fill="#2D3C5A"/>
<path d="M40.942 262.513H38.9183C38.4923 262.513 38.0663 262.194 38.0663 261.662C38.0663 261.237 38.3858 260.917 38.7053 260.917C33.5928 245.601 26.1371 225.072 18.8944 211.989C18.6813 211.563 18.7878 211.138 19.2139 210.925C19.6399 210.712 20.066 210.819 20.279 211.244C27.7347 224.647 35.51 245.92 40.6225 261.449L40.942 262.513Z" fill="#2D3C5A"/>
<path d="M47.2262 254.004C47.1197 254.004 47.0132 254.004 46.9067 253.897C46.4806 253.685 46.3741 253.259 46.5872 252.834L52.9778 239.751C53.1908 239.325 53.6168 239.219 54.0429 239.432C54.4689 239.644 54.5755 240.07 54.3625 240.495L47.9718 253.578C47.7588 253.791 47.5458 254.004 47.2262 254.004Z" fill="#2D3C5A"/>
<path d="M183.56 23.3988C180.897 20.9523 177.489 19.4632 173.867 19.7823C166.199 20.4205 160.66 27.8662 161.512 36.3755C161.512 36.3755 161.512 36.3755 161.512 36.4818C161.619 37.3328 161.725 38.1837 161.938 39.0346C158.956 41.162 159.489 45.6293 161.832 47.863C163.962 49.884 166.944 50.5222 169.82 48.9267C171.95 49.9904 174.294 50.6286 176.637 50.5222C187.501 50.4158 191.442 42.4384 188.992 33.9291C188.033 29.9935 186.542 26.0579 183.56 23.3988Z" fill="white"/>
<path d="M176.637 51.2681C174.4 51.2681 172.057 50.7362 169.927 49.6726C167.051 51.0553 163.856 50.6299 161.406 48.2898C159.915 46.8007 159.063 44.6733 159.169 42.546C159.276 40.9505 160.021 39.5677 161.086 38.6104C160.873 37.8659 160.767 37.1213 160.767 36.4831V36.3768C160.341 31.9094 161.725 27.3356 164.495 24.0383C166.944 21.1664 170.246 19.3581 173.867 19.039C177.489 18.7199 181.11 20.1027 184.199 22.8682C187.394 25.8465 188.885 30.2075 189.844 33.7176C191.229 38.5041 190.59 43.1842 188.14 46.3752C185.69 49.4599 181.749 51.1617 176.637 51.2681ZM169.82 47.8643L170.246 48.0771C172.27 49.1407 174.507 49.5662 176.637 49.6726C181.217 49.6726 184.732 48.1834 186.755 45.4179C188.886 42.546 189.418 38.5041 188.246 34.1431C187.288 30.633 185.903 26.6974 183.027 24.0383C180.365 21.4855 177.063 20.3154 173.867 20.6345C170.672 20.9536 167.69 22.5491 165.56 25.1019C163.003 28.0802 161.832 32.2285 162.151 36.3768V36.4831C162.258 37.2277 162.364 37.9722 162.577 38.8232L162.684 39.355L162.258 39.6741C160.98 40.525 160.66 41.9078 160.554 42.7587C160.447 44.3542 161.086 46.1625 162.258 47.2261C164.282 49.1407 166.838 49.4598 169.288 48.1834L169.82 47.8643Z" fill="#2D3C5A"/>
<path d="M179.23 35.1804C179.407 34.6201 179.096 34.0227 178.535 33.8459C177.974 33.6691 177.376 33.98 177.199 34.5403C177.022 35.1005 177.333 35.698 177.894 35.8747C178.455 36.0515 179.053 35.7406 179.23 35.1804Z" fill="#2D3C5A"/>
<path d="M186.223 38.6103C185.69 36.2702 184.838 34.0366 183.666 32.0156C183.347 31.3774 182.388 31.9093 182.708 32.5475C183.88 34.5684 184.625 36.6958 185.158 38.9295C185.371 39.5677 186.436 39.3549 186.223 38.6103Z" fill="#2D3C5A"/>
<path d="M169.394 42.8638C167.583 41.162 164.814 40.7366 162.684 42.1193C162.151 42.4384 162.577 43.3957 163.216 43.0766C164.921 42.0129 167.157 42.1193 168.648 43.6084C169.075 44.0339 169.82 43.2893 169.394 42.8638Z" fill="#2D3C5A"/>
<path d="M167.477 37.6527C169.82 39.2482 169.607 34.9936 173.761 29.888C175.572 27.6543 187.714 23.0805 186.542 18.6131C184.838 12.1248 177.489 19.3577 173.867 19.6768C166.199 20.315 157.891 28.8243 161.832 39.7801C161.832 39.8864 166.199 37.5464 167.477 37.6527Z" fill="#2D3C5A"/>
<path d="M162.577 32.1218C164.388 29.7817 164.175 29.3563 166.731 27.7608C164.495 19.6769 151.287 11.274 142.234 21.166C138.186 25.6334 139.251 33.1854 139.251 33.8236C133.606 33.1854 127.216 35.3128 124.233 39.9929C119.867 46.694 124.447 55.2033 131.476 57.6497C139.251 60.3089 148.198 57.1179 154.163 51.5868C163.642 42.7584 157.252 29.8881 158.21 29.3563C159.489 28.6117 161.619 30.9517 162.577 32.1218Z" fill="#2D3C5A"/>
<path d="M250.236 80.7344C248.212 95.6257 230.851 115.091 210.401 112.963C193.039 111.155 182.495 97.2212 183.24 92.9665C185.264 81.6917 179.726 73.9269 179.513 64.5667C179.406 59.142 179.513 55.4192 179.513 55.4192C182.921 55.951 185.903 57.3337 188.566 59.3547C199.537 67.4385 206.673 85.7336 214.874 86.9036C226.377 88.4991 233.3 72.3315 238.093 62.333" fill="white"/>
<path d="M213.489 113.918C212.424 113.918 211.359 113.812 210.294 113.706C198.684 112.536 189.844 105.834 185.477 99.9843C183.347 97.1124 182.175 94.4533 182.495 92.7514C183.666 86.263 182.175 80.9447 180.791 75.7328C179.832 72.1163 178.873 68.4998 178.767 64.5643C178.66 59.1396 178.767 55.5232 178.767 55.4168V54.4595L179.725 54.5658C183.027 55.0976 186.223 56.4805 189.098 58.6078C194.104 62.3306 198.471 68.2871 202.199 73.4991C206.673 79.6683 210.827 85.4121 214.98 85.9439C225.206 87.3267 231.703 73.6054 236.496 63.5006L237.348 61.7988L238.839 62.437L237.987 64.1388C232.981 74.6691 226.164 89.0286 214.767 87.4331C209.868 86.7949 205.714 80.9447 200.921 74.2436C196.98 68.8189 192.933 63.2879 188.14 59.6715C185.797 57.8632 183.134 56.6932 180.365 56.055C180.365 57.4377 180.365 60.416 180.365 64.1388C180.471 67.8616 181.323 71.2654 182.282 74.8818C183.666 80.2002 185.157 85.7312 183.986 92.6451C183.879 93.496 184.412 95.6233 186.649 98.6015C190.803 104.133 199.323 110.515 210.401 111.685C231.064 113.812 247.466 94.1341 249.383 80.0938L250.981 80.3065C249.17 94.666 233.513 113.918 213.489 113.918Z" fill="#2D3C5A"/>
<path d="M218.921 86.7959C217.643 87.115 216.259 87.2213 214.874 87.0086C206.673 85.8386 199.43 67.5436 188.566 59.4597C185.903 57.5451 182.921 56.1624 179.513 55.5242C179.513 55.5242 179.406 59.1406 179.513 64.6717C179.619 74.0319 185.158 81.7967 183.24 93.0715C182.495 97.2198 191.761 113.6 209.122 115.408C213.383 115.834 217.43 115.621 221.158 114.77C220.839 111.579 219.774 92.2206 218.921 86.7959Z" fill="#2D3C5A"/>
<path d="M213.276 116.365C211.892 116.365 210.507 116.259 209.016 116.153C196.874 114.876 189.524 106.686 186.862 103.282C183.879 99.3468 182.069 95.0921 182.495 92.9648C183.666 86.4764 182.175 81.1581 180.791 75.9461C179.832 72.3297 178.873 68.7132 178.767 64.7777C178.66 59.353 178.767 55.7365 178.767 55.6301V54.6729L179.725 54.7792C183.027 55.311 186.223 56.6938 189.098 58.8211C194.104 62.5439 198.471 68.5005 202.199 73.7124C206.673 79.8817 210.827 85.6255 214.98 86.1573C216.259 86.37 217.537 86.2636 218.708 85.9445L219.56 85.7319L219.667 86.5828C220.199 90.1992 220.839 99.9849 221.371 107.111C221.584 110.622 221.797 113.493 221.904 114.557L222.01 115.302L221.265 115.408C218.708 116.046 215.939 116.365 213.276 116.365ZM180.365 56.4811C180.365 57.8639 180.365 60.8421 180.365 64.5649C180.471 68.2877 181.323 71.6914 182.282 75.3079C183.666 80.6262 185.157 86.1573 183.986 93.0711C183.773 94.5602 185.051 98.1767 188.033 102.219C190.483 105.516 197.513 113.281 209.122 114.451C212.85 114.876 216.685 114.664 220.199 114.025C220.093 112.643 219.88 110.196 219.773 107.324C219.347 100.73 218.708 91.7947 218.176 87.7528C217.004 87.9655 215.833 87.9655 214.767 87.7528C209.868 87.1146 205.714 81.2645 200.921 74.5634C196.98 69.1387 192.933 63.6076 188.14 59.9912C185.69 58.2893 183.134 57.1193 180.365 56.4811Z" fill="#2D3C5A"/>
<path d="M278.558 0.964167L227.215 19.3225L257.339 103.343L308.682 84.985L278.558 0.964167Z" fill="#2D3C5A"/>
<path d="M256.839 104.452L226.164 18.9332L278.993 0L309.668 85.5186L256.839 104.452ZM228.188 19.8905L257.798 102.431L307.645 84.5613L278.035 2.02099L228.188 19.8905Z" fill="#2D3C5A"/>
<path d="M262.058 37.7606C261.739 37.7606 261.419 37.5479 261.313 37.2288C261.206 36.8033 261.419 36.3778 261.845 36.1651L272.39 32.3359C272.816 32.2296 273.242 32.4423 273.455 32.8678C273.561 33.2932 273.348 33.7187 272.922 33.9314L262.378 37.7606C262.271 37.6542 262.165 37.7606 262.058 37.7606Z" fill="white"/>
<path d="M244.91 43.8235C244.59 43.8235 244.271 43.6107 244.164 43.2916C244.058 42.8662 244.271 42.4407 244.697 42.228L254.283 38.8242C254.709 38.7179 255.135 38.9306 255.348 39.3561C255.454 39.7815 255.241 40.207 254.815 40.4197L245.229 43.8235C245.123 43.8235 245.016 43.8235 244.91 43.8235Z" fill="white"/>
<path d="M242.567 37.1216C242.247 37.1216 241.928 36.9089 241.821 36.5898C241.715 36.1643 241.928 35.7388 242.354 35.5261L270.047 25.634C270.473 25.5277 270.899 25.7404 271.112 26.1659C271.218 26.5913 271.005 27.0168 270.579 27.2295L242.886 37.1216C242.78 37.1216 242.673 37.1216 242.567 37.1216Z" fill="white"/>
<path d="M273.668 48.6096C273.348 48.6096 273.029 48.3969 272.922 48.0778C272.816 47.6523 273.029 47.2268 273.455 47.0141L277.183 45.6314C277.609 45.525 278.035 45.7377 278.248 46.1632C278.354 46.5887 278.141 47.0141 277.715 47.2269L273.987 48.6096C273.881 48.6096 273.774 48.6096 273.668 48.6096Z" fill="white"/>
<path d="M249.703 57.1184C249.383 57.1184 249.064 56.9057 248.957 56.5866C248.851 56.1611 249.064 55.7356 249.49 55.5229L266.212 49.5664C266.638 49.46 267.064 49.6728 267.277 50.0982C267.384 50.5237 267.171 50.9492 266.745 51.1619L250.022 57.1184C249.916 57.1184 249.809 57.1184 249.703 57.1184Z" fill="white"/>
<path d="M247.36 50.5242C247.04 50.5242 246.721 50.3115 246.614 49.9924C246.508 49.5669 246.721 49.1414 247.147 48.9287L274.839 39.0366C275.266 38.9303 275.692 39.143 275.905 39.5685C276.011 39.9939 275.798 40.4194 275.372 40.6321L247.679 50.5242C247.573 50.5242 247.466 50.5242 247.36 50.5242Z" fill="white"/>
<path d="M265.04 14.8904L275.265 21.5915L276.437 10.7422L265.04 14.8904Z" fill="#55A5FF"/>
<path d="M218.602 17.4448C218.389 17.4448 218.282 17.3384 218.069 17.232L208.27 9.04182C207.951 8.72272 207.844 8.29728 208.164 7.87182C208.483 7.55272 208.909 7.44631 209.335 7.76541L219.134 15.9556C219.454 16.2747 219.56 16.7002 219.241 17.1257C219.134 17.3384 218.815 17.4448 218.602 17.4448Z" fill="#2D3C5A"/>
<path d="M213.915 23.4006C213.809 23.4006 213.809 23.4006 213.702 23.4006L209.229 22.337C208.803 22.2306 208.59 21.8052 208.59 21.3797C208.59 20.9542 209.122 20.7415 209.549 20.7415L214.022 21.8051C214.448 21.9115 214.661 22.337 214.661 22.7624C214.555 23.0815 214.235 23.4006 213.915 23.4006Z" fill="#2D3C5A"/>
<path d="M293.03 11.4925C295.412 10.641 296.651 8.02268 295.798 5.64444C294.945 3.26619 292.324 2.02855 289.942 2.88007C287.561 3.73159 286.321 6.34981 287.174 8.72805C288.027 11.1063 290.649 12.344 293.03 11.4925Z" fill="#55A5FF"/>
<path d="M297.61 24.4954C299.992 23.6438 301.231 21.0256 300.378 18.6474C299.526 16.2691 296.904 15.0315 294.522 15.883C292.141 16.7345 290.902 19.3527 291.754 21.731C292.607 24.1092 295.229 25.3469 297.61 24.4954Z" fill="#55A5FF"/>
<path d="M303.826 35.5005L299.915 36.8989L306.952 56.5272L310.863 55.1288L303.826 35.5005Z" fill="#55A5FF"/>
<path d="M290.603 34.4617L308.71 84.9857L283.68 93.9205C283.36 93.1759 283.147 92.4313 282.828 91.7931C275.692 71.7963 279.206 50.6294 290.603 34.4617Z" fill="white"/>
<path d="M283.254 94.9846L282.934 94.2401C282.615 93.4955 282.402 92.7509 282.082 92.0064C275.159 72.6477 278.035 50.9489 289.857 34.0367L290.71 32.7603L309.562 85.518L283.254 94.9846ZM290.284 36.2704C279.419 52.5445 276.97 73.0732 283.573 91.5809C283.786 92.1128 283.893 92.5382 284.106 93.07L307.645 84.6671L290.284 36.2704Z" fill="#2D3C5A"/>
<path d="M238.093 62.4364C242.141 53.1826 253.857 47.4388 255.668 52.7571C257.478 58.0754 249.064 59.6709 249.064 59.6709C249.064 59.6709 249.596 71.3712 245.762 73.8177" fill="white"/>
<path d="M245.762 74.5621C245.443 74.5621 245.23 74.4557 245.123 74.1366C244.91 73.7111 245.017 73.2857 245.336 73.0729C248.212 71.2647 248.425 62.8618 248.318 59.6708V58.9262L248.957 58.8198C248.957 58.8198 253.431 57.9689 254.815 55.6288C255.242 54.8843 255.348 54.0333 255.029 52.9697C254.709 52.0124 253.963 51.4806 252.792 51.4806C248.744 51.2678 241.821 56.1607 238.945 62.649C238.732 63.0745 238.306 63.2872 237.88 63.0745C237.454 62.8617 237.241 62.4363 237.454 62.0108C240.65 54.7779 248.212 49.6723 252.898 49.8851C254.709 49.9914 255.987 50.8423 256.52 52.4378C256.946 53.8206 256.839 55.2034 256.2 56.3734C254.816 58.7135 251.407 59.8835 250.023 60.2026C250.129 62.9682 250.023 72.0093 246.295 74.3494C245.975 74.5621 245.869 74.5621 245.762 74.5621Z" fill="#2D3C5A"/>
<path d="M179.513 55.5242C155.761 58.1833 145.429 78.6057 137.121 102.006C128.813 125.407 129.985 123.918 129.985 123.918L186.755 125.513C186.755 125.513 178.021 106.899 183.134 98.4962C188.353 90.0933 204.969 65.9481 179.513 55.5242Z" fill="#2D3C5A"/>
<path d="M188.14 126.364L130.411 124.662L130.198 124.875L129.559 124.556C128.813 124.13 128.494 123.917 136.376 101.687C143.938 80.4135 154.056 57.5447 179.406 54.6729H179.619L179.832 54.7792C186.968 57.6511 191.442 61.9057 193.252 67.3304C196.767 78.0734 188.992 90.6247 184.838 97.4322C184.519 97.964 184.199 98.3895 183.986 98.8149C179.086 106.792 187.607 124.875 187.607 125.087L188.14 126.364ZM130.944 123.173L185.584 124.768C183.773 120.514 177.915 105.729 182.495 98.1767C182.708 97.7512 183.027 97.2194 183.347 96.7939C187.394 90.3056 194.957 78.0734 191.655 68.075C190.057 63.1821 185.903 59.2466 179.406 56.4811C155.228 59.353 145.323 81.6899 137.973 102.431C132.861 116.791 131.37 121.577 130.944 123.173Z" fill="#2D3C5A"/>
<path d="M183.879 96.582C183.666 96.582 183.453 96.4757 183.347 96.3693C183.027 96.0502 183.027 95.5184 183.347 95.1993C188.459 89.9873 192.826 78.6061 191.442 67.0122C191.442 66.5867 191.655 66.1612 192.187 66.1612C192.613 66.0549 193.039 66.374 193.039 66.9058C194.53 79.0316 189.844 90.9447 184.518 96.3693C184.305 96.4757 184.092 96.582 183.879 96.582Z" fill="white"/>
<path d="M176.956 76.9026H73.2148V137.957H176.956V76.9026Z" fill="#55A5FF"/>
<path d="M85.996 125.3C85.57 125.3 85.144 124.981 85.144 124.449V94.4537C85.144 94.0282 85.4635 93.6028 85.996 93.6028C86.5286 93.6028 86.8482 93.9219 86.8482 94.4537V124.449C86.7417 124.981 86.4221 125.3 85.996 125.3Z" fill="#2D3C5A"/>
<path d="M96.4342 125.3C96.0081 125.3 95.582 124.981 95.582 124.449V105.622C95.582 105.197 95.9016 104.771 96.4342 104.771C96.9667 104.771 97.2862 105.09 97.2862 105.622V124.449C97.1797 124.981 96.8602 125.3 96.4342 125.3Z" fill="#2D3C5A"/>
<path d="M161.086 108.706C160.873 108.706 160.66 108.6 160.553 108.493C160.234 108.174 160.234 107.642 160.553 107.323L168.222 99.9839L156.187 92.2191C155.867 92.0064 155.761 91.4745 155.974 91.1554C156.187 90.8364 156.719 90.73 157.039 90.9427L170.779 99.8775L161.725 108.6C161.512 108.6 161.299 108.706 161.086 108.706Z" fill="#2D3C5A"/>
<path d="M67.8892 91.4746V107.855L55.6404 98.8139L67.8892 91.4746Z" fill="#2D3C5A"/>
<path d="M110.963 56.4786L85.014 74.5454L103.105 100.459L129.054 82.3926L110.963 56.4786Z" fill="white"/>
<path d="M102.825 101.579L83.8658 74.3492L111.133 55.416L130.091 82.6458L102.825 101.579ZM86.1025 74.7747L103.251 99.3453L127.855 82.2203L110.706 57.6497L86.1025 74.7747Z" fill="#2D3C5A"/>
<path d="M106.127 71.5844L121.251 51.0557C121.251 51.0557 129.133 59.0332 125.725 67.6489C121.145 78.4982 106.127 71.5844 106.127 71.5844Z" fill="#55A5FF"/>
<path d="M82.8007 61.0548C84.5654 61.0548 85.996 59.6262 85.996 57.8638C85.996 56.1015 84.5654 54.6729 82.8007 54.6729C81.0359 54.6729 79.6053 56.1015 79.6053 57.8638C79.6053 59.6262 81.0359 61.0548 82.8007 61.0548Z" fill="#55A5FF"/>
<path d="M131.689 108.176C124.446 107.219 117.097 106.687 109.854 105.092C102.825 126.046 104.422 144.022 112.091 142.533C112.091 142.533 113.902 144.766 118.269 143.49C118.269 143.49 120.399 144.873 122.636 144.128C123.488 143.915 124.02 143.383 124.446 142.745C124.446 142.745 124.446 142.852 124.553 142.852C126.79 144.979 130.944 138.491 131.476 134.661C132.115 130.088 130.091 126.365 127.748 123.918C128.387 119.451 129.559 113.92 131.689 108.176Z" fill="white"/>
<path d="M121.358 145.191C119.973 145.191 118.801 144.659 118.269 144.34C114.647 145.297 112.624 144.021 111.878 143.383C110.281 143.596 108.789 142.957 107.618 141.681C103.038 136.469 103.677 120.94 109.109 104.878L109.322 104.24L110.067 104.346C115.073 105.41 120.186 106.048 125.192 106.58C127.429 106.793 129.559 107.112 131.796 107.431L132.754 107.537L132.435 108.495C130.198 114.345 129.133 119.982 128.6 123.705C130.411 125.62 133.074 129.449 132.328 134.874C131.902 138.065 129.133 143.064 126.577 144.021C125.938 144.234 125.299 144.234 124.766 144.021C124.34 144.447 123.701 144.872 123.062 145.085C122.423 145.191 121.89 145.191 121.358 145.191ZM118.482 142.745L118.801 142.957C118.801 142.957 120.612 144.127 122.529 143.489C123.168 143.277 123.594 142.957 123.914 142.426L124.446 141.681L125.192 142.426C125.299 142.532 125.618 142.745 126.044 142.532C127.855 141.894 130.411 137.639 130.731 134.767C131.37 129.768 128.813 126.258 127.216 124.662L126.896 124.343L127.003 123.918C127.535 120.195 128.6 114.77 130.624 108.92C128.707 108.707 126.896 108.495 124.979 108.282C120.186 107.75 115.287 107.112 110.387 106.155C104.955 122.748 105.275 136.682 108.789 140.724C109.641 141.681 110.707 142.106 111.878 141.894L112.304 141.787L112.624 142.213C112.73 142.319 114.221 144.021 117.949 142.957L118.482 142.745Z" fill="#2D3C5A"/>
<path d="M179.512 55.5245C179.512 55.5245 178.341 59.2474 174.932 64.2466C170.885 70.3095 151.181 81.3715 140.636 92.8591C135.63 98.2838 132.648 104.985 130.624 111.367C123.701 109.24 111.026 107.538 103.89 106.049C104.742 103.389 105.701 100.73 106.872 98.0711C118.588 70.5222 144.257 55.8436 166.944 54.7799C171.311 54.4608 175.572 54.78 179.512 55.5245Z" fill="#2D3C5A"/>
<path d="M131.157 112.324L130.411 112.111C126.151 110.834 119.547 109.664 113.795 108.601C110.067 107.963 106.553 107.324 103.783 106.686L102.931 106.473L103.251 105.622C104.209 102.75 105.168 100.091 106.233 97.5386C119.334 66.6923 147.133 54.6729 166.944 53.7156C171.311 53.5028 175.678 53.8219 179.725 54.5665L180.578 54.7792L180.258 55.6302C180.258 55.7365 178.98 59.4594 175.572 64.4586C173.548 67.4369 168.009 71.5852 161.619 76.2653C154.589 81.3709 146.601 87.221 141.169 93.1776C137.015 97.7513 133.819 103.708 131.263 111.366L131.157 112.324ZM104.955 105.41C107.511 105.942 110.707 106.473 114.008 107.112C119.866 108.175 125.831 109.132 130.091 110.409C132.648 102.857 135.843 96.9003 140.104 92.3266C145.749 86.2637 153.737 80.3072 160.767 75.2016C167.051 70.6279 172.483 66.5859 174.293 63.8204C176.637 60.3103 177.915 57.5448 178.447 56.162C174.719 55.5238 170.885 55.3111 166.944 55.5238C147.559 56.4811 120.399 68.2878 107.618 98.3895C106.659 100.623 105.807 102.963 104.955 105.41Z" fill="#2D3C5A"/>
<path d="M118.375 133.491C117.417 136.575 117.204 139.66 117.63 142.744C117.736 143.383 118.801 143.17 118.695 142.425C118.269 139.447 118.482 136.575 119.44 133.703C119.653 133.171 118.588 132.852 118.375 133.491Z" fill="#2D3C5A"/>
<path d="M112.304 133.385C112.411 132.747 111.346 132.428 111.239 133.066C110.813 135.619 110.92 138.065 111.133 140.618C111.133 141.256 112.198 141.256 112.198 140.618C112.091 138.278 111.878 135.831 112.304 133.385Z" fill="#2D3C5A"/>
<path d="M128.813 133.171C127.429 132.959 126.577 134.022 126.151 135.192C125.299 137.213 124.873 139.341 124.659 141.468C124.553 142.106 125.618 142.106 125.725 141.468C125.938 139.872 126.577 133.916 128.92 134.235C129.452 134.341 129.452 133.278 128.813 133.171Z" fill="#2D3C5A"/>
<path d="M188.566 59.4601C188.566 59.5664 188.459 59.5665 188.459 59.6728C188.246 59.9919 188.033 60.311 187.82 60.6301C185.903 63.1829 182.708 64.4593 179.619 64.672C179.512 64.672 179.299 64.672 179.193 64.672C177.702 64.7784 176.317 64.5657 175.039 64.2466C171.95 63.3956 169.394 61.2683 168.009 58.6092C167.37 57.4391 167.051 56.0563 166.944 54.6736C171.311 54.4609 175.465 54.7799 179.512 55.5245C183.027 56.1627 186.01 57.5455 188.566 59.4601Z" fill="white"/>
<path d="M178.447 65.5212C177.169 65.5212 175.998 65.3085 174.826 64.9894C171.524 64.0321 168.755 61.9047 167.37 58.9265C166.731 57.6501 166.305 56.161 166.199 54.6718V53.9272H166.944C171.311 53.7145 175.678 54.0336 179.725 54.7782C183.027 55.31 186.223 56.6927 189.098 58.8201L189.631 59.1392L189.418 59.6711C189.418 59.7774 189.311 59.8837 189.311 59.8837C189.098 60.3092 188.779 60.7347 188.566 60.9474C186.649 63.3938 183.453 64.9894 179.725 65.3085C179.619 65.3085 179.512 65.3085 179.299 65.3085C178.98 65.5212 178.66 65.5212 178.447 65.5212ZM167.903 55.4164C168.009 56.3737 168.329 57.331 168.755 58.1819C170.033 60.6283 172.376 62.543 175.252 63.3939C176.53 63.713 177.808 63.9257 179.193 63.8193C179.299 63.8193 179.406 63.8193 179.512 63.8193C182.814 63.5002 185.584 62.1175 187.181 60.0965C187.288 59.9901 187.394 59.7774 187.501 59.6711C185.051 57.9692 182.282 56.7991 179.406 56.3737C175.678 55.6291 171.844 55.31 167.903 55.4164Z" fill="#2D3C5A"/>
</svg>
