<svg width="42" height="42" viewBox="0 0 42 42" fill="none" xmlns="http://www.w3.org/2000/svg">
<path fill-rule="evenodd" clip-rule="evenodd" d="M26.2266 19.9333L27.6667 19.9333C29.098 19.9333 30.4385 20.3222 31.5883 21C30.4385 21.6778 29.098 22.0667 27.6667 22.0667L26.2266 22.0667C26.2966 21.722 26.3333 21.3653 26.3333 21C26.3333 20.6347 26.2966 20.278 26.2266 19.9333ZM25.6198 18.3333L27.6667 18.3333C29.6303 18.3333 31.4522 18.9397 32.9555 19.9754C34.46 18.5645 35.4 16.5587 35.4 14.3333C35.4 10.0623 31.9377 6.6 27.6667 6.6L14.3333 6.6C10.0623 6.6 6.6 10.0623 6.6 14.3333C6.6 16.5587 7.53995 18.5645 9.0445 19.9754C10.5478 18.9397 12.3697 18.3333 14.3333 18.3333L16.3802 18.3333C17.3023 16.7392 19.0259 15.6667 21 15.6667C22.9741 15.6667 24.6977 16.7392 25.6198 18.3333ZM15.7734 19.9333L14.3333 19.9333C12.902 19.9333 11.5615 20.3222 10.4117 21C11.5615 21.6778 12.902 22.0667 14.3333 22.0667L15.7734 22.0667C15.7034 21.722 15.6667 21.3653 15.6667 21C15.6667 20.6347 15.7034 20.278 15.7734 19.9333ZM17.4208 22.0667L24.5792 22.0667C24.6794 21.7295 24.7333 21.3718 24.7333 21C24.7333 18.9381 23.0619 17.2667 21 17.2667C18.9381 17.2667 17.2667 18.9381 17.2667 21C17.2667 21.3718 17.3206 21.7295 17.4208 22.0667ZM16.3802 23.6667L14.3333 23.6667C12.3698 23.6667 10.5478 23.0603 9.04449 22.0246C7.53995 23.4355 6.6 25.4413 6.6 27.6667C6.6 31.9377 10.0623 35.4 14.3333 35.4L27.6667 35.4C31.9377 35.4 35.4 31.9377 35.4 27.6667C35.4 25.4413 34.46 23.4355 32.9555 22.0246C31.4522 23.0603 29.6303 23.6667 27.6667 23.6667L25.6198 23.6667L16.3802 23.6667ZM37 27.6667C37 25.0551 35.9274 22.694 34.1986 21C35.9274 19.306 37 16.9449 37 14.3333C37 9.17867 32.8213 5 27.6667 5L14.3333 5C9.17867 5 5 9.17867 5 14.3333C5 16.9449 6.07262 19.306 7.80136 21C6.07262 22.694 5 25.0551 5 27.6667C5 32.8213 9.17868 37 14.3333 37L27.6667 37C32.8213 37 37 32.8213 37 27.6667Z" fill="#55A5FF"/>
</svg>
