<svg width="32" height="32" viewBox="0 0 32 32" fill="none" xmlns="http://www.w3.org/2000/svg">
<path d="M30.5239 9.8969C29.7334 8.01437 28.5835 6.30329 27.1382 4.85901C25.6972 3.41222 23.9855 2.26194 22.1003 1.47347C20.169 0.661823 18.0939 0.245773 15.9983 0.250032H15.9279C13.7964 0.260579 11.7354 0.682454 9.79425 1.51214C7.92517 2.30869 6.22952 3.46102 4.80209 4.90471C3.37078 6.34575 2.23404 8.05085 1.45519 9.92502C0.646708 11.874 0.237045 13.9646 0.250312 16.0738C0.260881 18.5137 1.22735 21.4844 2.3195 23.65L1.93785 28.4453C1.93785 29.3383 2.6636 30.0625 3.55493 30.0625L7.88121 29.35C10.0615 30.4478 13.4892 31.738 15.9314 31.75H16.0054C18.1122 31.75 20.152 31.3422 22.0756 30.5441C23.9513 29.7651 25.6566 28.6282 27.0959 27.1973C28.5474 25.7594 29.6889 24.0789 30.4886 22.2051C31.3165 20.2645 31.7393 18.2008 31.7499 16.0703C31.7569 13.9293 31.3412 11.8516 30.5239 9.8969Z" fill="url(#paint0_linear)"/>
<defs>
<linearGradient id="paint0_linear" x1="31.6313" y1="0.1" x2="16.053" y2="31.7761" gradientUnits="userSpaceOnUse">
<stop stop-color="#00B4FF"/>
<stop offset="1" stop-color="#006EFF"/>
</linearGradient>
</defs>
</svg>
