<svg width="42" height="26" viewBox="0 0 42 26" fill="none" xmlns="http://www.w3.org/2000/svg">
<path d="M19.8502 23.5543C19.9517 23.64 20.0602 23.7258 20.167 23.8098C18.0381 25.2266 15.537 25.9805 12.9797 25.9763C10.9546 25.9762 8.95767 25.5023 7.14853 24.5924C5.33939 23.6824 3.7683 22.3617 2.56091 20.736C1.35352 19.1102 0.54335 17.2244 0.195192 15.2295C-0.152967 13.2346 -0.0294475 11.1858 0.55587 9.24718C1.14119 7.30854 2.17206 5.53376 3.56603 4.06482C4.96 2.59587 6.67839 1.47352 8.58374 0.787541C10.4891 0.101558 12.5285 -0.129021 14.539 0.114246C16.5494 0.357513 18.475 1.06788 20.1617 2.18852C20.0567 2.27777 19.9517 2.36002 19.873 2.45102C18.357 3.75902 17.1408 5.37835 16.307 7.19872C15.4732 9.0191 15.0415 10.9978 15.0412 13C15.0417 15.0008 15.4712 16.9782 16.3007 18.7988C17.1303 20.6195 18.3407 22.2411 19.8502 23.5543ZM29.022 0.0220159C26.362 0.0220159 23.8927 0.820016 21.8382 2.18852C21.9432 2.27777 22.0482 2.36002 22.127 2.45102C23.6429 3.75902 24.8592 5.37835 25.693 7.19872C26.5268 9.0191 26.9585 10.9978 26.9587 13C26.9576 15.0007 26.5278 16.9778 25.6983 18.7984C24.8687 20.619 23.6587 22.2407 22.1497 23.5543C22.0482 23.64 21.9397 23.7258 21.833 23.8098C23.9616 25.227 26.4629 25.981 29.0202 25.9763C30.7246 25.977 32.4125 25.6418 33.9874 24.99C35.5622 24.3381 36.9932 23.3824 38.1986 22.1774C39.404 20.9723 40.3601 19.5416 41.0123 17.9669C41.6646 16.3922 42.0002 14.7044 42 13C41.9995 9.55818 40.632 6.25744 38.1983 3.8237C35.7645 1.38995 32.4638 0.0224799 29.022 0.0220159ZM21 2.80452C19.454 4.016 18.2044 5.56379 17.3459 7.33037C16.4875 9.09696 16.0428 11.0359 16.0457 13C16.0423 14.9645 16.4867 16.9038 17.3452 18.6708C18.2037 20.4377 19.4536 21.9858 21 23.1973C22.546 21.9854 23.7956 20.4373 24.654 18.6704C25.5125 16.9036 25.9571 14.9644 25.9542 13C25.9571 11.0359 25.5124 9.09696 24.654 7.33037C23.7956 5.56379 22.5459 4.016 21 2.80452Z" fill="white"/>
</svg>
