<svg width="126" height="42" viewBox="0 0 126 42" fill="none" xmlns="http://www.w3.org/2000/svg">
<path d="M90.355 14.8145V30.5455H86.5446V14.7964H82.3247V11.4552H94.6072V14.8145H90.355Z" fill="white"/>
<path d="M22.8985 11.4446V30.5561H19.0844V14.8002H11.4626V30.5561H7.63525V11.4446H22.8985Z" fill="white"/>
<path d="M32.2337 11.4446C34.3786 11.4446 35.8656 11.6739 37.2667 12.9059C38.8109 14.2811 39.2114 16.1441 39.2114 17.5193C39.2114 18.2635 39.097 20.3266 37.6386 21.7883C36.5807 22.8483 35.0074 23.4793 32.8058 23.4793H30.4957V30.5561H26.6858V11.4446H32.2337ZM30.4957 20.2698H31.9191C32.6337 20.2698 33.5491 20.2698 34.35 19.6679C35.0366 19.1233 35.3793 18.2635 35.3793 17.4328C35.3793 16.3729 34.8649 15.6563 34.3214 15.2556C33.5496 14.7105 32.577 14.6537 31.6907 14.6537H30.4957V20.2698Z" fill="white"/>
<path d="M78.5099 29.8682C77.3668 30.4696 75.8512 30.986 73.7916 30.986C70.4454 30.986 68.4154 29.8401 66.8146 28.321C64.612 26.2001 63.7549 23.8227 63.7549 21.0144C63.7549 17.5479 65.1846 15.0549 66.8146 13.5364C68.7301 11.7307 71.1038 11.0146 73.8203 11.0146C75.1642 11.0146 76.7661 11.2439 78.5099 12.1892V16.5448C76.7661 14.539 74.5921 14.3957 73.9066 14.3957C70.074 14.3957 67.5864 17.5474 67.5864 21.0717C67.5864 25.3126 70.8469 27.605 74.0496 27.605C75.8232 27.605 77.3954 26.8317 78.5105 25.5132V29.8682H78.5099Z" fill="white"/>
<path d="M102.23 11.4446V30.5561H98.4197V11.4446H102.23Z" fill="white"/>
<path d="M111.59 11.4446C113.735 11.4446 115.222 11.6739 116.623 12.9059C118.167 14.2811 118.568 16.1441 118.568 17.5193C118.568 18.2635 118.453 20.3266 116.995 21.7883C115.937 22.8483 114.364 23.4793 112.162 23.4793H109.852V30.5561H106.042V11.4446H111.59ZM109.852 20.2698H111.276C111.991 20.2698 112.906 20.2698 113.706 19.6679C114.392 19.1233 114.736 18.2635 114.736 17.4328C114.736 16.3729 114.221 15.6563 113.678 15.2556C112.906 14.7105 111.934 14.6537 111.047 14.6537H109.852V20.2698Z" fill="white"/>
<path d="M49.5674 21.0244C49.5674 21.0164 49.5663 21.0085 49.5663 21.0005C49.5663 19.9336 50.4298 19.0674 51.4951 19.0674C52.5599 19.0674 53.4234 19.9331 53.4234 21.0005C53.4234 22.0631 52.5662 22.9251 51.5073 22.932V25.5408C54.0045 25.5339 56.0271 23.5042 56.0271 21.0005C56.0271 18.4926 53.9981 16.4597 51.4951 16.4597C48.9921 16.4597 46.9631 18.4926 46.9631 21.0005C46.9631 21.0085 46.9642 21.0164 46.9642 21.0244H49.5674Z" fill="white"/>
<path d="M58.1725 17.7176C58.6583 18.7085 58.9311 19.8221 58.9311 21.0004C58.9311 25.1218 55.5959 28.4631 51.4825 28.4631C47.3685 28.4631 44.0339 25.1218 44.0339 21.0004C44.0339 17.027 47.1333 13.7797 51.0417 13.5515L52.8995 10.7018C52.436 10.6381 51.9635 10.6025 51.483 10.6025C45.7513 10.6025 41.1055 15.258 41.1055 21.0009C41.1055 26.7428 45.7513 31.3982 51.483 31.3982C57.2148 31.3982 61.8606 26.7428 61.8606 21.0009C61.8606 18.7616 61.1518 16.6894 59.9498 14.992L58.1725 17.7176Z" fill="white"/>
</svg>
