<svg width="67" height="22" viewBox="0 0 67 22" fill="none" xmlns="http://www.w3.org/2000/svg">
<path fill-rule="evenodd" clip-rule="evenodd" d="M17.0005 21.3366H11.2887L7.00551 5.04536C6.80222 4.29597 6.37056 3.63346 5.7356 3.32121C4.151 2.53652 2.40487 1.91202 0.5 1.59706V0.969849H9.70129C10.9712 0.969849 11.9236 1.91202 12.0824 3.00625L14.3047 14.7576L20.0138 0.969849H25.5668L17.0005 21.3366ZM28.7415 21.3355H23.3472L27.7891 0.96875H33.1834L28.7415 21.3355ZM40.1632 6.61192C40.3219 5.51498 41.2744 4.88776 42.3856 4.88776C44.1317 4.73028 46.0338 5.04525 47.6212 5.82722L48.5736 1.44217C46.9862 0.814963 45.2401 0.5 43.6555 0.5C38.4199 0.5 34.6101 3.32109 34.6101 7.23641C34.6101 10.215 37.3087 11.7789 39.2136 12.7211C41.2744 13.6606 42.0681 14.2878 41.9093 15.2272C41.9093 16.6364 40.3219 17.2636 38.7373 17.2636C36.8325 17.2636 34.9276 16.7939 33.1842 16.0092L32.2318 20.397C34.1367 21.179 36.1975 21.4939 38.1024 21.4939C43.9729 21.6487 47.6212 18.8303 47.6212 14.6C47.6212 9.27281 40.1632 8.96056 40.1632 6.61192ZM66.5 21.3355L62.2169 0.96875H57.6162C56.6638 0.96875 55.7114 1.59596 55.3939 2.53542L47.4625 21.3355H53.0156L54.124 18.3596H60.9469L61.5819 21.3355H66.5ZM58.4098 6.45312L59.9944 14.129H55.5525L58.4098 6.45312Z" fill="white"/>
</svg>
