<svg width="44" height="14" viewBox="0 0 44 14" fill="none" xmlns="http://www.w3.org/2000/svg">
<path fill-rule="evenodd" clip-rule="evenodd" d="M11.0003 13.891H7.19245L4.33701 3.03024C4.20148 2.53064 3.91371 2.08897 3.4904 1.8808C2.434 1.35767 1.26991 0.941341 0 0.731366V0.313225H6.13419C6.9808 0.313225 7.61576 0.941341 7.72158 1.67082L9.20315 9.50508L13.0092 0.313225H16.7112L11.0003 13.891ZM18.8276 13.8903H15.2314L18.1926 0.3125H21.7889L18.8276 13.8903ZM26.4421 4.07461C26.5479 3.34332 27.1829 2.92518 27.9237 2.92518C29.0878 2.82019 30.3558 3.03016 31.4141 3.55148L32.0491 0.628116C30.9908 0.209975 29.8267 0 28.7703 0C25.2799 0 22.7401 1.88073 22.7401 4.49094C22.7401 6.47666 24.5391 7.51929 25.809 8.14741C27.1829 8.77372 27.712 9.19186 27.6062 9.81816C27.6062 10.7576 26.5479 11.1758 25.4915 11.1758C24.2216 11.1758 22.9517 10.8626 21.7895 10.3395L21.1545 13.2647C22.4244 13.786 23.7983 13.996 25.0682 13.996C28.982 14.0991 31.4141 12.2202 31.4141 9.40002C31.4141 5.84854 26.4421 5.64038 26.4421 4.07461ZM44 13.8903L41.1446 0.3125H38.0775C37.4425 0.3125 36.8076 0.730641 36.5959 1.35695L31.3083 13.8903H35.0104L35.7493 11.9064H40.298L40.7213 13.8903H44ZM38.6066 3.96875L39.663 9.08599H36.7017L38.6066 3.96875Z" fill="#172B85"/>
</svg>
