<svg width="50" height="16" viewBox="0 0 50 16" fill="none" xmlns="http://www.w3.org/2000/svg">
<path fill-rule="evenodd" clip-rule="evenodd" d="M12.5005 15.8753H8.17335L4.92848 3.46298C4.77447 2.89202 4.44745 2.38725 3.96642 2.14934C2.76594 1.55148 1.4431 1.07568 0 0.835704V0.357829H6.97077C7.93283 0.357829 8.65438 1.07568 8.77464 1.90937L10.4583 10.8628L14.7833 0.357829H18.9903L12.5005 15.8753ZM21.3954 15.8754H17.3087L20.6739 0.35791H24.7605L21.3954 15.8754ZM30.0476 4.6567C30.1679 3.82093 30.8894 3.34306 31.7312 3.34306C33.0541 3.22307 34.495 3.46304 35.6976 4.05884L36.4192 0.717847C35.2166 0.239972 33.8938 0 32.6933 0C28.7269 0 25.8407 2.1494 25.8407 5.1325C25.8407 7.4019 27.885 8.59348 29.3282 9.31133C30.8894 10.0271 31.4907 10.505 31.3704 11.2208C31.3704 12.2944 30.1679 12.7723 28.9674 12.7723C27.5243 12.7723 26.0812 12.4144 24.7604 11.8166L24.0389 15.1596C25.482 15.7554 27.0432 15.9954 28.4863 15.9954C32.9338 16.1133 35.6976 13.966 35.6976 10.7429C35.6976 6.68405 30.0476 6.44615 30.0476 4.6567ZM49.9999 15.8754L46.7551 0.35791H43.2697C42.5481 0.35791 41.8266 0.835785 41.5861 1.55156L35.5774 15.8754H39.7843L40.624 13.6081H45.793L46.274 15.8754H49.9999ZM43.8711 4.53662L45.0716 10.3849H41.7065L43.8711 4.53662Z" fill="white"/>
</svg>
