<svg width="160" height="130" viewBox="0 0 160 130" fill="none" xmlns="http://www.w3.org/2000/svg">
<path d="M156 18H112C109.791 18 108 19.7909 108 22V42C108 44.2091 109.791 46 112 46H156C158.209 46 160 44.2091 160 42V22C160 19.7909 158.209 18 156 18Z" fill="#FF5F5F"/>
<path d="M144.289 32.3045H147.026L147.713 31.6958H144.976L144.289 32.3045Z" fill="#F0F5FA"/>
<path d="M146 38.2855C145.947 38.2855 145.895 38.2844 145.841 38.282C144.913 38.2402 144.156 37.7478 143.815 36.9645C143.54 36.3301 143.537 35.3938 144.354 34.6696L145.11 34H142.477C141.663 35.038 141.477 36.3546 142.009 37.5804C142.623 38.9934 144.054 39.9184 145.742 39.9941C145.828 39.9979 145.914 39.9999 146 39.9999C148.757 39.9999 151 38.0133 151 35.5714H149.064C149.064 37.068 147.69 38.2855 146 38.2855Z" fill="#F0F5FA"/>
<path d="M146 25.7143C146.053 25.7143 146.105 25.7154 146.158 25.7178C147.087 25.7596 147.844 26.252 148.184 27.0353C148.46 27.6697 148.463 28.606 147.646 29.3302L146.889 29.9999H149.523C150.336 28.962 150.523 27.6454 149.991 26.4195C149.377 25.0066 147.946 24.0816 146.257 24.0059C146.172 24.002 146.086 24 146 24C143.243 24 141 25.9867 141 28.4285H142.935C142.935 26.9318 144.31 25.7143 146 25.7143Z" fill="#F0F5FA"/>
<path d="M150.597 32.5903H141.404V33.7145H150.597V32.5903Z" fill="#F0F5FA"/>
<path d="M150.597 30.2859H141.404V31.41H150.597V30.2859Z" fill="#F0F5FA"/>
<path d="M27.137 96.2541C29.0317 91.0904 29.7773 89.2867 33.637 91.0551C37.4966 92.8234 29.5229 101.957 29.5229 101.957L27.137 96.2541Z" fill="#F0F5FA"/>
<path d="M0.899942 81.0637C-2.62639 92.903 4.67189 107.227 14.7509 113.452L16.014 111.648C18.5755 113.036 21.2948 114.079 24.0755 114.716C27.0316 109.614 30.4439 104.769 33.6369 99.782C29.5579 98.2258 26.0404 96.9172 25.2158 92.3283C22.9702 79.9319 37.5317 82.5845 47.1107 85.5023C49.4791 75.9619 50.3562 61.0014 50.3562 61.0014C27.0228 54.9447 6.45259 62.3896 0.899942 81.0637Z" fill="#2D3C5A"/>
<path d="M25.6894 93.9995C22.3472 99.3754 19.8473 106.599 16.0139 111.648C18.5666 113.036 21.2946 114.079 24.0666 114.707C27.0227 109.605 30.435 104.76 33.628 99.7733C31.0754 98.8007 27.2859 95.6618 25.6894 93.9995Z" fill="#F0F5FA"/>
<path d="M29.9877 92.3813C26.9176 92.3813 25.593 93.2832 25.1632 95.4141C24.7246 97.545 27.1369 99.6848 27.1369 99.6848L29.9877 92.3813Z" fill="#F0F5FA"/>
<path d="M69.2422 37.2609C71.9527 43.7951 72.1281 50.7713 63.6281 53.5212C57.8386 55.3957 50.9088 52.6635 48.1983 46.1294C45.4877 39.5952 47.9965 32.3183 53.8123 29.8691C59.6281 27.4111 66.5317 30.7268 69.2422 37.2609Z" fill="#F0F5FA"/>
<path d="M64.4265 37.5438C64.9109 37.5438 65.3036 37.148 65.3036 36.6597C65.3036 36.1713 64.9109 35.7755 64.4265 35.7755C63.942 35.7755 63.5493 36.1713 63.5493 36.6597C63.5493 37.148 63.942 37.5438 64.4265 37.5438Z" fill="#2D3C5A"/>
<path d="M65.0845 28.4014C65.0845 22.5481 55.5318 29.1442 53.8125 29.8692C48.6195 30.8683 44.0932 37.6943 45.6721 43.8217C47.023 49.0384 52.9616 55.2631 56.0757 53.7423C61.2511 50.6476 62.0494 45.5193 59.6283 40.6209C60.523 39.5511 59.4967 37.986 59.909 36.7482C60.5757 34.803 65.1284 30.4704 65.0845 28.4014Z" fill="#2D3C5A"/>
<path d="M57.9001 40.1964C48.2334 39.3122 49.3562 47.1284 53.0141 48.8968C55.9615 50.3204 60.5492 49.781 62.3825 45.3601C64.2071 40.9391 57.9001 40.1964 57.9001 40.1964Z" fill="#F0F5FA"/>
<path d="M58.751 43.5388C56.9001 42.6104 54.6369 43.0348 53.3036 44.6441C52.9439 45.0773 53.5579 45.7051 53.9264 45.2718C54.9966 43.9721 56.786 43.5388 58.3124 44.2992C58.8124 44.5556 59.251 43.7952 58.751 43.5388Z" fill="#2D3C5A"/>
<path d="M69.9793 39.4272C68.9793 37.7207 67.76 36.1734 66.3302 34.8206C65.9179 34.4315 65.295 35.0593 65.7073 35.4484C67.0933 36.757 68.26 38.2336 69.2161 39.8782C69.5056 40.3645 70.2688 39.9224 69.9793 39.4272Z" fill="#2D3C5A"/>
<path d="M57.3739 61.1694C43.6721 58.1631 38.1546 64.715 33.2335 84.901C28.3125 105.087 19.5317 116.776 19.5317 116.776C19.5317 116.776 59.3915 128.129 76.2512 125.644C76.2512 125.636 86.4267 67.5444 57.3739 61.1694Z" fill="#2D3C5A"/>
<path d="M46.4791 63.4948L47.8914 56.5627L66.5318 58.6848L64.295 67.1818L46.4791 63.4948Z" fill="#2D3C5A"/>
<path d="M33.6371 81.7268C33.5581 81.7268 33.4704 81.7091 33.3915 81.6826C33.0582 81.5499 32.8915 81.1609 33.0231 80.8161L36.4091 72.3013C36.5406 71.9653 36.9266 71.7973 37.2687 71.9299C37.602 72.0626 37.7687 72.4516 37.6371 72.7965L34.2511 81.3112C34.1459 81.5676 33.9002 81.7268 33.6371 81.7268Z" fill="#F0F5FA"/>
<path d="M111.374 55.5902C113.892 51.1162 115.137 43.857 118.146 37.3936C120.681 31.9382 122.866 30.2051 124.067 32.5748C124.839 34.0956 123.251 35.7844 122.225 40.8419C122.225 40.8419 126.023 41.6289 126.278 44.308C126.278 44.308 129.594 45.1303 129.839 49.6131C129.962 51.8501 130.594 54.538 128.094 54.1136C127.594 56.3683 127.085 60.8865 126.664 64.0077C125.909 69.5869 123.234 71.2757 123.234 71.2757L111.374 55.5902Z" fill="#F0F5FA"/>
<path d="M111.699 54.9448C107.076 64.2818 104.067 67.739 98.5233 69.3659C90.1636 71.8063 70.2513 60.7627 57.839 62.8583L54.8828 88.5882C54.8828 88.5882 72.9267 100.472 93.7952 98.7563C111.874 97.2709 123.857 78.5968 126.059 69.4013C123.901 63.3004 116.673 58.3401 111.699 54.9448Z" fill="#2D3C5A"/>
<path d="M74.3302 97.0145C74.2425 97.0145 74.1548 96.9968 74.0758 96.9615C74.0495 96.9526 71.0232 95.6617 68.0495 95.6617C68.0407 95.6617 68.0407 95.6617 68.0319 95.6617C67.6723 95.6617 67.374 95.3699 67.374 94.9986C67.374 94.6272 67.6898 94.3354 68.0495 94.3354C71.2951 94.3354 74.453 95.6883 74.5933 95.7413C74.9267 95.8828 75.0846 96.2718 74.9355 96.6078C74.8302 96.8642 74.5846 97.0145 74.3302 97.0145Z" fill="#2D3C5A"/>
<path d="M121.558 41.5759L120.909 43.3177C120.707 43.8482 121.558 44.0781 121.751 43.5565C121.971 42.9729 122.181 42.3893 122.4 41.8146C122.602 41.2752 121.751 41.0454 121.558 41.5759Z" fill="#2D3C5A"/>
<path d="M129.094 49.8077C129.015 49.2507 128.172 49.4894 128.251 50.0465C128.357 50.7715 128.251 51.4877 127.997 52.1774C127.795 52.7079 128.646 52.9378 128.839 52.4161C129.146 51.5584 129.216 50.7008 129.094 49.8077Z" fill="#2D3C5A"/>
<path d="M125.743 44.8031C125.602 45.201 125.462 45.5901 125.313 45.9879C125.12 46.5273 125.971 46.7572 126.155 46.2267C126.295 45.8288 126.436 45.4397 126.585 45.0419C126.778 44.5025 125.936 44.2638 125.743 44.8031Z" fill="#2D3C5A"/>
<path d="M112.225 53.9723C111.164 46.4566 112.453 43.2117 114.936 40.0905C117.418 36.9693 118.883 41.5848 118.883 41.5848L112.225 53.9723Z" fill="#F0F5FA"/>
<path d="M116.69 40.5502C115.646 42.5927 114.953 44.7413 114.611 47.0137C114.523 47.5707 115.374 47.8094 115.453 47.2524C115.787 45.0508 116.436 42.9818 117.444 41.0012C117.708 40.4884 116.953 40.0374 116.69 40.5502Z" fill="#2D3C5A"/>
</svg>
