<svg width="110" height="18" viewBox="0 0 110 18" fill="none" xmlns="http://www.w3.org/2000/svg">
<path d="M27.9176 5.0139V17.9995H21.9618V6.64002C21.9618 6.64002 21.7238 4.99207 19.9726 4.99207H16.872V17.9995H11.0831V4.99207H5.85363V17.9995H0V0H21.7238C27.7967 0 27.9176 5.0139 27.9176 5.0139ZM49.4184 0H63.5647L57.0868 4.99207H49.4189V0H49.4184ZM33.6199 6.76897H42.2527V5.94398C42.2527 5.94398 42.2527 4.76615 40.1769 4.76615H29.1842V0H41.9954C48.6771 0 48.0422 5.85768 48.0422 5.85768V13.9649L66.0492 0H81.8969C89.0925 0 90.0002 4.12038 90.0002 9.09824C90.0002 12.6591 89.5081 17.9995 82.3092 17.9995H69.1953L69.184 4.00818L51.0749 17.9995L33.6199 17.9954C32.7539 17.9954 27.9214 18.2899 27.9214 12.1997C27.9214 6.40649 32.7539 6.76897 33.6199 6.76897V6.76897ZM75.2029 13.0074H80.2436C83.4624 13.0074 84.1422 11.9662 84.1422 9.13834C84.1422 6.30241 83.4624 4.99258 80.2436 4.99258H75.2029V13.0074ZM35.3935 13.4948H42.1506L42.1543 10.8574H35.3973C34.841 10.8574 33.7595 10.8574 33.7595 12.1423C33.7595 13.4455 34.8373 13.4948 35.3935 13.4948H35.3935ZM67.4853 13.0074V18H53.5401L59.8778 13.0074H67.4853ZM95.5618 6.76897H104.199V5.94398C104.199 5.94398 104.199 4.76615 102.119 4.76615H91.1266V0H103.942C110.615 0 109.984 5.85768 109.984 5.85768V17.9954H95.5612C94.6963 17.9954 89.8638 18.2899 89.8638 12.1997C89.8638 6.40649 94.6969 6.76897 95.5618 6.76897L95.5618 6.76897ZM97.3354 13.4948H104.089L104.097 10.8574H97.3397C96.7839 10.8574 95.6987 10.8574 95.6987 12.1423C95.6987 13.4455 96.7796 13.4948 97.3354 13.4948" fill="#0080C5"/>
</svg>
