<svg width="112" height="32" viewBox="0 0 112 32" fill="none" xmlns="http://www.w3.org/2000/svg">
<path d="M69.2452 8.55702C69.2452 8.55702 69.523 8.14221 69.7563 7.82654C70.1815 7.25258 70.9501 6.45687 71.5279 5.96379C71.7062 5.81378 71.9139 5.64225 71.9139 5.64225C71.9139 5.64225 71.5869 5.67616 71.4028 5.71399C70.9638 5.79943 70.3197 6.22533 69.9974 6.50057C69.4667 6.95191 68.8836 7.68761 69.1463 8.33983C69.1856 8.43375 69.2452 8.55702 69.2452 8.55702ZM72.1962 9.34295C73.0349 9.28686 73.8211 9.04489 74.5517 8.64247C75.2691 8.24331 76.3234 7.46455 76.2159 6.54753C76.1812 6.25208 75.9872 6.02771 75.7409 5.9227C75.4198 5.78378 75.2534 5.80856 74.8439 5.92792C74.5478 6.01532 74.4148 6.0675 74.135 6.22729C73.3107 6.70341 72.1451 7.72153 71.5116 8.53485C71.3648 8.7253 71.2167 8.93988 71.1021 9.08598C71.0274 9.17533 70.9717 9.25946 70.9782 9.28229C71.0031 9.37556 71.868 9.36643 72.1962 9.34295ZM70.0596 10.905C69.9738 10.9944 69.8827 11.2161 69.7871 11.3759C69.7366 11.4607 69.6423 11.5703 69.5807 11.6133C69.3625 11.7731 69.1784 11.7803 68.9661 11.5957C68.6713 11.3374 68.5009 10.9337 68.4885 10.5424C68.4819 10.3708 68.5101 10.1837 68.4793 10.0376C68.4249 9.79494 68.1799 9.54579 68.0488 9.31295C67.8942 9.03706 67.7691 8.56029 67.754 8.25244C67.6996 7.29106 68.2093 6.40665 68.8711 5.70747C69.5368 5.00112 70.4075 4.41412 71.3556 4.01561C72.2506 3.63863 73.5636 3.38296 74.5471 3.72276C74.8662 3.83234 75.313 4.10366 75.5371 4.38607C75.5843 4.44608 75.6236 4.5113 75.6727 4.54195C75.7153 4.56935 75.83 4.58043 75.9211 4.59674C76.2356 4.65088 76.6876 4.88698 76.8718 5.04416C77.2406 5.3631 77.4451 5.66768 77.5387 6.10924C77.7274 6.99691 77.2138 7.97198 76.6287 8.5642C75.6256 9.58623 74.6356 10.303 73.3527 10.8039C72.7905 11.0231 71.9132 11.2272 71.2737 11.1698C71.0759 11.1535 70.8708 11.102 70.6781 11.0876C70.5805 11.0792 70.2195 10.9885 70.1815 10.9598C70.1337 10.9252 70.0727 10.8926 70.0596 10.905ZM39.4729 13.5282C40.0056 13.4956 40.3358 13.4702 40.7519 13.2908C40.9818 13.1937 41.2478 12.9706 41.1168 12.7045C41.0375 12.5414 40.7558 12.4847 40.5913 12.4971C40.0338 12.5343 39.6321 12.9426 39.4415 13.4885C39.4342 13.508 39.4362 13.5282 39.4729 13.5282ZM41.8041 12.1566C42.1147 12.5434 42.2549 12.9973 42.2896 13.4956C42.3243 13.9978 42.1632 14.4811 41.8821 14.864C41.3999 15.5162 40.5953 15.8417 39.7881 15.9017C39.6773 15.9089 39.0189 15.9284 38.8498 15.8762C38.819 15.8652 38.8 15.8534 38.783 15.858C38.764 15.8599 38.6533 16.3126 38.6329 16.4704C38.5609 17.0255 38.4731 17.4181 38.4089 17.8551C38.3551 18.2021 38.3165 18.5745 38.2857 18.9449C38.1035 21.1038 38.1664 22.1702 38.346 24.2827C38.3584 24.4119 38.365 24.5586 38.346 24.6473C38.2975 24.901 38.1429 25.0778 37.8939 25.1417C37.1456 25.3374 36.4302 24.6003 36.0632 24.0107C35.2062 22.6326 35.486 19.8163 35.733 18.4251C35.8339 17.8492 36.0973 16.5702 36.2801 16.1097C36.3771 15.8619 36.5324 15.3747 36.5206 15.3512C36.5101 15.3297 36.1183 15.181 35.7592 15.0434C35.6243 14.9944 35.1715 14.7603 34.9776 14.6403C34.5786 14.3911 34.3053 14.1883 34.0295 13.8785C33.9456 13.782 33.6665 13.3691 33.6252 13.2771C33.4025 12.7723 33.3894 12.3327 33.5872 11.796C33.6377 11.6583 33.9155 11.0785 34.1003 11.0968C34.3663 11.1203 34.308 11.5585 34.3781 11.7855C34.401 11.8638 34.4757 11.9942 34.5347 12.0647C34.9029 12.4971 36.1392 12.9758 36.6457 13.1265C36.7184 13.1493 37.5106 13.3893 37.6266 13.3365C37.6573 13.3221 37.808 13.0554 37.9044 12.8943C37.9561 12.8036 38.0144 12.7365 38.078 12.668C38.5596 12.1521 39.2711 11.6636 39.9794 11.5188C40.2913 11.4561 40.9026 11.5083 41.2118 11.6838C41.2819 11.7236 41.5125 11.8142 41.8041 12.1566ZM34.3204 18.2771C34.3427 18.2784 34.3768 18.2895 34.4062 18.3019C34.7699 18.4603 34.7699 19.1067 34.6821 19.4106C34.4462 20.2103 33.6842 21.036 33.0762 21.4469C32.7132 21.6882 31.9702 22.0313 31.4388 22.1323C30.6074 22.2915 29.8709 22.0723 29.4261 21.4025C29.0238 20.7966 28.8462 20.0472 28.8141 19.3428C28.7224 17.3203 29.3632 14.3657 30.152 12.6771C30.2582 12.4508 30.7797 11.3955 31.2646 11.2253C31.7468 11.0557 31.9591 11.6185 32.0069 12.0392C32.0685 12.5806 31.8949 13.298 31.7573 13.8785C31.5148 14.894 31.1669 16.4815 31.0844 16.9368C30.9972 17.4181 30.7954 18.4486 30.8682 18.9743C30.9055 19.2534 30.9586 19.393 31.1715 19.3761C31.2685 19.3676 32.6333 18.7428 33.3782 18.4656C33.6573 18.3625 34.0046 18.251 34.3204 18.2771ZM24.2264 17.3444C24.2264 17.3444 24.3817 17.347 24.5415 17.3444C25.0506 17.3379 25.9044 17.2446 25.9044 17.2446C25.9044 17.2446 25.8087 16.4965 25.7314 16.0191C25.679 15.7001 25.637 15.5032 25.5682 15.2508C25.5368 15.1386 25.4588 14.8183 25.3769 14.6931C25.3625 14.6677 25.3415 14.6409 25.3415 14.6409C25.3415 14.6409 24.9294 15.4327 24.6988 15.9845C24.5153 16.4222 24.4236 16.7483 24.2952 17.0137C24.2644 17.0757 24.2303 17.1605 24.2264 17.2335C24.2225 17.2844 24.2264 17.3444 24.2264 17.3444ZM21.4955 17.4305C21.4955 17.4305 21.7399 16.8839 21.9299 16.4704C22.1298 16.036 23.1394 14.0174 23.5555 13.4467C24.0167 12.8088 24.8986 11.6049 24.9058 11.5683C24.9248 11.4359 24.9537 11.2005 25.0775 11.012C25.1738 10.862 25.4117 10.7987 25.6429 10.7837C25.8991 10.7687 26.1645 10.9572 26.2798 11.1672C26.5019 11.5664 26.8806 12.7025 26.9625 12.9739C27.4048 14.4864 27.8824 17.3111 28.039 18.7623C28.0796 19.1432 28.2067 21.1273 28.2166 21.574C28.2257 21.8878 28.2166 22.4082 28.0357 22.6652C27.9689 22.763 27.8405 22.8446 27.7166 22.8426C27.5496 22.8367 27.2128 22.6039 27.0654 22.4669C26.6572 22.0834 26.3853 21.6941 26.2981 21.2173C26.2234 20.8025 26.118 19.6122 26.118 19.6122L24.3384 19.6833L23.3471 19.6996C23.3471 19.6996 23.2534 19.9298 23.1768 20.1215C23.011 20.5324 22.8623 20.9433 22.7981 21.1742C22.6683 21.638 22.4187 22.5576 22.3591 22.7011C22.2339 23.0024 22.1239 23.1779 21.8297 23.217C21.5034 23.2594 21.2793 23.2829 21.0434 23.1557C20.5992 22.9131 20.3967 22.4004 20.3214 21.8715C20.189 20.9707 20.5553 20.2442 20.9314 19.1758C21.0893 18.7264 20.8718 18.5771 20.497 17.9927C20.4485 17.9177 20.3987 17.8388 20.3895 17.7788C20.3764 17.7188 20.4341 17.5629 20.516 17.4983C20.5415 17.4774 20.5488 17.4748 20.5953 17.4729L21.4955 17.4305ZM11.3334 11.5983C11.3334 11.5983 11.3104 11.0263 11.2626 10.7074C11.2226 10.4374 11.1682 10.2345 11.0392 10.0284C10.8976 9.80211 10.7895 9.65993 10.5661 9.62601C10.2922 9.58623 10.1409 9.77211 9.96988 10.0395C9.74253 10.4028 9.51583 11.0766 9.38217 11.5025C9.18888 12.1077 9.10698 12.4795 9.00346 13.1682C8.83245 14.2979 8.65948 16.2193 8.84359 17.5264C8.87766 17.7514 8.93401 18.0808 8.93401 18.0808C8.93401 18.0808 9.20788 17.7749 9.40772 17.5609C9.49289 17.4683 9.89912 16.8637 9.93515 16.8004C10.0053 16.6791 10.1933 16.3595 10.2195 16.2943C10.2595 16.2245 10.5524 15.5991 10.6035 15.4523C10.7017 15.1718 10.8446 14.7401 10.9546 14.3957C11.2121 13.6026 11.1663 13.3091 11.3334 12.4286C11.3524 12.3275 11.3687 11.5983 11.3504 11.5983C11.3425 11.5957 11.3334 11.5983 11.3334 11.5983ZM9.39003 19.9781C9.39003 19.9781 9.49814 20.1666 9.58331 20.3081C10.057 21.094 10.8138 21.544 11.7278 21.589C12.6641 21.636 13.8664 21.096 14.5524 20.6212C16.5121 19.2645 17.5433 16.8187 18.1055 14.4746C18.7679 11.7262 18.7981 8.82704 18.0085 6.16729C17.5506 4.62348 16.6595 2.69095 15.5555 1.53522C15.2266 1.19215 14.7227 0.724504 14.5792 0.532751C14.4298 0.335129 14.3938 0.168814 14.6218 0.0364132C14.8623 -0.101208 15.389 0.184465 15.6518 0.342302C16.9406 1.12171 17.7831 1.8985 18.5465 3.01445C18.7391 3.29621 19.5129 4.56348 19.6544 4.82828C20.5206 6.45557 20.9648 7.8735 21.2026 9.66971C21.5027 11.9557 21.3107 14.5516 20.5153 16.8435C20.1681 17.8492 19.6321 18.8843 19.0739 19.757C18.9415 19.9618 18.1278 21.0503 18.0275 21.1573C17.7478 21.4508 17.0565 22.0469 16.7335 22.3058C15.1178 23.5966 13.3723 24.4425 11.4565 24.209C10.403 24.0799 9.53811 23.7322 8.69421 23.0494C8.37054 22.7846 7.8241 22.2334 7.60526 21.8408C7.46308 21.589 7.28618 21.2832 7.26325 21.2792C7.23835 21.2734 7.14466 21.3366 7.04245 21.4077C6.95334 21.469 6.57398 21.6445 6.37283 21.7188C5.0585 22.2067 3.58823 22.0919 2.38069 21.3119C1.50469 20.7477 0.763662 19.6754 0.436062 18.703C-0.0468212 17.2609 -0.0854795 15.7673 0.111081 14.2333C0.447199 11.6303 1.38872 9.16424 2.79216 6.98126C3.67799 5.60572 4.82656 4.24715 6.19724 3.27273C6.35121 3.16185 7.18724 2.67791 7.35825 2.59964C7.66751 2.45485 8.07898 2.32114 8.31681 2.5742C8.44065 2.7053 8.43671 2.81161 8.34499 2.98445C8.19953 3.25251 7.82738 3.61645 7.62164 3.83429C7.44343 4.02604 6.43377 5.25809 6.22541 5.54637C5.99675 5.85422 4.96939 7.38629 4.83442 7.62174C3.53843 9.85559 2.50911 13.3945 2.6087 16.1391C2.62967 16.7059 2.71354 17.5231 2.8413 18.0553C3.01493 18.7728 3.44409 19.7439 4.08815 20.1972C4.76628 20.6759 5.39462 20.6485 6.20641 20.3277C6.42197 20.2409 6.7286 20.1033 6.7286 20.1033C6.7286 20.1033 6.49208 19.5 6.33745 19.0467C5.91222 17.7873 5.74122 15.7784 5.89781 14.3957C6.02689 13.2621 6.2811 12.394 6.79609 11.494C7.20624 10.7726 7.75858 10.065 8.44851 9.47927C9.11353 8.91444 10.1763 8.42267 11.1112 8.39788C11.8883 8.37962 12.6929 8.71616 13.1011 9.41926C13.81 10.6422 13.8552 12.5721 13.6554 13.8439C13.3553 15.7673 12.3548 17.5733 10.9114 18.7969C10.3931 19.2352 9.39003 19.9781 9.39003 19.9781ZM71.2056 12.8747C71.2442 12.8819 71.3052 12.8995 71.3569 12.9178C71.8064 13.0887 71.9912 13.5035 72.1019 13.9574C72.3587 15.014 72.4688 17.3496 72.5107 18.266C72.5422 18.9508 72.5592 19.6285 72.5881 20.3061C72.6123 20.8807 72.6582 21.6451 72.5389 22.1845C72.495 22.3782 72.3653 22.6013 72.1786 22.718C71.9643 22.8537 71.4788 22.8641 71.2121 22.8094C70.5537 22.6737 70.3394 22.2524 70.2464 21.6047C70.0229 20.0583 70.1297 17.0235 70.2621 15.7425C70.3047 15.3219 70.4659 13.9665 70.688 13.3991C70.7627 13.2061 70.9245 12.8199 71.2056 12.8747ZM50.9258 15.1953C50.9258 15.1953 49.9509 15.2638 49.2813 15.3382C48.4275 15.4288 46.8243 15.7047 45.9004 16.0354C45.622 16.1319 45.0578 16.3674 45.0087 16.6504C44.9589 16.9465 45.141 17.1755 45.3461 17.4148C45.4641 17.5525 46.1324 18.1923 46.3191 18.3482C47.1047 18.9997 48.6968 20.0074 49.8716 20.4966C50.2726 20.6629 50.9396 20.9003 50.9396 20.9003C50.9396 20.9003 50.8898 19.0108 50.8996 17.15C50.9035 16.1665 50.9258 15.1953 50.9258 15.1953ZM68.7872 15.9473C68.8436 16.4548 68.7112 17.4148 68.6896 17.5414C68.6477 17.8329 68.4262 18.5053 68.3908 18.5882C68.212 18.9958 68.037 19.333 67.8496 19.6663C67.5299 20.2389 66.7712 21.1462 66.3191 21.5343C64.6431 22.977 62.0472 23.7988 59.8195 24.0694C58.3093 24.2514 56.573 24.2234 54.971 23.9292C54.4207 23.8281 53.6017 23.6416 53.6017 23.6416C53.6017 23.6416 53.6036 23.9677 53.5768 24.1979C53.5643 24.301 53.4844 24.5775 53.4405 24.6669C53.3232 24.9062 53.1325 25.0295 52.8554 25.0817C52.5199 25.1456 52.1641 25.1645 51.8536 25.0341C51.3451 24.8195 51.1617 24.3447 51.0739 23.8007C51.0018 23.3624 50.9265 22.6013 50.9265 22.6013C50.9265 22.6013 50.5465 22.4226 50.2287 22.2647C49.2537 21.786 48.3266 21.2081 47.5175 20.6107C47.2934 20.4457 46.3289 19.6409 46.1153 19.44C45.5184 18.8784 44.9818 18.3162 44.573 17.5962C44.2552 17.0339 44.1641 16.5337 44.4053 15.9382C44.7394 15.1079 45.9352 14.4811 46.7542 14.1244C47.3563 13.8602 49.2243 13.253 50.0013 13.1408C50.3676 13.0887 50.9363 12.9882 50.971 12.9647C50.9854 12.9543 50.9959 12.9452 51.0057 12.9328C51.0234 12.9073 51.0536 12.0842 51.0477 11.7842C51.0411 11.4881 51.2678 9.54644 51.3406 9.1362C51.3799 8.91248 51.5489 8.05742 51.7219 7.83371C51.8339 7.68239 52.0338 7.69283 52.1962 7.79392C53.0867 8.34375 53.3566 10.2561 53.4228 11.2292C53.4627 11.8214 53.4824 12.713 53.4824 12.713C53.4824 12.713 54.5039 12.6836 55.1329 12.6999C55.7428 12.7149 56.4157 12.8115 57.05 12.9119C57.8618 13.0397 59.4434 13.3835 60.3502 13.842C61.0978 14.2183 61.7962 14.8542 62.0223 15.5267C62.2333 16.143 62.2012 16.5683 61.8808 17.1246C61.5211 17.7533 60.839 18.219 60.1478 18.2575C59.9414 18.2712 59.1676 18.1681 58.9297 17.9849C58.8354 17.9105 58.8406 17.7788 58.9088 17.6894C58.9343 17.6568 59.2953 17.4683 59.5096 17.3548C59.6164 17.2968 59.7055 17.2348 59.7881 17.1592C59.9663 17.002 60.1255 16.8311 60.1078 16.6315C60.0829 16.3706 59.8071 16.2095 59.5424 16.1065C58.304 15.6173 55.8313 15.2097 54.6349 15.1392C54.1671 15.1118 53.5027 15.0884 53.5027 15.0884L53.6429 21.6575C53.6429 21.6575 54.1933 21.7625 54.6264 21.833C54.876 21.8695 55.9296 21.9641 56.2094 21.9712C58.342 22.0273 60.7224 21.8382 62.6795 20.9166C63.5384 20.5142 64.3266 20.0139 64.9229 19.3363C65.7104 18.4369 66.1225 17.2094 66.0131 15.9271C65.8932 14.5235 64.9019 12.8617 64.1117 11.8488C62.021 9.17142 58.4377 6.97147 55.2862 5.68138C52.0672 4.36455 48.8868 3.60536 45.47 3.47883C44.59 3.44753 42.669 3.49188 41.6999 3.75929C41.5597 3.79777 41.4208 3.84473 41.2917 3.87212C41.1895 3.89691 41.031 3.96409 40.9864 3.99865C40.9628 4.02018 40.9373 4.04561 40.9373 4.04561C40.9373 4.04561 40.9976 4.07822 41.0546 4.10366C41.1574 4.14866 41.5905 4.1741 41.8146 4.21454C42.0138 4.25237 42.2241 4.35868 42.3053 4.50543C42.384 4.6437 42.3951 4.75262 42.3001 4.86806C42.08 5.13612 41.2518 5.08917 40.8881 5.03308C40.5094 4.97177 40.0383 4.85763 39.9512 4.52891C39.8516 4.14214 40.0344 3.7632 40.2342 3.41231C40.6352 2.71117 41.2079 2.34592 42.0492 2.1183C43.2416 1.79219 44.7479 1.56326 45.8749 1.52021C48.4256 1.42564 50.8387 1.86785 53.3088 2.61594C54.7227 3.04054 56.5756 3.75472 57.9299 4.40499C58.9009 4.87067 60.4341 5.7303 61.295 6.29186C61.5663 6.46992 63.1551 7.63152 63.4015 7.83567C63.9165 8.25439 64.5907 8.85639 65.0768 9.33838C66.0203 10.2691 67.1938 11.6949 67.7651 12.8258C67.9007 13.0984 68.0082 13.3652 68.1838 13.6789C68.2447 13.7859 68.5062 14.4303 68.5494 14.6168C68.592 14.8007 68.6549 15.0714 68.6641 15.0812C68.6772 15.181 68.7964 15.7328 68.7872 15.9473ZM79.7749 16.4248C79.8228 16.4293 79.8346 16.4313 79.8785 16.4378C80.6595 16.5435 81.4247 16.683 82.0098 16.9439C82.553 17.1839 82.8727 17.4853 83.163 18.0247C83.6052 18.8419 83.6347 19.9852 83.2351 20.8514C82.9356 21.4951 82.2804 22.0358 81.6829 22.3228C81.0598 22.6228 80.4498 22.765 79.7474 22.8446C78.5222 22.9783 77.1948 22.7265 76.0901 22.1943C75.4369 21.8767 74.6388 21.3301 74.2359 20.6251C73.9397 20.1072 73.9489 19.4361 74.3099 18.9456C74.8832 18.1642 76.1117 17.992 77.0388 18.0247C77.7451 18.0507 79.0149 18.2692 79.6865 18.5053C79.8732 18.5725 80.5579 18.8386 80.6772 18.9586C80.761 19.0447 80.8167 19.1667 80.7787 19.2821C80.6241 19.7485 79.4873 19.9944 79.1591 20.0433C78.2778 20.177 77.8218 19.8463 76.8213 19.453C76.573 19.3565 76.2421 19.2495 75.9879 19.2261C75.5345 19.183 74.9861 19.3076 74.9003 19.8026C74.8557 20.0576 75.1558 20.295 75.3844 20.3935C75.9211 20.6251 76.3574 20.7066 76.8868 20.7151C78.4455 20.7386 80.1982 20.4835 81.4752 19.5835C81.6514 19.4602 81.8218 19.2776 81.8244 19.0486C81.8244 19.0193 81.7825 18.7728 81.7026 18.7473C81.6908 18.7421 81.6783 18.748 81.6691 18.746C81.6396 18.7375 81.5905 18.6573 81.5492 18.6045C81.4575 18.493 81.0873 18.3345 81.0146 18.3038C80.155 17.947 78.5668 17.7736 77.7471 17.7064C76.8888 17.6333 75.5384 17.5198 75.2134 17.4729C74.8799 17.4259 74.517 17.36 74.2267 17.2303C73.9378 17.0998 73.6534 16.8076 73.5682 16.4848C73.4188 15.9017 73.6108 15.1855 73.9358 14.7186C74.7889 13.4976 76.7846 13.0352 78.2778 12.8512C79.7225 12.6719 82.0577 12.6738 83.4762 13.4245C83.6957 13.5406 83.8084 13.6496 83.7612 13.8831C83.6695 14.3207 83.3366 14.6025 82.9376 14.7264C82.5183 14.8594 81.6488 14.911 81.2675 14.9344C79.5568 15.0303 77.4896 14.9801 75.8614 15.423C75.7337 15.4595 75.5135 15.5162 75.4408 15.5971C75.1859 15.8723 75.9145 15.9506 76.0711 15.9845C76.117 15.9936 76.1268 15.9956 76.1746 16.0002L79.7749 16.4248ZM85.1116 22.7937C84.421 22.5413 84.2644 21.4312 84.2323 20.8696C84.1229 19.0415 84.6084 16.4978 85.2249 14.7844C85.4012 14.2966 85.6547 13.4996 86.2031 13.5446C86.5805 13.5778 86.8498 13.8674 87.0614 14.1648C87.6026 14.9247 88.3142 15.9545 88.7859 16.6713C89.3134 17.4748 89.8198 18.2842 90.3178 19.0167C90.3787 19.1054 90.4364 19.1915 90.5032 19.2463C90.5936 19.3187 90.6749 19.3226 90.7116 19.2554C90.7286 19.2293 90.6958 18.3058 90.6729 18.1205C90.6342 17.8257 90.6165 17.587 90.5831 17.3327C90.4914 16.5937 90.2549 15.554 90.0695 14.851C89.865 14.0644 89.6154 13.2445 89.4287 12.4834C89.369 12.2362 89.3134 11.9864 89.3153 11.7509C89.3173 11.4105 89.5368 11.222 89.8932 11.3492C90.5956 11.5957 91.5266 13.1134 91.7979 13.6404C91.8903 13.8185 92.2559 14.7238 92.3378 14.9775C92.6293 15.8469 92.8056 16.6713 92.8862 17.619C92.9635 18.5399 92.8986 19.8815 92.5075 20.7894C92.364 21.1234 92.0691 21.5727 91.8241 21.7991C91.4395 22.1539 90.6729 22.4311 90.1448 22.131C89.5669 21.8049 88.6175 20.1679 88.4557 19.8881C87.9047 18.9306 86.9566 17.0581 86.8098 16.8481C86.7777 16.8017 86.7358 16.7574 86.6624 16.7352C86.6067 16.7189 86.5844 16.8344 86.57 16.9094C86.4757 17.4546 86.4108 20.0048 86.4095 20.0759C86.3938 20.5051 86.3728 21.5577 86.2483 22.0763C86.1671 22.4148 86.0845 22.6926 85.772 22.8348C85.5499 22.9346 85.3808 22.8928 85.1116 22.7937ZM94.6316 22.6306C94.5569 22.5739 94.4364 22.4513 94.3486 22.3528C94.3348 22.3391 94.0865 21.9686 94.0374 21.8545C93.9941 21.756 93.9613 21.6849 93.9299 21.6027C93.7039 21.0216 93.7097 20.4496 93.8349 19.8254C93.9509 19.243 94.0609 19.2176 94.361 18.4179C94.38 18.3742 94.3892 18.3364 94.3957 18.2882C94.4082 18.1786 94.23 17.4416 94.2195 17.2048C94.2071 16.8435 94.4888 16.5872 94.9605 16.5376C95.0038 16.5337 95.0359 16.5343 95.0673 16.5252C95.2554 16.4795 95.3759 16.1208 95.4788 15.8332C95.6223 15.4288 95.8464 14.8125 95.8464 14.8125C95.8464 14.8125 95.2501 14.6755 94.931 14.5555C94.5746 14.4218 94.3053 14.249 94.1441 13.9235C93.9509 13.5426 94.078 13.3313 94.4776 13.208C94.6244 13.1611 95.7815 12.9399 96.1471 12.8884C96.6031 12.8219 97.0323 12.7652 97.466 12.7117C97.8434 12.666 99.5745 12.4664 100.125 12.4808C100.965 12.5049 101.511 12.8493 102.001 13.5569C102.265 13.9346 102.446 14.3833 102.047 14.6266C101.435 14.9964 99.4526 15.0244 99.089 15.0284C98.5104 15.0342 97.7104 15.0244 97.7104 15.0244L97.3068 16.3674C97.3068 16.3674 98.7273 16.3524 99.5253 16.3491C99.7193 16.3491 99.9132 16.3595 100.022 16.3824C100.429 16.4724 100.57 16.7841 100.587 17.2335C100.609 17.7592 100.509 18.0012 100.089 18.0716C99.8713 18.1062 97.4313 18.1205 97.1004 18.159C96.894 18.1812 96.6758 18.2138 96.6758 18.2138C96.6758 18.2138 96.4996 18.6717 96.3463 19.1341C96.1917 19.6161 96.0593 20.1072 96.0593 20.1072C96.0593 20.1072 96.1831 20.1124 96.286 20.1124C96.4577 20.1137 96.632 20.0889 96.7682 20.0655C97.5125 19.9298 98.6192 19.7667 99.5273 19.6246C100.015 19.5469 100.261 19.5124 100.518 19.8346C100.74 20.1196 100.855 20.3583 100.871 20.7027C100.885 21.0268 100.637 21.2414 100.333 21.4723C99.3733 22.2028 97.7327 22.9946 96.5101 23.1302C95.9453 23.1935 95.8077 23.1309 95.313 23.0024C95.2187 22.9783 94.8767 22.8191 94.8799 22.8022C94.8799 22.8022 94.6945 22.6796 94.6316 22.6306ZM110.058 15.8815C109.429 16.4058 108.616 17.4748 108.228 18.0299C107.71 18.7656 107.223 19.6083 106.756 20.2611C106.656 20.4079 106.355 20.9329 106.366 20.9505C106.387 20.9877 106.689 20.976 107 20.9238C107.663 20.8129 108.564 20.3498 109.045 19.9676C109.778 19.3826 110.288 18.579 110.529 17.6392C110.636 17.212 110.691 16.3165 110.387 15.918C110.327 15.8417 110.175 15.7817 110.058 15.8815ZM105.062 23.5594C105.062 23.5594 104.863 24.1412 104.717 24.5977C104.465 25.3856 103.91 27.5073 103.781 28.1667C103.588 29.145 103.038 31.7089 103.01 31.7637C102.971 31.838 102.945 31.8615 102.852 31.9209C102.626 32.0533 102.535 32.0096 102.26 31.8635C101.904 31.6769 101.59 31.4865 101.323 31.1349C100.786 30.4403 100.914 29.1333 101.019 28.3663C101.388 25.6837 101.761 24.5038 102.786 21.8336C102.803 21.788 102.803 21.7775 102.782 21.7371C102.463 21.0594 102.29 20.2409 102.29 19.5796C102.293 17.4866 103.501 15.4158 104.856 13.7526C104.958 13.6261 105.623 12.833 105.925 12.8486C106.228 12.863 106.277 13.2145 106.232 13.508C106.08 14.4746 105.397 15.4595 104.929 16.2748C104.404 17.1859 104.29 17.5609 104.033 18.3964C103.992 18.5269 103.889 19.1373 103.894 19.2156C103.904 19.44 103.953 19.723 103.953 19.723C103.953 19.723 104.808 18.5321 105.372 17.797C105.68 17.3933 105.901 17.1266 106.158 16.8389C106.418 16.5467 107.42 15.5103 107.708 15.2371C108.314 14.6612 108.583 14.4218 109.238 14.0833C109.758 13.8159 110.224 13.7494 110.731 14.0826C111.534 14.6077 111.884 15.7184 111.974 16.6191C112.08 17.6953 111.859 18.9058 111.382 19.8274C110.816 20.927 110.044 21.7188 108.994 22.4115C107.92 23.1198 106.66 23.6018 105.424 23.5731C105.257 23.5692 105.062 23.5594 105.062 23.5594Z" fill="#231F20"/>
</svg>
