<svg width="32" height="32" viewBox="0 0 32 32" fill="none" xmlns="http://www.w3.org/2000/svg">
<g clip-path="url(#clip0)">
<path d="M15.3775 0.271054L0.266378 15.3821C-0.0964746 15.745 -0.0964745 16.3333 0.266378 16.6961L6.91854 23.3483C7.28139 23.7111 7.86969 23.7111 8.23255 23.3483L23.3436 8.23721C23.7065 7.87436 23.7065 7.28606 23.3436 6.92321L16.6915 0.271055C16.3286 -0.0917977 15.7403 -0.0917981 15.3775 0.271054Z" fill="#DE2939"/>
<path d="M6.02014 17.3531C6.74585 16.6274 6.74585 15.4508 6.02014 14.7251C5.29444 13.9994 4.11784 13.9994 3.39213 14.7251C2.66643 15.4508 2.66643 16.6274 3.39213 17.3531C4.11784 18.0788 5.29444 18.0788 6.02014 17.3531Z" fill="white"/>
<path d="M11.8014 17.3923C12.5271 16.6665 12.5271 15.4899 11.8014 14.7642C11.0757 14.0385 9.89909 14.0385 9.17338 14.7642C8.44768 15.4899 8.44768 16.6665 9.17338 17.3923C9.89909 18.118 11.0757 18.118 11.8014 17.3923Z" fill="white"/>
<path d="M17.3951 8.85313C18.1209 8.12742 18.1209 6.95082 17.3951 6.22512C16.6694 5.49941 15.4928 5.49941 14.7671 6.22512C14.0414 6.95082 14.0414 8.12742 14.7671 8.85313C15.4928 9.57884 16.6694 9.57884 17.3951 8.85313Z" fill="white"/>
<path d="M8.32088 7.33537L7.82812 7.82812L15.7943 15.7943L16.287 15.3015L8.32088 7.33537Z" fill="white"/>
<path d="M23.7524 8.6461L8.64138 23.7572C8.27853 24.12 8.27853 24.7083 8.64138 25.0712L15.2935 31.7234C15.6564 32.0862 16.2447 32.0862 16.6075 31.7234L31.7186 16.6123C32.0815 16.2494 32.0815 15.6611 31.7186 15.2983L25.0665 8.6461C24.7036 8.28324 24.1153 8.28324 23.7524 8.6461Z" fill="#007BAD"/>
<path fill-rule="evenodd" clip-rule="evenodd" d="M12.4176 27.2068L9.54325 24.3324L10.5288 23.3469C11.9249 22.2793 14.3886 24.7431 13.4031 26.2213L12.4176 27.2068ZM10.9394 24.2503L12.4176 25.7286C12.9104 25.0716 11.5964 23.7576 10.9394 24.2503ZM13.321 22.1151C14.4708 20.9653 16.565 23.0595 15.4152 24.2092C14.2655 25.359 12.1713 23.2648 13.321 22.1151ZM13.8548 22.6489C14.1423 22.3614 15.1688 23.388 14.8814 23.6754C14.594 23.9629 13.5674 22.9363 13.8548 22.6489ZM14.5529 21.1295L15.292 20.3904L15.5384 20.6368C15.5045 20.5007 15.5063 20.3581 15.5438 20.2229C15.5813 20.0877 15.6532 19.9645 15.7524 19.8653C15.8516 19.7661 15.9748 19.6942 16.11 19.6567C16.2452 19.6192 16.3878 19.6174 16.5239 19.6513C16.49 19.5152 16.4918 19.3726 16.5293 19.2374C16.5668 19.1022 16.6387 18.979 16.7379 18.8798C16.8371 18.7806 16.9603 18.7087 17.0955 18.6712C17.2307 18.6337 17.3733 18.6319 17.5094 18.6658L19.234 20.3904L18.536 21.0885L17.3041 19.8566C17.2514 19.8323 17.1985 19.821 17.1508 19.8239C17.1032 19.8269 17.0626 19.8439 17.0333 19.8732C17.0039 19.9026 16.9869 19.9432 16.984 19.9908C16.9811 20.0384 16.9924 20.0913 17.0167 20.144L18.2485 21.3759L17.5094 22.1151L16.2775 20.8832C16.2248 20.8589 16.1719 20.8476 16.1243 20.8505C16.0766 20.8534 16.0361 20.8704 16.0067 20.8998C15.9774 20.9291 15.9604 20.9697 15.9574 21.0173C15.9545 21.065 15.9658 21.1179 15.9901 21.1706L17.222 22.4025L16.5239 23.1006L14.5529 21.1295ZM17.5915 18.0909L18.3307 17.3518L20.3017 19.3228L19.5625 20.0619L17.5915 18.0909ZM16.8113 16.5716C16.6984 16.685 16.635 16.8386 16.6353 16.9987C16.6355 17.1588 16.6993 17.3122 16.8126 17.4253C16.9259 17.5384 17.0794 17.6018 17.2395 17.6018C17.3996 17.6017 17.5531 17.5381 17.6663 17.4249C17.7795 17.3117 17.8431 17.1582 17.8432 16.9981C17.8432 16.838 17.7798 16.6845 17.6667 16.5712C17.5536 16.4579 17.4002 16.3941 17.2401 16.3939C17.08 16.3936 16.9264 16.457 16.813 16.5699L16.8113 16.5716ZM18.6592 17.0233L19.3572 16.3252L19.6857 16.6537C19.6295 16.503 19.6246 16.3379 19.6716 16.1841C19.7187 16.0302 19.8151 15.8962 19.946 15.8027C20.077 15.7092 20.235 15.6614 20.3958 15.6668C20.5566 15.6722 20.7111 15.7304 20.8355 15.8325L22.3138 17.3107L21.6157 18.0088L20.3838 16.7769C20.3311 16.7526 20.2782 16.7413 20.2305 16.7442C20.1829 16.7472 20.1423 16.7642 20.113 16.7935C20.0836 16.8229 20.0666 16.8635 20.0637 16.9111C20.0608 16.9587 20.0721 17.0116 20.0964 17.0643L21.3282 18.2962L20.6302 18.9943L18.6592 17.0233ZM21.3693 14.0668C22.5191 12.917 24.6133 15.0112 23.4635 16.161C22.3138 17.3107 20.2196 15.2165 21.3693 14.0668ZM21.9031 14.6006C22.1906 14.3131 23.2171 15.3397 22.9297 15.6271C22.6423 15.9146 21.6157 14.888 21.9031 14.6006ZM21.9442 11.9315L22.6833 11.1924L23.4635 12.9581L22.9297 13.4919L21.9442 11.9315ZM24.9828 11.6851C23.9152 12.0958 24.4901 12.5064 25.065 12.0958C25.8862 11.7673 26.8717 12.7528 25.9683 13.6561C25.6672 13.9025 25.3524 14.0531 25.0239 14.1078L24.8596 13.4508C25.8862 13.0813 25.3935 12.5885 24.5722 13.0813C23.5867 13.4098 22.7654 11.603 24.7364 10.946L24.9828 11.6851ZM16.8524 29.9991L16.0312 30.8203L13.0746 27.8638L13.8959 27.0426C14.1573 26.7812 14.5118 26.6344 14.8814 26.6344C15.251 26.6344 15.6055 26.7812 15.8669 27.0426C16.1283 27.3039 16.2751 27.6584 16.2751 28.0281C16.2751 28.3977 16.1283 28.7522 15.8669 29.0136L16.8524 29.9991ZM14.4708 27.6175C14.5846 27.5036 14.7348 27.4356 14.8885 27.4283C15.0421 27.421 15.1865 27.475 15.29 27.5784C15.3934 27.6819 15.4474 27.8263 15.4401 27.98C15.4328 28.1336 15.3648 28.2838 15.251 28.3976L14.4708 27.6175ZM16.0722 26.673L16.8113 25.9339L18.8645 27.987L18.1254 28.7261L16.0722 26.673ZM15.407 25.2687C15.294 25.3821 15.2307 25.5357 15.2309 25.6958C15.2312 25.8558 15.2949 26.0093 15.4082 26.1224C15.5215 26.2354 15.6751 26.2989 15.8352 26.2988C15.9952 26.2988 16.1487 26.2351 16.2619 26.1219C16.3751 26.0088 16.4387 25.8553 16.4388 25.6952C16.4389 25.5351 16.3754 25.3816 16.2623 25.2683C16.1493 25.155 15.9958 25.0912 15.8357 25.091C15.6757 25.0907 15.5221 25.154 15.4086 25.267L15.407 25.2687ZM17.0988 25.6464L18.6592 24.0861L19.4394 26.1803L20.0553 25.5643L20.6712 26.1803L19.0698 27.7817L18.2485 25.6464L17.6737 26.2213L17.0988 25.6464ZM18.9466 23.7986L20.507 22.2382L21.2872 24.3324L21.9031 23.7165L22.5191 24.3324L20.8766 25.9749L20.0964 23.7986L19.4804 24.4146L18.9466 23.7986ZM23.4635 22.731C23.5137 22.966 23.4931 23.1795 23.4042 23.3448C23.3154 23.5101 23.1622 23.6198 22.964 23.6602C22.7658 23.7005 22.5314 23.6697 22.2901 23.5716C22.0487 23.4735 21.8113 23.3124 21.6076 23.1087C21.4038 22.9049 21.2428 22.6675 21.1447 22.4262C21.0466 22.1849 21.0157 21.9504 21.0561 21.7522C21.0964 21.554 21.2061 21.4009 21.3714 21.312C21.5367 21.2232 21.7502 21.2025 21.9852 21.2527L21.7389 21.0064L22.5191 20.2262L24.5722 22.2793L23.792 23.0595L23.4635 22.731ZM22.9708 22.2382C23.019 22.3279 23.0411 22.4076 23.0339 22.4662C23.0267 22.5248 22.9905 22.5593 22.9306 22.5648C22.8706 22.5702 22.7899 22.5464 22.6998 22.4966C22.6098 22.4468 22.5149 22.3737 22.4287 22.2875C22.3425 22.2013 22.2694 22.1065 22.2196 22.0164C22.1699 21.9263 22.146 21.8456 22.1515 21.7856C22.1569 21.7257 22.1914 21.6895 22.25 21.6823C22.3086 21.6751 22.3884 21.6972 22.478 21.7455L22.9708 22.2382Z" fill="white"/>
</g>
<defs>
<clipPath id="clip0">
<rect width="32" height="32" fill="white"/>
</clipPath>
</defs>
</svg>
