<svg width="32" height="32" viewBox="0 0 32 32" fill="none" xmlns="http://www.w3.org/2000/svg">
<g clip-path="url(#clip0)">
<path d="M24.0933 4.50173C24.17 4.31732 24.0165 4.14376 24.0165 4.14376C24.0165 4.14376 22.8102 2.12613 18.5662 1.67054C16.2852 1.4319 13.1927 1.88749 11.0213 3.04817C7.0734 5.14173 6.48122 8.60207 6.48122 8.60207C6.45928 8.68885 6.42639 8.94918 6.51412 9.05766C6.60185 9.16613 6.73345 9.16613 6.89794 9.1119C8.29068 8.64546 12.425 7.28952 15.035 6.60613C18.7526 5.62986 21.8123 5.03325 23.7643 4.70783C23.9178 4.67529 24.0384 4.6319 24.0933 4.50173Z" fill="#FAAF18"/>
<path d="M28.3374 20.7946C26.1113 25.741 21.8453 29.1797 16.2415 29.2556C12.1729 29.3098 8.57596 27.9322 5.97692 25.5241L4.40872 26.1858V23.7776C2.69796 21.4997 1.70002 18.6034 1.70002 15.3275C1.70002 6.92068 8.2031 0.303728 17.2833 0.303728C18.7638 0.303728 20.1017 0.531525 21.1106 0.759322C19.5533 0.271186 18.0071 0 16.2854 0C6.54717 0 -0.0107422 7.81017 -0.0107422 15.8698C-0.0107422 24.6454 6.95293 32 16.088 32C24.8172 32 29.5218 25.9146 31.0352 22.2481L28.3374 20.7946Z" fill="#185494"/>
<path d="M26.0784 19.059C27.3615 18.918 28.2498 18.4081 28.7323 17.9309C29.1709 17.497 29.2806 16.9112 29.2806 16.4664C29.3025 15.8156 29.2806 13.7763 29.2806 13.7763L25.892 14.5031C25.892 14.5031 25.892 14.7526 25.892 15.2841C25.903 15.8048 26.1552 16.0868 26.7035 15.9892C26.879 15.9566 27.1422 15.8807 27.1422 15.8807V16.5207C27.1422 16.499 27.197 16.8787 26.3416 17.0414C25.223 17.2149 24.7186 16.5315 24.7076 15.3275C24.7295 14.0366 25.4643 13.299 26.3635 13.0929C27.3724 12.8651 27.9427 13.1037 28.2717 13.1471C29.3903 13.3098 29.7083 11.6502 28.6884 11.2597C27.9317 10.9559 26.9557 10.9017 26.0236 11.0861C24.7734 11.3356 22.3279 12.3661 22.3169 15.718C22.306 18.3864 24.2909 19.2542 26.0784 19.059Z" fill="#ED1D21"/>
<path d="M15.0571 21.912C15.0571 21.912 16.0989 21.554 16.1867 21.5323C17.0201 21.2503 17.3272 20.7513 17.3272 19.9052C17.3162 18.9832 17.3162 17.1825 17.3162 17.1825L19.7398 19.9377C20.1346 20.3391 20.6281 20.3716 21.0777 20.2415C21.5383 20.1113 21.9331 19.6882 21.944 19.0916C21.944 17.1065 21.944 12.2469 21.944 12.2469C21.944 12.2469 21.3189 12.3771 20.8035 12.5181C20.2113 12.6808 19.7508 13.0604 19.7508 14.0584C19.7508 14.4055 19.7508 16.434 19.7508 16.434C19.7508 16.434 18.369 14.731 17.4807 13.8523C17.0091 13.3859 16.2196 13.6679 16.2196 13.6679L15.0571 14.015V21.912Z" fill="#EE1C23"/>
<path d="M14.3223 14.1884C14.3223 14.1884 13.5985 14.3945 13.0063 14.6115C12.2387 14.8827 11.7891 15.3274 11.7891 16.4772C11.7891 17.5403 11.7891 23.0399 11.7891 23.0399C11.7891 23.0399 12.458 22.8122 13.0941 22.5735C13.9823 22.2372 14.3223 21.7816 14.3223 20.8596C14.3223 20.0677 14.3223 14.1884 14.3223 14.1884Z" fill="#ED1C23"/>
<path d="M10.714 15.7505C10.0451 15.4467 9.4748 15.783 9.23354 16.1518L7.18282 19.6122V16.8244L4.74827 17.8115L4.7373 25.6867L6.44807 24.9817C6.44807 24.9817 6.78803 24.884 6.98542 24.5694C7.17185 24.2766 7.16088 23.7993 7.16088 23.7993V21.3044L9.06904 23.3111C9.48577 23.745 10.2534 23.962 10.9333 23.4196C11.5475 22.9315 11.4488 22.0962 11.1088 21.7166L9.3761 19.9918C9.3761 19.9918 10.9004 17.6054 11.1527 17.2149C11.4817 16.6725 11.3172 16.0217 10.714 15.7505Z" fill="#EE1D23"/>
<path d="M9.76033 25.0142C9.6726 25.2203 9.88096 25.4264 9.88096 25.4264C10.7583 26.522 14.6733 27.9104 18.9282 26.8908C25.4204 25.3396 26.7912 20.7945 26.9447 20.1545C26.9776 20.0243 26.9995 19.8182 26.8789 19.6881C26.7802 19.5796 26.6267 19.5796 26.4293 19.623C21.9111 20.6752 14.4211 22.9423 10.0893 24.7755C9.90289 24.8515 9.82613 24.884 9.76033 25.0142Z" fill="#FAAF18"/>
<path d="M5.91115 14.6874C5.90018 14.2535 5.56022 14.0149 4.979 14.3078V15.7071C4.979 15.7071 5.16543 15.6203 5.30799 15.5552C5.65892 15.3925 5.92211 15.1105 5.91115 14.6874ZM4.96803 13.4183C5.0777 13.3749 5.15446 13.3424 5.2422 13.299C5.56022 13.1471 5.79052 12.8542 5.79052 12.4854C5.79052 12.0624 5.43959 11.9539 4.96803 12.1925C4.96803 12.2034 4.96803 13.4183 4.96803 13.4183ZM7.46838 14.4813C7.49031 15.5878 6.68976 16.1735 5.63699 16.5966L3.49854 17.4969V11.7586C3.49854 11.7586 4.8474 11.2163 5.28606 11.0535C6.53623 10.5979 7.27098 11.1512 7.27098 11.9756C7.27098 12.5288 7.02972 12.9952 6.5143 13.4074C7.01875 13.4942 7.45741 13.9064 7.46838 14.4813Z" fill="#EE1C23"/>
<path d="M11.5254 9.64336C11.5254 9.15523 11.1855 9.03591 10.7797 9.14438C10.4507 9.24201 10.0669 9.38303 10.0669 9.38303V12.9518C10.0669 13.3098 10.0121 13.7545 9.56244 13.863C9.22248 13.9498 9.05798 13.722 9.05798 13.364V10.4461C9.05798 9.95794 8.71803 9.81692 8.31227 9.94709C7.85168 10.099 7.58849 10.2074 7.58849 10.2074C7.58849 10.2074 7.58849 12.7349 7.58849 13.7437C7.57752 14.9261 8.41097 15.5227 9.66114 15.1539C10.7687 14.8284 11.5145 14.2101 11.5254 12.6373V9.64336Z" fill="#ED1D1F"/>
<path d="M23.4348 11.1186C23.7528 11.0535 23.9502 10.8257 23.9502 10.4352C23.9502 10.0881 23.9502 9.81688 23.9502 9.81688L22.2175 10.1965V9.18773C22.2175 9.18773 23.0729 9.01417 23.3032 8.95993C23.5993 8.89485 23.7528 8.73214 23.7528 8.39587C23.7528 8.08129 23.7528 7.8101 23.7528 7.8101L22.2175 8.13553V7.33281C22.2175 7.33281 23.0181 7.1701 23.4458 7.08332C23.7857 7.01824 23.8954 6.79044 23.8954 6.47587C23.8954 6.26976 23.8954 5.86841 23.8954 5.86841C23.1278 5.99858 21.6692 6.29146 20.759 6.49756L20.748 11.726C20.748 11.726 22.4807 11.3247 23.4348 11.1186Z" fill="#EE1C23"/>
<path d="M13.39 10.9017C13.39 10.9017 14.2453 10.4569 14.2453 9.76271C14.2344 9.1661 13.686 9.29627 13.4009 9.40474L13.39 10.9017ZM13.4009 11.7153C13.4009 11.7153 13.4009 12.7132 13.4009 13.1254C13.4009 13.5051 13.1377 13.7763 12.8087 13.9064C12.8087 13.9173 12.8087 13.8956 12.8087 13.9064C12.5346 14.0041 11.9424 14.1993 11.9424 14.1993V8.80813C11.9424 8.80813 13.1597 8.38508 13.8725 8.22237C14.9691 7.96203 15.7587 8.46102 15.7477 9.35051C15.7368 10.1966 15.2652 10.7064 14.8375 11.0644L15.7806 11.9539C16.0658 12.2359 16.0877 12.7349 15.7697 13.0386C15.5723 13.223 15.0569 13.4075 14.6621 12.9953C14.6511 12.9953 13.4009 11.7153 13.4009 11.7153Z" fill="#EE1D23"/>
<path d="M25.6947 8.00535C25.6947 8.00535 26.5391 7.69078 26.5281 7.01823C26.5172 6.45417 25.9579 6.55179 25.6837 6.61688L25.6947 8.00535ZM24.269 10.9559V5.79247C24.269 5.79247 25.7934 5.52128 26.1882 5.47789C27.2848 5.33688 28.0196 5.94433 27.9976 6.79044C27.9867 7.53891 27.5151 7.9945 27.1094 8.26569C27.1094 8.26569 27.8551 9.0901 28.0525 9.31789C28.3157 9.61077 28.3047 10.1206 27.9099 10.3701C27.5261 10.6087 27.1313 10.4894 26.912 10.2399L25.6947 8.80806C25.6947 8.80806 25.6947 9.68671 25.6947 10.0664C25.6947 10.446 25.4644 10.7281 25.0696 10.804L24.269 10.9559Z" fill="#EE1D23"/>
<path d="M20.4089 8.7865L18.2485 9.27463C18.2485 9.27463 18.2485 9.50243 18.2485 9.87124C18.2485 10.1533 18.4459 10.3268 18.731 10.2726C18.9065 10.2401 19.049 10.2075 19.049 10.2075V10.8041C19.049 11.0428 18.6981 11.1946 18.3253 11.1838C17.7989 11.1621 17.5137 10.7607 17.5028 10.0014C17.5137 9.00345 17.9963 8.41768 18.6433 8.25497C18.9613 8.16819 19.2574 8.21158 19.4877 8.24412C20.047 8.3309 20.365 8.07057 20.376 7.61497C20.3869 7.12684 19.9483 6.82311 19.0161 6.85565C16.9764 6.92074 15.9346 8.37429 15.9346 10.099C15.9346 11.8672 17.108 12.6482 18.5336 12.3987C19.3342 12.236 19.7399 11.9756 20.0141 11.737C20.2882 11.4984 20.4089 11.1404 20.4089 10.8258V8.7865Z" fill="#EE1D23"/>
<path d="M11.8873 3.00476C9.4966 4.04612 7.88454 6.53018 7.79681 7.57154C7.76391 7.98374 8.32319 8.04883 8.37803 7.60408C8.88248 5.69493 10.4178 3.89425 11.8873 3.00476Z" fill="white"/>
<path d="M19.7942 4.78377C21.0772 4.4692 21.7901 4.42581 21.801 3.85089C21.8229 2.89632 19.0814 1.78988 16.5591 1.99598C19.1252 2.16954 20.6605 3.14581 20.6605 3.81835C20.6715 4.25225 20.2877 4.63191 19.7942 4.78377Z" fill="white"/>
<path d="M20.584 25.8278C22.5141 25.0794 24.3674 23.6366 25.3982 21.4888C25.6943 20.8705 24.839 20.5451 24.5977 21.2827C23.9945 22.8122 22.7663 24.6021 20.584 25.8278Z" fill="white"/>
<path d="M30.3111 19.3736H30.5743C30.7168 19.3736 30.9032 19.3953 30.9032 19.5689C30.9032 19.7641 30.7717 19.7858 30.5962 19.7858H30.322L30.3111 19.3736ZM29.993 20.6862H30.3001V20.0245H30.4975L30.8813 20.6862H31.2103L30.7936 20.0028C31.0239 19.9811 31.2103 19.8726 31.2103 19.5906C31.2103 19.2543 30.991 19.1241 30.5962 19.1241H29.993V20.6862ZM29.1157 19.9051C29.1157 20.7512 29.7956 21.3045 30.5633 21.3045C31.3309 21.3045 32.0109 20.7621 32.0109 19.9051C32.0109 19.059 31.3309 18.5167 30.5633 18.5167C29.7956 18.5167 29.1157 19.059 29.1157 19.9051ZM29.4995 19.9051C29.4995 19.276 29.9711 18.8095 30.5633 18.8095C31.1445 18.8095 31.627 19.2651 31.627 19.9051C31.627 20.5451 31.1445 21.0007 30.5633 21.0007C29.9711 21.0116 29.4995 20.5451 29.4995 19.9051Z" fill="#EE1D23"/>
</g>
<defs>
<clipPath id="clip0">
<rect width="32" height="32" fill="white"/>
</clipPath>
</defs>
</svg>
