<svg width="128" height="32" viewBox="0 0 128 32" fill="none" xmlns="http://www.w3.org/2000/svg">
<path d="M0.640137 6.99127C0.640137 6.99127 3.79116 19.927 4.29405 22.0267C4.88102 24.4774 5.93862 25.3794 8.9879 24.7711L10.9555 16.751C11.4542 14.7589 11.7886 13.3386 12.1092 11.3121H12.1656C12.3908 13.3585 12.7116 14.7648 13.1219 16.758C13.1219 16.758 13.9229 20.3989 14.333 22.3112C14.7443 24.2229 15.8888 25.4277 18.8756 24.7718L23.5638 6.99263H19.7786L18.1781 14.6794C17.7477 16.9169 17.3573 18.6652 17.0562 20.7121H17.0028C16.7292 18.6856 16.3812 17.0066 15.9437 14.8266L14.2771 6.99263H10.3333L8.55066 14.6292C8.04563 16.9497 7.57327 18.8236 7.27289 20.8011H7.21849C6.91088 18.9388 6.50116 16.5837 6.05749 14.3374C6.05749 14.3374 4.99839 8.87536 4.6268 6.99263L0.640505 6.99314L0.640137 6.99127ZM36.7242 6.99127V24.7704H40.328V20.9951V6.99042H36.7242V6.99127ZM87.4806 6.99127V20.1072C87.4806 21.9156 87.8203 23.1826 88.547 23.9566C89.182 24.6335 90.2278 25.0719 91.481 25.0719C92.5465 25.0719 93.5948 24.8694 94.0889 24.685L94.0424 21.8636C93.6748 21.9542 93.2519 22.0268 92.6734 22.0268C91.4458 22.0268 91.0341 21.2391 91.0341 19.6154V14.5973H94.1727V11.1956H91.0341V6.99132H87.4804L87.4806 6.99127ZM28.6704 11.1129C26.4307 11.1129 24.6528 11.7429 23.6837 12.3039L24.393 14.7369C25.2799 14.1767 26.6921 13.713 28.0292 13.713C30.2431 13.7073 30.605 14.9671 30.605 15.7751V15.9662C25.781 15.9589 22.734 17.6312 22.734 21.0401C22.734 23.1214 24.2851 25.0718 26.9823 25.0718C28.6427 25.0718 30.0313 24.4084 30.8635 23.3455H30.9451C30.9451 23.3455 31.4962 25.6539 34.5323 24.7711C34.3728 23.8104 34.321 22.786 34.321 21.5522V16.8026C34.321 13.7754 33.0308 11.1129 28.6704 11.1129L28.6704 11.1129ZM50.2281 11.1129C47.9729 11.1129 46.9595 12.2578 46.345 13.2292H46.2916V11.4144H42.8524V24.7713H46.4754V16.938C46.4754 16.5708 46.5173 16.1824 46.6452 15.8446C46.9454 15.056 47.6778 14.1334 48.8472 14.1334C50.309 14.1334 50.9931 15.3716 50.9931 17.1585V24.7711H54.6122V16.8431C54.6122 16.4925 54.6602 16.0703 54.7631 15.7604C55.0607 14.8632 55.8503 14.1333 56.9373 14.1333C58.4193 14.1333 59.1306 15.3499 59.1306 17.4526V24.7712H62.7522V16.9044C62.7522 12.7556 60.6494 11.1129 58.2758 11.1129C57.2245 11.1129 56.3948 11.377 55.6446 11.8384C55.014 12.226 54.4496 12.7768 53.9562 13.502H53.9028C53.3287 12.0625 51.9819 11.1129 50.2274 11.1129L50.2281 11.1129ZM70.123 11.1129C67.8839 11.1129 66.1063 11.7429 65.1364 12.3039L65.8466 14.7369C66.7326 14.1767 68.1457 13.713 69.4821 13.713C71.6945 13.7073 72.0572 14.9671 72.0572 15.7751V15.9662C67.234 15.9589 64.1866 17.6312 64.1866 21.0401C64.1866 23.1214 65.7385 25.0718 68.4371 25.0718C70.0961 25.0718 71.4852 24.4084 72.3159 23.3455H72.3978C72.3978 23.3455 72.9488 25.6539 75.9854 24.7711C75.8256 23.8104 75.7744 22.786 75.7744 21.5522V16.8026C75.7744 13.7754 74.4839 11.1129 70.123 11.1129L70.123 11.1129ZM85.1684 11.1129C83.781 11.1129 82.2026 12.01 81.5401 13.9333H81.4389V11.4142H78.1775V24.7711H81.8955V17.9315C81.8955 17.5625 81.9178 17.2408 81.9761 16.9458C82.251 15.5131 83.3449 14.5972 84.9148 14.5972C85.3458 14.5972 85.6542 14.644 85.9879 14.6923V11.1955C85.7081 11.1388 85.5167 11.1127 85.1686 11.1127L85.1684 11.1129ZM30.7214 18.3331V19.9994C30.7214 20.2458 30.6999 20.5001 30.6318 20.7225C30.3529 21.6479 29.3959 22.43 28.1997 22.43C27.2024 22.43 26.4101 21.8629 26.4101 20.6633C26.4101 18.8284 28.4263 18.3212 30.7215 18.3331H30.7214ZM72.174 18.3331V19.9994C72.174 20.2458 72.1521 20.5001 72.0844 20.7225C71.8055 21.6479 70.8489 22.43 69.6527 22.43C68.6551 22.43 67.8627 21.8629 67.8627 20.6633C67.8627 18.8284 69.8789 18.3212 72.1741 18.3331H72.174Z" fill="#007DC6"/>
<path d="M113.658 0.561401C112.495 0.561401 111.57 1.21231 111.57 2.00472L112.277 10.0202C112.355 10.5031 112.945 10.8756 113.659 10.8756C114.374 10.8747 114.963 10.5025 115.042 10.0202L115.752 2.00472C115.752 1.21238 114.825 0.561469 113.66 0.561469L113.658 0.561401ZM102.144 6.99104C101.54 7.0054 100.854 7.46355 100.417 8.22167C99.8335 9.23118 99.9369 10.3593 100.62 10.7551L107.901 14.1522C108.356 14.3217 108.974 13.9981 109.332 13.3802C109.332 13.3802 109.332 13.38 109.332 13.3799C109.691 12.759 109.663 12.0608 109.285 11.7511L102.709 7.13006C102.538 7.03095 102.346 6.98636 102.144 6.99114L102.144 6.99104ZM125.173 6.99104C124.971 6.98626 124.78 7.03085 124.609 7.12996L118.032 11.751C117.656 12.0607 117.628 12.7589 117.986 13.3798L117.986 13.3801C118.345 13.998 118.961 14.3216 119.416 14.1521L126.7 10.7552C127.386 10.3594 127.484 9.2313 126.904 8.22174C126.466 7.4636 125.779 7.00547 125.175 6.99111L125.173 6.99104ZM108.173 17.5663C108.079 17.5651 107.988 17.5796 107.902 17.6119L100.621 21.0049C99.9379 21.4024 99.8345 22.531 100.418 23.5416C101 24.5491 102.026 25.0281 102.709 24.633L109.286 20.0155C109.664 19.702 109.692 19.0041 109.333 18.3837L109.336 18.3851C109.045 17.8798 108.581 17.5718 108.173 17.5662L108.173 17.5663ZM119.147 17.5663C118.739 17.5719 118.276 17.8799 117.985 18.3852L117.988 18.3838C117.63 19.0042 117.657 19.7021 118.034 20.0156L124.611 24.6331C125.293 25.0282 126.319 24.5492 126.904 23.5417C127.484 22.5311 127.385 21.4025 126.7 21.005L119.417 17.612C119.332 17.5797 119.241 17.5652 119.147 17.5664L119.147 17.5663ZM113.657 20.8883C112.945 20.8891 112.356 21.26 112.278 21.7417L111.571 29.7568C111.571 30.5506 112.496 31.2002 113.659 31.2002C114.825 31.2002 115.751 30.5506 115.751 29.7568L115.043 21.7417C114.964 21.26 114.375 20.8892 113.66 20.8883H113.657H113.657Z" fill="#FFC220"/>
</svg>
