<svg width="60" height="60" viewBox="0 0 60 60" fill="none" xmlns="http://www.w3.org/2000/svg">
<circle cx="30" cy="30" r="30" fill="#8861B2"/>
<path d="M39.7201 27.4759C39.7521 23.6199 36.4681 20.0853 32.4001 19.5959C32.3122 19.585 32.2246 19.5716 32.1375 19.5559C31.933 19.5168 31.7256 19.4945 31.5175 19.4893C30.6828 19.4893 30.4601 20.0759 30.4015 20.4239C30.3441 20.7639 30.3988 21.0506 30.5628 21.2733C30.8388 21.6479 31.3255 21.7146 31.7161 21.7679C31.8295 21.7839 31.9375 21.7986 32.0281 21.8186C35.6841 22.6359 36.9148 23.9199 37.5161 27.5453C37.5308 27.6333 37.5375 27.7426 37.5455 27.8586C37.5721 28.2919 37.6254 29.1933 38.5948 29.1933C38.6748 29.1933 38.7628 29.1866 38.8534 29.1733C39.7548 29.0359 39.7268 28.2119 39.7135 27.8159C39.7094 27.7039 39.7055 27.5986 39.7161 27.5279C39.7182 27.5102 39.7191 27.4924 39.7188 27.4746L39.7201 27.4759Z" fill="white"/>
<path d="M31.2799 18.1813C31.3893 18.1893 31.4906 18.1973 31.5759 18.2093C37.5799 19.1333 40.3413 21.9773 41.1053 28.028C41.1186 28.1307 41.1213 28.256 41.1226 28.388C41.1306 28.8613 41.1466 29.8453 42.2026 29.8653H42.2346C42.5666 29.8653 42.8293 29.7653 43.0186 29.568C43.3466 29.2253 43.3253 28.7147 43.3053 28.304C43.3013 28.2027 43.2973 28.108 43.2973 28.024C43.3746 21.8373 38.0173 16.2253 31.8359 16.0173C31.8093 16.0173 31.7853 16.0173 31.7613 16.0213C31.7369 16.0244 31.7124 16.0257 31.6879 16.0253C31.6253 16.0253 31.5506 16.02 31.4693 16.0147C31.3733 16.008 31.2626 16 31.1493 16C30.1653 16 29.9786 16.7 29.9546 17.1173C29.8999 18.0813 30.8319 18.1493 31.2799 18.1813ZM40.8159 35.848C40.6871 35.7501 40.5596 35.6505 40.4333 35.5493C39.7773 35.0213 39.0799 34.536 38.4066 34.0653L37.9866 33.772C37.1226 33.1653 36.3466 32.8707 35.6133 32.8707C34.6239 32.8707 33.7626 33.4173 33.0506 34.4933C32.7359 34.9707 32.3533 35.2027 31.8826 35.2027C31.5557 35.1912 31.2349 35.1108 30.9413 34.9667C28.1546 33.7027 26.1626 31.764 25.0239 29.2053C24.4733 27.968 24.6519 27.16 25.6199 26.5013C26.1706 26.128 27.1933 25.4333 27.1226 24.1013C27.0399 22.5907 23.7053 18.0427 22.2999 17.5267C21.6992 17.3075 21.0406 17.3056 20.4386 17.5213C18.8239 18.064 17.6666 19.0187 17.0866 20.2787C16.5266 21.4973 16.5533 22.928 17.1586 24.416C18.9119 28.7187 21.3759 32.4707 24.4839 35.5667C27.5253 38.5973 31.2639 41.0787 35.5946 42.944C35.9853 43.112 36.3946 43.204 36.6946 43.2707C36.7959 43.2933 36.8839 43.3133 36.9479 43.3307C36.9832 43.3402 37.0195 43.3451 37.0559 43.3453H37.0906C39.1279 43.3453 41.5746 41.484 42.3253 39.3627C42.9839 37.504 41.7813 36.5853 40.8159 35.848ZM32.1813 23.0973C31.8333 23.1053 31.1066 23.124 30.8519 23.8627C30.7319 24.2093 30.7466 24.508 30.8946 24.7547C31.1106 25.1147 31.5253 25.2267 31.9013 25.288C33.2679 25.5067 33.9706 26.2613 34.1106 27.6653C34.1759 28.3187 34.6173 28.776 35.1813 28.776C35.2241 28.7759 35.2668 28.7733 35.3093 28.768C35.9893 28.688 36.3186 28.188 36.2893 27.2827C36.2999 26.3387 35.8066 25.2667 34.9653 24.4133C34.1226 23.5573 33.1066 23.0747 32.1813 23.0973Z" fill="white"/>
</svg>
