<svg width="60" height="60" viewBox="0 0 60 60" fill="none" xmlns="http://www.w3.org/2000/svg">
<circle cx="30" cy="30" r="30" fill="#4A99F7"/>
<path d="M30.0001 16.6666C22.4801 16.6666 16.6667 22.1733 16.6667 29.6C16.6667 33.48 18.2534 36.8533 20.8534 39.16C21.0667 39.3333 21.2001 39.6266 21.2134 39.92L21.2801 42.2933C21.3334 43.0533 22.0934 43.5466 22.7867 43.24L25.4267 42.08C25.6534 42 25.9067 41.96 26.1334 42C27.3334 42.36 28.6667 42.5333 30.0001 42.5333C37.5201 42.5333 43.3334 37.0266 43.3334 29.6C43.3334 22.1733 37.5201 16.6666 30.0001 16.6666ZM38.0001 26.6133L34.0934 32.84C33.4667 33.8133 32.1334 34.0666 31.2001 33.3333L28.0801 31.0266C27.9416 30.9228 27.7732 30.8666 27.6001 30.8666C27.427 30.8666 27.2586 30.9228 27.1201 31.0266L22.9067 34.2266C22.3467 34.6666 21.6134 34 22.0001 33.3866L25.9067 27.16C26.5334 26.1866 27.8667 25.9333 28.8001 26.6266L31.9201 28.9733C32.0586 29.0772 32.227 29.1333 32.4001 29.1333C32.5732 29.1333 32.7416 29.0772 32.8801 28.9733L37.0934 25.7733C37.6534 25.3333 38.3867 26 38.0001 26.6133Z" fill="white"/>
</svg>
