<svg width="60" height="60" viewBox="0 0 60 60" fill="none" xmlns="http://www.w3.org/2000/svg">
<path d="M30 0C13.4313 0 0 13.4313 0 30C0 46.5687 13.4313 60 30 60C46.5687 60 60 46.5687 60 30C60 13.4313 46.5687 0 30 0Z" fill="#49A5E8"/>
<path d="M44.5976 17.2572L39.2391 44.2734C39.2391 44.2734 38.4898 46.147 36.429 45.2477L24.0638 35.7677L19.5676 33.5945L11.9987 31.0464C11.9987 31.0464 10.8371 30.6344 10.7246 29.7351C10.6121 28.8358 12.0362 28.3487 12.0362 28.3487L42.1243 16.5456C42.1243 16.5456 44.5974 15.4591 44.5974 17.2577" fill="white"/>
<path d="M23.1135 43.9696C23.1135 43.9696 22.7525 43.9358 22.3025 42.5117C21.8532 41.0879 19.5674 33.594 19.5674 33.594L37.7404 22.0534C37.7404 22.0534 38.7897 21.4164 38.7522 22.0534C38.7522 22.0534 38.9394 22.1659 38.3771 22.6904C37.8154 23.2152 24.1014 35.5426 24.1014 35.5426" fill="#D2E5F1"/>
<path d="M28.8046 39.4017L23.9139 43.8609C23.9139 43.8609 23.5314 44.1511 23.1133 43.9692L24.0498 35.6864" fill="#B5CFE4"/>
</svg>
