<svg width="215" height="240" viewBox="0 0 215 240" fill="none" xmlns="http://www.w3.org/2000/svg">
<g clip-path="url(#clip0)">
<path d="M0 147.018C0 147.018 37.6999 142.622 42.4092 119.109C47.1184 95.5971 48.1678 34.825 46.598 20.802C45.0283 6.77897 58.6443 6.25418 60.7344 25.4735C62.8332 44.6927 68.0628 87.2866 68.0628 87.2866C68.0628 87.2866 85.3387 49.3728 92.1467 30.6697C98.9547 11.9666 102.623 -3.08876 109.952 0.541741C117.28 4.18084 113.091 27.8307 109.952 38.8598C106.812 49.889 95.8152 86.7704 95.8152 86.7704C95.8152 86.7704 120.948 45.7337 127.236 33.2678C133.524 20.802 142.942 0.54174 148.701 15.6057C154.46 30.6697 121.998 97.6705 121.998 97.6705C121.998 97.6705 154.46 90.6762 167.555 119.109C180.642 147.534 173.314 162.082 167.555 162.598C161.797 163.114 164.416 123.118 138.753 123.118C113.1 123.118 99.4837 153.763 108.911 169.867C118.338 185.972 142.942 183.891 153.939 175.064C164.936 166.237 168.605 167.794 168.076 176.621C167.555 185.448 134.044 222.329 94.7658 229.599C55.4961 236.868 9.41847 239.991 9.41847 239.991L0 147.018Z" fill="#55A5FF"/>
<path d="M122.007 97.6793C122.007 97.6793 110.966 98.8407 103.152 103.065" stroke="white" stroke-width="3" stroke-miterlimit="10" stroke-linecap="round"/>
</g>
<path d="M179.857 164.304L210.816 168.315L210.147 173.492L179.187 169.481L179.857 164.304ZM178.875 171.891L209.835 175.902L209.169 181.049L178.21 177.038L178.875 171.891ZM183.902 193.092C181.533 191.848 179.813 190.274 178.73 188.359C177.648 186.444 177.264 184.267 177.581 181.817L177.589 181.758C177.796 180.161 178.319 178.767 179.17 177.556C180.022 176.345 181.165 175.304 182.606 174.442L191.408 176.58C189.5 176.767 188.001 177.218 186.923 177.915C185.845 178.612 185.203 179.759 184.997 181.356L184.993 181.386C184.741 183.329 185.37 184.934 186.868 186.206C188.376 187.481 190.616 188.315 193.589 188.701C195.977 189.01 198.284 188.936 200.512 188.458C202.739 187.99 204.804 187.139 206.706 185.913L209.834 192.267C208.251 193.282 206.545 194.09 204.714 194.689C202.884 195.279 200.96 195.665 198.934 195.826C196.908 195.987 194.83 195.93 192.689 195.653C189.213 195.182 186.271 194.327 183.902 193.092ZM198.641 168.654C198.724 168.634 198.817 168.616 198.928 168.61C199.89 168.422 200.72 168.157 201.432 167.795C202.142 167.444 202.718 166.964 203.16 166.355C203.601 165.747 203.884 164.967 204.008 164.005L204.012 163.975C204.254 162.101 203.67 160.543 202.267 159.312C200.865 158.082 198.751 157.284 195.937 156.919C194.242 156.7 192.467 156.792 190.611 157.197C188.755 157.602 186.891 158.299 185.018 159.306L182.25 152.817C183.829 151.983 185.436 151.324 187.06 150.838C188.685 150.353 190.327 150.042 191.969 149.891C193.621 149.742 195.239 149.77 196.825 149.976C200.214 150.415 203.046 151.266 205.333 152.52C207.618 153.784 209.273 155.4 210.306 157.379C211.34 159.358 211.682 161.621 211.351 164.18L211.347 164.209C211.018 166.758 209.974 168.831 208.205 170.427L198.354 168.687C198.456 168.68 198.548 168.672 198.641 168.654Z" fill="#2D3C5A"/>
<defs>
<clipPath id="clip0">
<rect width="174.875" height="240" fill="white"/>
</clipPath>
</defs>
</svg>
