<svg width="540" height="356" viewBox="0 0 540 356" fill="none" xmlns="http://www.w3.org/2000/svg">
<path d="M487.228 236.686C486.9 236.047 486.104 235.805 485.481 236.15C471.558 243.516 455.818 247.407 439.974 247.407C386.874 247.407 343.598 204.733 342.577 151.893C341.954 152.066 341.349 152.257 340.726 152.429C340.467 152.499 340.225 152.516 340 152.516C341.349 206.497 385.646 250 439.974 250C456.25 250 472.405 246.006 486.692 238.45C487.315 238.104 487.557 237.326 487.228 236.686Z" fill="#F0F0F0"/>
<path d="M447.93 212.393C447.29 212.393 446.737 211.909 446.65 211.269C446.564 210.56 447.065 209.903 447.775 209.817C451.441 209.35 455.074 208.52 458.585 207.396C459.277 207.171 460.003 207.552 460.228 208.226C460.453 208.9 460.072 209.644 459.398 209.851C455.748 211.044 451.943 211.892 448.138 212.376C448.051 212.376 447.999 212.393 447.93 212.393Z" fill="#F0F0F0"/>
<path d="M475.588 201.569C475.172 201.569 474.775 201.379 474.532 201.016C474.117 200.428 474.256 199.615 474.844 199.201C479.756 195.708 484.132 191.523 487.816 186.734C488.249 186.163 489.062 186.06 489.632 186.492C490.203 186.924 490.307 187.737 489.875 188.307C486.035 193.287 481.486 197.662 476.349 201.31C476.107 201.5 475.847 201.569 475.588 201.569Z" fill="#F0F0F0"/>
<path d="M494.648 179.696C494.441 179.696 494.251 179.645 494.06 179.558C493.42 179.23 493.178 178.452 493.507 177.812C497.935 169.288 500.287 159.691 500.287 150.009C500.287 128.758 489.425 109.479 471.246 98.4307C470.641 98.0504 470.433 97.255 470.814 96.6499C471.177 96.0447 471.973 95.8372 472.595 96.2176C491.552 107.733 502.882 127.842 502.882 150.009C502.882 160.089 500.443 170.118 495.807 179.005C495.582 179.437 495.133 179.696 494.648 179.696Z" fill="#F0F0F0"/>
<path d="M399.344 104.984C398.981 104.984 398.618 104.828 398.376 104.534C397.909 103.998 397.961 103.168 398.497 102.702C409.965 92.6385 424.701 87.1055 439.974 87.1055C444.246 87.1055 448.519 87.5377 452.652 88.385C453.362 88.5233 453.811 89.2149 453.656 89.9238C453.517 90.6328 452.825 91.0823 452.134 90.9267C448.155 90.1141 444.073 89.6991 439.974 89.6991C425.324 89.6991 411.21 95.0073 400.209 104.655C399.95 104.88 399.638 104.984 399.344 104.984Z" fill="#F0F0F0"/>
<path d="M519.244 151.306C518.535 151.306 517.947 150.718 517.947 150.009C517.947 147.346 517.808 144.666 517.549 142.038C513.502 102.148 480.154 72.0628 439.974 72.0628C439.265 72.0628 438.677 71.4749 438.677 70.766C438.677 70.0571 439.265 69.4692 439.974 69.4692C481.486 69.4692 515.94 100.558 520.126 141.778C520.403 144.493 520.541 147.26 520.541 150.009C520.541 150.718 519.953 151.306 519.244 151.306Z" fill="#F0F0F0"/>
<path d="M403.513 80.8981C403.046 80.8981 402.596 80.6388 402.354 80.2066C402.025 79.5668 402.267 78.7887 402.907 78.4602C410.051 74.76 417.679 72.1665 425.583 70.7314C426.292 70.6103 426.967 71.0772 427.088 71.7861C427.209 72.495 426.742 73.1693 426.033 73.2903C418.37 74.6736 411.002 77.1807 404.084 80.7599C403.928 80.8636 403.72 80.8981 403.513 80.8981Z" fill="#F0F0F0"/>
<path d="M420.498 228.145C420.394 228.145 420.291 228.128 420.187 228.11C399.742 222.958 381.771 209.592 370.857 191.437C370.494 190.832 370.684 190.019 371.307 189.656C371.93 189.293 372.725 189.483 373.088 190.106C383.639 207.673 401.04 220.606 420.827 225.603C421.519 225.776 421.934 226.485 421.761 227.177C421.605 227.747 421.069 228.145 420.498 228.145Z" fill="#F0F0F0"/>
<path d="M439.957 230.548C439.248 230.548 438.66 229.96 438.66 229.251C438.66 228.543 439.248 227.955 439.957 227.955C457.772 227.955 475.19 221.799 489.01 210.595C489.563 210.145 490.376 210.232 490.826 210.785C491.276 211.338 491.189 212.151 490.636 212.601C476.366 224.185 458.378 230.548 439.957 230.548Z" fill="#F0F0F0"/>
<path d="M532.061 186.941C531.905 186.941 531.75 186.907 531.594 186.855C530.919 186.596 530.591 185.852 530.85 185.178C535.192 173.973 537.406 162.129 537.406 149.991C537.406 123.658 527.045 98.9843 508.261 80.518C507.742 80.0166 507.742 79.1866 508.244 78.6852C508.745 78.1665 509.576 78.1664 510.077 78.6679C529.38 97.6183 540 122.949 540 149.991C540 162.441 537.734 174.596 533.272 186.112C533.064 186.63 532.58 186.941 532.061 186.941Z" fill="#F0F0F0"/>
<path d="M492.573 67.7747C492.331 67.7747 492.089 67.7056 491.881 67.5672C487.125 64.5587 482.074 61.965 476.885 59.8383C476.228 59.5617 475.899 58.8182 476.176 58.1439C476.453 57.4868 477.214 57.1584 477.871 57.435C483.216 59.6136 488.387 62.2936 493.282 65.3713C493.888 65.7517 494.078 66.5471 493.68 67.1523C493.421 67.55 493.005 67.7747 492.573 67.7747Z" fill="#F0F0F0"/>
<path d="M353.145 104.258C352.938 104.258 352.73 104.206 352.523 104.102C351.9 103.756 351.658 102.978 352.004 102.339C364.06 80.1548 383.812 63.4694 407.647 55.3428C418.025 51.7983 428.904 50 439.974 50C440.683 50 441.271 50.5879 441.271 51.2968C441.271 52.0057 440.683 52.5936 439.974 52.5936C429.198 52.5936 418.596 54.34 408.494 57.7981C385.282 65.7171 366.049 81.9704 354.304 103.584C354.045 104.016 353.595 104.258 353.145 104.258Z" fill="#F0F0F0"/>
<path d="M378.623 156.717C377.966 156.717 377.395 156.216 377.326 155.542C377.136 153.571 377.049 151.582 377.049 149.576C377.049 139.427 379.505 129.346 384.158 120.39C384.487 119.75 385.265 119.508 385.905 119.837C386.545 120.165 386.787 120.943 386.458 121.583C381.996 130.159 379.644 139.842 379.644 149.559C379.644 151.461 379.73 153.398 379.903 155.282C379.972 155.991 379.453 156.631 378.727 156.7C378.71 156.7 378.658 156.717 378.623 156.717Z" fill="#F0F0F0"/>
<path d="M4 50H136C138.209 50 140 51.7909 140 54V126C140 128.209 138.209 130 136 130H4C1.79085 130 0 128.209 0 126V54C0 51.7909 1.79085 50 4 50Z" fill="#55A5FF"/>
<path d="M100.012 109.208C93.0971 109.208 86.6676 105.473 83.2709 99.4582C82.7856 98.5851 83.0769 97.4695 83.9503 96.9844C84.8237 96.4994 85.9398 96.7904 86.4251 97.6635C89.1909 102.538 94.4072 105.57 100.012 105.57C108.625 105.57 115.612 98.5851 115.612 89.9755C115.612 81.366 108.625 74.3814 100.012 74.3814C91.3987 74.3814 84.4113 81.366 84.4113 89.9755C84.4113 90.9699 83.5864 91.7945 82.5916 91.7945C81.5969 91.7945 80.772 90.9699 80.772 89.9755C80.772 79.3773 89.4092 70.7435 100.012 70.7435C110.614 70.7435 119.252 79.3773 119.252 89.9755C119.252 100.574 110.614 109.208 100.012 109.208Z" fill="#8CC8FF"/>
<path d="M100.012 120C83.4654 120 70 106.54 70 90C70 73.46 83.4654 60 100.012 60C108.383 60 116.437 63.5408 122.091 69.6766C122.77 70.4042 122.721 71.5683 121.994 72.2474C121.266 72.9264 120.101 72.8779 119.422 72.1504C114.448 66.7421 107.364 63.6378 100.012 63.6378C85.4549 63.6378 73.6393 75.4729 73.6393 90C73.6393 104.551 85.4792 116.362 100.012 116.362C114.569 116.362 126.385 104.527 126.385 90C126.385 86.6289 125.754 83.3549 124.517 80.2506C124.153 79.329 124.59 78.2619 125.536 77.8981C126.482 77.5344 127.525 77.9709 127.889 78.9167C129.296 82.4576 130 86.1924 130 90.0243C130.024 106.516 116.559 120 100.012 120Z" fill="#8CC8FF"/>
<path d="M23.7185 76.4061H27.3681L28.2847 75.5945H24.6351L23.7185 76.4061Z" fill="white"/>
<path d="M25.9998 84.3808C25.9293 84.3808 25.8594 84.3793 25.7886 84.376C24.5508 84.3204 23.5409 83.6638 23.0872 82.6195C22.7194 81.7736 22.7153 80.5252 23.8057 79.5595L24.8138 78.6667H21.3025C20.218 80.0507 19.9687 81.8061 20.6788 83.4406C21.4975 85.3246 23.4054 86.5579 25.6566 86.6589C25.7701 86.664 25.8848 86.6667 25.9998 86.6667C29.6759 86.6667 32.6664 84.0178 32.6664 80.762H30.0858C30.0858 82.7574 28.2529 84.3808 25.9998 84.3808Z" fill="white"/>
<path d="M25.9998 67.6191C26.0704 67.6191 26.1403 67.6206 26.211 67.6238C27.4489 67.6794 28.4587 68.336 28.9125 69.3804C29.2802 70.2263 29.2843 71.4747 28.194 72.4404L27.1858 73.3333H30.6972C31.7817 71.9493 32.0312 70.1939 31.3209 68.5594C30.5022 66.6755 28.5942 65.4421 26.3431 65.3412C26.2293 65.336 26.1149 65.3334 25.9998 65.3334C22.3238 65.3334 19.3333 67.9823 19.3333 71.2381H21.9139C21.9139 69.2425 23.7467 67.6191 25.9998 67.6191Z" fill="white"/>
<path d="M32.1295 76.7871H19.8716V78.286H32.1295V76.7871Z" fill="white"/>
<path d="M32.1295 73.7146H19.8716V75.2134H32.1295V73.7146Z" fill="white"/>
<path d="M369.852 273.308C364.605 258.953 362.54 253.938 351.852 258.854C341.163 263.77 363.244 289.162 363.244 289.162L369.852 273.308Z" fill="white"/>
<path d="M442.508 231.078C452.273 263.991 432.063 303.812 404.152 321.116L400.654 316.102C393.561 319.961 386.03 322.862 378.33 324.631C370.144 310.448 360.694 296.978 351.852 283.115C363.148 278.789 372.889 275.151 375.172 262.394C381.391 227.932 341.067 235.306 314.54 243.417C307.982 216.895 305.553 175.305 305.553 175.305C370.168 158.467 427.131 179.164 442.508 231.078Z" fill="#2D3C5A"/>
<path d="M373.861 267.04C383.116 281.985 390.039 302.068 400.654 316.103C393.585 319.962 386.031 322.863 378.355 324.608C370.169 310.425 360.719 296.955 351.877 283.091C358.946 280.388 369.44 271.662 373.861 267.04Z" fill="white"/>
<path d="M361.959 262.541C370.461 262.541 374.129 265.048 375.319 270.972C376.534 276.896 369.854 282.845 369.854 282.845L361.959 262.541Z" fill="white"/>
<path d="M253.257 109.305C245.751 127.47 245.265 146.864 268.803 154.509C284.836 159.72 304.026 152.124 311.532 133.959C319.038 115.794 312.091 95.5647 295.985 88.7559C279.88 81.9225 260.763 91.1402 253.257 109.305Z" fill="white"/>
<path d="M266.591 110.092C265.25 110.092 264.162 108.991 264.162 107.634C264.162 106.276 265.25 105.176 266.591 105.176C267.933 105.176 269.02 106.276 269.02 107.634C269.02 108.991 267.933 110.092 266.591 110.092Z" fill="#2D3C5A"/>
<path d="M264.768 84.676C264.768 68.4037 291.222 86.7408 295.983 88.7564C310.363 91.534 322.898 110.51 318.525 127.544C314.784 142.047 298.339 159.352 289.715 155.124C275.383 146.521 273.173 132.264 279.877 118.646C277.4 115.672 280.242 111.321 279.1 107.88C277.254 102.472 264.647 90.4278 264.768 84.676Z" fill="#2D3C5A"/>
<path d="M284.663 117.466C311.432 115.008 308.323 136.737 298.193 141.653C290.031 145.611 277.327 144.111 272.25 131.821C267.197 119.531 284.663 117.466 284.663 117.466Z" fill="white"/>
<path d="M282.307 126.757C287.433 124.176 293.7 125.356 297.392 129.83C298.388 131.034 296.688 132.78 295.667 131.575C292.704 127.962 287.748 126.757 283.522 128.871C282.137 129.584 280.923 127.47 282.307 126.757Z" fill="#2D3C5A"/>
<path d="M251.214 115.328C253.983 110.584 257.36 106.282 261.319 102.522C262.461 101.44 264.186 103.185 263.044 104.267C259.206 107.905 255.975 112.01 253.327 116.582C252.526 117.934 250.412 116.705 251.214 115.328Z" fill="#2D3C5A"/>
<path d="M286.119 175.771C324.062 167.413 339.341 185.627 352.969 241.745C366.596 297.862 390.912 330.357 390.912 330.357C390.912 330.357 280.532 361.919 233.844 355.012C233.844 354.987 205.665 193.493 286.119 175.771Z" fill="#2D3C5A"/>
<path d="M316.29 182.235L312.379 162.964L260.76 168.863L266.954 192.485L316.29 182.235Z" fill="#2D3C5A"/>
<path d="M351.851 232.92C352.069 232.92 352.312 232.871 352.531 232.797C353.454 232.429 353.915 231.347 353.551 230.389L344.175 206.717C343.81 205.783 342.741 205.316 341.794 205.685C340.871 206.054 340.409 207.135 340.774 208.094L350.15 231.765C350.442 232.478 351.122 232.92 351.851 232.92Z" fill="white"/>
<path d="M136.58 160.261C129.609 147.823 126.159 127.643 117.827 109.674C110.807 94.5083 104.758 89.6905 101.43 96.2781C99.2928 100.506 103.69 105.201 106.532 119.261C106.532 119.261 96.0134 121.449 95.309 128.896C95.309 128.896 86.1268 131.182 85.4466 143.645C85.1065 149.864 83.3575 157.336 90.2806 156.156C91.6652 162.424 93.0741 174.985 94.2401 183.662C96.3292 199.172 103.738 203.867 103.738 203.867L136.58 160.261Z" fill="white"/>
<path d="M135.682 158.466C148.483 184.423 156.815 194.034 172.168 198.557C195.317 205.341 250.459 174.64 284.831 180.466L293.018 251.995C293.018 251.995 243.05 285.032 185.261 280.263C135.196 276.133 102.014 224.219 95.9166 198.656C101.892 181.695 121.908 167.905 135.682 158.466Z" fill="#2D3C5A"/>
<path d="M239.165 275.421C239.408 275.421 239.65 275.371 239.869 275.273C239.942 275.248 248.322 271.66 256.557 271.66C256.582 271.66 256.582 271.66 256.606 271.66C257.602 271.66 258.428 270.849 258.428 269.816C258.428 268.784 257.553 267.973 256.557 267.973C247.569 267.973 238.825 271.733 238.436 271.881C237.513 272.274 237.076 273.356 237.489 274.29C237.78 275.003 238.46 275.421 239.165 275.421Z" fill="#2D3C5A"/>
<path d="M108.379 121.301L110.177 126.143C110.735 127.618 108.379 128.257 107.845 126.807C107.237 125.185 106.655 123.562 106.047 121.964C105.489 120.465 107.845 119.826 108.379 121.301Z" fill="#2D3C5A"/>
<path d="M87.5113 144.186C87.7299 142.637 90.0618 143.301 89.8432 144.849C89.5517 146.865 89.8433 148.856 90.5478 150.773C91.1065 152.248 88.7501 152.887 88.2157 151.437C87.3655 149.053 87.1712 146.668 87.5113 144.186Z" fill="#2D3C5A"/>
<path d="M96.79 130.273C97.1787 131.379 97.5673 132.461 97.9803 133.567C98.5147 135.067 96.1583 135.706 95.6482 134.231C95.2596 133.125 94.8709 132.043 94.458 130.937C93.9236 129.438 96.2556 128.774 96.79 130.273Z" fill="#2D3C5A"/>
<path d="M134.224 155.763C137.163 134.87 133.592 125.849 126.718 117.172C119.844 108.495 115.787 121.326 115.787 121.326L134.224 155.763Z" fill="white"/>
<path d="M121.858 118.45C124.749 124.128 126.668 130.101 127.615 136.418C127.858 137.967 125.502 138.63 125.283 137.082C124.36 130.961 122.563 125.209 119.769 119.703C119.04 118.278 121.129 117.024 121.858 118.45Z" fill="#2D3C5A"/>
<path d="M31.1533 289.499L49.5072 276.255L51.9544 297.85L31.1533 289.499Z" fill="#F0F0F0"/>
<path d="M69.0841 287.966C68.7293 287.966 68.3867 287.758 68.2398 287.402L63.9573 277.273C63.7615 276.807 63.9817 276.268 64.4467 276.072C64.9117 275.875 65.45 276.096 65.6458 276.562L69.9284 286.691C70.1242 287.157 69.9039 287.697 69.439 287.893C69.3166 287.942 69.1942 287.966 69.0841 287.966Z" fill="#F0F0F0"/>
<path d="M8.51621 322.694C3.81761 322.694 0 318.868 0 314.159C0 309.45 3.81761 305.624 8.51621 305.624C13.2148 305.624 17.0324 309.45 17.0324 314.159C17.0324 318.868 13.2026 322.694 8.51621 322.694ZM8.51621 307.464C4.8332 307.464 1.83539 310.468 1.83539 314.159C1.83539 317.85 4.8332 320.855 8.51621 320.855C12.1992 320.855 15.197 317.85 15.197 314.159C15.197 310.468 12.1992 307.464 8.51621 307.464Z" fill="#F0F0F0"/>
<path d="M34.2126 356C33.7109 356 33.2949 355.583 33.2949 355.08V348.667C33.2949 348.164 33.7109 347.747 34.2126 347.747C34.7143 347.747 35.1303 348.164 35.1303 348.667V355.08C35.1303 355.595 34.7143 356 34.2126 356Z" fill="#F0F0F0"/>
</svg>
