<svg width="139" height="200" viewBox="0 0 139 200" fill="none" xmlns="http://www.w3.org/2000/svg">
<path d="M86.2282 186.686C85.8996 186.047 85.104 185.805 84.4813 186.15C70.5576 193.516 54.8177 197.407 38.9741 197.407C-14.1264 197.407 -57.4023 154.733 -58.4228 101.893C-59.0455 102.066 -59.6509 102.257 -60.2735 102.429C-60.533 102.499 -60.7751 102.516 -61 102.516C-59.6509 156.497 -15.3544 200 38.9741 200C55.2501 200 71.4051 196.006 85.692 188.45C86.3147 188.104 86.5569 187.326 86.2282 186.686Z" fill="#F0F0F0"/>
<path d="M46.9302 162.393C46.2903 162.393 45.7368 161.909 45.6503 161.269C45.5638 160.56 46.0654 159.903 46.7746 159.817C50.4415 159.35 54.0737 158.52 57.5849 157.396C58.2768 157.171 59.0033 157.552 59.2281 158.226C59.453 158.9 59.0724 159.644 58.3979 159.851C54.7483 161.044 50.9431 161.892 47.1379 162.376C47.0514 162.376 46.9994 162.393 46.9302 162.393Z" fill="#F0F0F0"/>
<path d="M74.5876 151.569C74.1725 151.569 73.7746 151.379 73.5325 151.016C73.1174 150.428 73.2558 149.615 73.8439 149.201C78.7561 145.708 83.1321 141.523 86.8163 136.734C87.2487 136.163 88.0616 136.06 88.6324 136.492C89.2032 136.924 89.3069 137.737 88.8745 138.307C85.0347 143.287 80.4857 147.662 75.3487 151.31C75.1065 151.5 74.8471 151.569 74.5876 151.569Z" fill="#F0F0F0"/>
<path d="M93.6484 129.696C93.4408 129.696 93.2506 129.645 93.0603 129.558C92.4203 129.23 92.1782 128.452 92.5068 127.812C96.9347 119.288 99.2871 109.691 99.2871 100.009C99.2871 78.7584 88.4248 59.4794 70.2462 48.4307C69.6408 48.0504 69.4332 47.255 69.8137 46.6499C70.177 46.0447 70.9726 45.8372 71.5953 46.2176C90.5523 57.7331 101.882 77.842 101.882 100.009C101.882 110.089 99.4428 120.118 94.8073 129.005C94.5824 129.437 94.1327 129.696 93.6484 129.696Z" fill="#F0F0F0"/>
<path d="M-1.65556 54.984C-2.01879 54.984 -2.38201 54.8283 -2.62417 54.5344C-3.09117 53.9984 -3.0393 53.1684 -2.5031 52.7016C8.96451 42.6385 23.7012 37.1055 38.974 37.1055C43.2463 37.1055 47.5185 37.5377 51.6524 38.385C52.3616 38.5233 52.8113 39.2149 52.6556 39.9238C52.5173 40.6328 51.8254 41.0823 51.1335 40.9267C47.1553 40.1141 43.0733 39.6991 38.974 39.6991C24.3238 39.6991 10.2099 45.0073 -0.790735 54.6554C-1.05018 54.8802 -1.36152 54.984 -1.65556 54.984Z" fill="#F0F0F0"/>
<path d="M118.244 101.306C117.535 101.306 116.947 100.718 116.947 100.009C116.947 97.346 116.808 94.666 116.549 92.0378C112.502 52.1485 79.1539 22.0628 38.974 22.0628C38.2648 22.0628 37.6768 21.4749 37.6768 20.766C37.6768 20.0571 38.2648 19.4692 38.974 19.4692C80.4857 19.4692 114.94 50.5577 119.126 91.7784C119.403 94.493 119.541 97.2596 119.541 100.009C119.541 100.718 118.953 101.306 118.244 101.306Z" fill="#F0F0F0"/>
<path d="M2.51272 30.8981C2.04571 30.8981 1.596 30.6388 1.35385 30.2066C1.02522 29.5668 1.26738 28.7887 1.90735 28.4602C9.05083 24.76 16.6786 22.1665 24.5831 20.7314C25.2923 20.6103 25.9669 21.0772 26.0879 21.7861C26.209 22.495 25.742 23.1693 25.0328 23.2903C17.3705 24.6736 10.0021 27.1807 3.08351 30.7599C2.92784 30.8636 2.72027 30.8981 2.51272 30.8981Z" fill="#F0F0F0"/>
<path d="M19.4982 178.145C19.3945 178.145 19.2907 178.128 19.1869 178.11C-1.25761 172.958 -19.2287 159.592 -30.1429 141.437C-30.5061 140.832 -30.3158 140.019 -29.6932 139.656C-29.0705 139.293 -28.2749 139.483 -27.9116 140.106C-17.3607 157.673 0.0396194 170.606 19.8269 175.603C20.5187 175.776 20.9338 176.485 20.7609 177.177C20.6052 177.747 20.069 178.145 19.4982 178.145Z" fill="#F0F0F0"/>
<path d="M38.9569 180.548C38.2478 180.548 37.6597 179.96 37.6597 179.251C37.6597 178.543 38.2478 177.955 38.9569 177.955C56.7724 177.955 74.19 171.799 88.0099 160.595C88.5634 160.145 89.3764 160.232 89.8261 160.785C90.2758 161.338 90.1893 162.151 89.6358 162.601C75.3661 174.185 57.3777 180.548 38.9569 180.548Z" fill="#F0F0F0"/>
<path d="M131.061 136.941C130.905 136.941 130.75 136.907 130.594 136.855C129.919 136.596 129.591 135.852 129.85 135.178C134.192 123.973 136.406 112.129 136.406 99.9915C136.406 73.6579 126.045 48.9843 107.261 30.518C106.742 30.0166 106.742 29.1866 107.244 28.6852C107.745 28.1665 108.576 28.1664 109.077 28.6679C128.38 47.6183 139 72.949 139 99.9915C139 112.441 136.734 124.596 132.272 136.112C132.064 136.63 131.58 136.941 131.061 136.941Z" fill="#F0F0F0"/>
<path d="M91.573 17.7747C91.3309 17.7747 91.0887 17.7056 90.8811 17.5672C86.1246 14.5587 81.074 11.965 75.885 9.83831C75.2278 9.56166 74.8991 8.8182 75.1759 8.14387C75.4526 7.48682 76.2137 7.15835 76.871 7.435C82.2156 9.61361 87.3872 12.2936 92.2821 15.3713C92.8875 15.7517 93.0778 16.5471 92.68 17.1523C92.4205 17.55 92.0054 17.7747 91.573 17.7747Z" fill="#F0F0F0"/>
<path d="M-47.8546 54.2578C-48.0622 54.2578 -48.2697 54.206 -48.4773 54.1023C-49.1 53.7565 -49.3421 52.9783 -48.9962 52.3386C-36.9405 30.1548 -17.1878 13.4694 6.64685 5.34283C17.0248 1.79827 27.9043 0 38.9741 0C39.6832 0 40.2713 0.587879 40.2713 1.29679C40.2713 2.00571 39.6832 2.59359 38.9741 2.59359C28.1983 2.59359 17.5956 4.33995 7.49436 7.79806C-15.7176 15.7171 -34.9514 31.9704 -46.6957 53.5836C-46.9552 54.0158 -47.4049 54.2578 -47.8546 54.2578Z" fill="#F0F0F0"/>
</svg>
