<svg width="301" height="227" viewBox="0 0 301 227" fill="none" xmlns="http://www.w3.org/2000/svg">
<path d="M4 0H96C98.2091 0 100 1.79086 100 4V56C100 58.2091 98.2091 60 96 60H4C1.79086 60 0 58.2091 0 56V4C0 1.79086 1.79086 0 4 0Z" fill="#55A5FF"/>
<path d="M20.2888 22.3045H23.026L23.7135 21.6958H20.9762L20.2888 22.3045Z" fill="white"/>
<path d="M21.9996 28.2855C21.9467 28.2855 21.8942 28.2844 21.8412 28.282C20.9128 28.2402 20.1554 27.7478 19.8151 26.9645C19.5393 26.3301 19.5362 25.3938 20.3539 24.6696L21.1101 24H18.4765C17.6632 25.038 17.4762 26.3546 18.0088 27.5804C18.6228 28.9934 20.0538 29.9184 21.7421 29.9941C21.8273 29.9979 21.9133 29.9999 21.9996 29.9999C24.7566 29.9999 26.9995 28.0133 26.9995 25.5714H25.064C25.064 27.068 23.6894 28.2855 21.9996 28.2855Z" fill="white"/>
<path d="M21.9997 15.7143C22.0526 15.7143 22.105 15.7154 22.1581 15.7178C23.0865 15.7596 23.8439 16.252 24.1842 17.0353C24.46 17.6697 24.4631 18.606 23.6453 19.3302L22.8892 19.9999H25.5227C26.3361 18.962 26.5232 17.6454 25.9905 16.4195C25.3764 15.0066 23.9455 14.0816 22.2571 14.0059C22.1718 14.002 22.086 14 21.9997 14C19.2426 14 16.9998 15.9867 16.9998 18.4285H18.9352C18.9352 16.9318 20.3099 15.7143 21.9997 15.7143Z" fill="white"/>
<path d="M26.5968 22.5903H17.4033V23.7145H26.5968V22.5903Z" fill="white"/>
<path d="M26.5968 20.2859H17.4033V21.41H26.5968V20.2859Z" fill="white"/>
<path d="M70.0077 42.8052C65.3979 42.8052 61.1116 40.3153 58.8471 36.3056C58.5236 35.7235 58.7177 34.9798 59.3 34.6564C59.8823 34.3331 60.6264 34.5271 60.9499 35.1091C62.7938 38.3589 66.2713 40.3799 70.0077 40.3799C75.7497 40.3799 80.408 35.7235 80.408 29.9838C80.408 24.2441 75.7497 19.5877 70.0077 19.5877C64.2657 19.5877 59.6074 24.2441 59.6074 29.9838C59.6074 30.6467 59.0574 31.1964 58.3943 31.1964C57.7311 31.1964 57.1812 30.6467 57.1812 29.9838C57.1812 22.9183 62.9393 17.1625 70.0077 17.1625C77.076 17.1625 82.8342 22.9183 82.8342 29.9838C82.8342 37.0493 77.076 42.8052 70.0077 42.8052Z" fill="#8CC8FF"/>
<path d="M70.0081 50C58.9769 50 50 41.0267 50 30C50 18.9733 58.9769 10 70.0081 10C75.5884 10 80.9583 12.3605 84.727 16.4511C85.1799 16.9361 85.1476 17.7122 84.6623 18.1649C84.1771 18.6176 83.4007 18.5853 82.9478 18.1002C79.632 14.4947 74.909 12.4252 70.0081 12.4252C60.3033 12.4252 52.4262 20.3153 52.4262 30C52.4262 39.7009 60.3194 47.5748 70.0081 47.5748C79.7129 47.5748 87.59 39.6847 87.59 30C87.59 27.7526 87.1694 25.5699 86.3445 23.5004C86.1019 22.886 86.3931 22.1746 87.0239 21.9321C87.6547 21.6896 88.3502 21.9806 88.5928 22.6112C89.5309 24.9717 90 27.4616 90 30.0162C90.0162 41.0105 81.0392 50 70.0081 50Z" fill="#8CC8FF"/>
<path d="M274.272 165.678C270.381 155.032 268.85 151.314 260.924 154.959C252.998 158.605 269.372 177.435 269.372 177.435L274.272 165.678Z" fill="white"/>
<path d="M328.152 134.361C335.393 158.769 320.406 188.299 299.708 201.131L297.114 197.413C291.854 200.275 286.27 202.425 280.559 203.738C274.488 193.22 267.481 183.231 260.924 172.95C269.301 169.742 276.524 167.044 278.217 157.584C282.829 132.028 252.926 137.496 233.255 143.512C228.391 123.843 226.59 93.0012 226.59 93.0012C274.507 80.5149 316.749 95.8631 328.152 134.361Z" fill="#2D3C5A"/>
<path d="M277.245 161.03C284.109 172.113 289.242 187.005 297.115 197.413C291.872 200.275 286.27 202.426 280.578 203.72C274.507 193.203 267.5 183.214 260.943 172.933C266.185 170.928 273.967 164.457 277.245 161.03Z" fill="white"/>
<path d="M268.419 157.693C274.724 157.693 277.444 159.553 278.327 163.946C279.227 168.339 274.273 172.75 274.273 172.75L268.419 157.693Z" fill="white"/>
<path d="M187.809 44.0577C182.242 57.5284 181.882 71.9105 199.337 77.5795C211.227 81.4439 225.458 75.8113 231.024 62.3407C236.59 48.87 231.438 33.8681 219.495 28.8189C207.552 23.7515 193.375 30.5871 187.809 44.0577Z" fill="white"/>
<path d="M197.697 44.6411C196.702 44.6411 195.896 43.825 195.896 42.8183C195.896 41.8116 196.702 40.9955 197.697 40.9955C198.692 40.9955 199.498 41.8116 199.498 42.8183C199.498 43.825 198.692 44.6411 197.697 44.6411Z" fill="#2D3C5A"/>
<path d="M196.345 25.7934C196.345 13.7263 215.962 27.3246 219.493 28.8193C230.157 30.8791 239.452 44.9513 236.21 57.5835C233.436 68.3381 221.24 81.1708 214.845 78.0356C204.217 71.6557 202.578 61.0833 207.55 50.9848C205.712 48.7792 207.82 45.5528 206.973 43.0009C205.604 38.9906 196.255 30.0588 196.345 25.7934Z" fill="#2D3C5A"/>
<path d="M211.098 50.1096C230.95 48.2868 228.644 64.4006 221.132 68.0462C215.079 70.981 205.658 69.8691 201.893 60.7549C198.146 51.6408 211.098 50.1096 211.098 50.1096Z" fill="white"/>
<path d="M209.352 56.9997C213.153 55.0857 217.8 55.9607 220.538 59.2782C221.277 60.1714 220.016 61.4656 219.259 60.5724C217.062 57.8929 213.387 56.9997 210.252 58.5673C209.226 59.096 208.325 57.5283 209.352 56.9997Z" fill="#2D3C5A"/>
<path d="M186.294 48.5241C188.347 45.0061 190.851 41.8161 193.787 39.0272C194.634 38.2252 195.913 39.5194 195.067 40.3214C192.22 43.0192 189.824 46.0633 187.861 49.4538C187.266 50.4563 185.699 49.5449 186.294 48.5241Z" fill="#2D3C5A"/>
<path d="M212.178 93.3466C240.316 87.149 251.646 100.656 261.752 142.271C271.858 183.886 289.89 207.984 289.89 207.984C289.89 207.984 208.035 231.389 173.412 226.267C173.412 226.249 152.516 106.489 212.178 93.3466Z" fill="#2D3C5A"/>
<path d="M234.552 98.1405L231.652 83.8496L193.372 88.2244L197.966 105.742L234.552 98.1405Z" fill="#2D3C5A"/>
<path d="M260.923 135.727C261.085 135.727 261.265 135.691 261.427 135.636C262.112 135.363 262.454 134.561 262.184 133.85L255.23 116.296C254.96 115.603 254.168 115.257 253.465 115.53C252.781 115.804 252.438 116.606 252.709 117.317L259.662 134.871C259.878 135.399 260.383 135.727 260.923 135.727Z" fill="white"/>
<path d="M101.284 81.8453C96.1144 72.6218 93.5564 57.6564 87.3776 44.3316C82.1716 33.0848 77.6861 29.512 75.2182 34.3972C73.633 37.5325 76.8935 41.0141 79.0011 51.4406C79.0011 51.4406 71.2011 53.0629 70.6787 58.5861C70.6787 58.5861 63.8694 60.2813 63.3651 69.523C63.1129 74.1348 61.8158 79.6762 66.9498 78.8012C67.9766 83.4494 69.0214 92.7641 69.8861 99.1986C71.4353 110.701 76.9296 114.182 76.9296 114.182L101.284 81.8453Z" fill="white"/>
<path d="M100.618 80.5144C110.111 99.7634 116.29 106.891 127.675 110.245C144.842 115.276 185.734 92.5086 211.223 96.8287L217.294 149.873C217.294 149.873 180.239 174.372 137.384 170.835C100.258 167.773 75.6507 129.275 71.1292 110.318C75.5606 97.7401 90.404 87.5141 100.618 80.5144Z" fill="#2D3C5A"/>
<path d="M177.358 167.244C177.538 167.244 177.718 167.208 177.88 167.135C177.934 167.117 184.149 164.455 190.256 164.455C190.274 164.455 190.274 164.455 190.292 164.455C191.031 164.455 191.643 163.854 191.643 163.088C191.643 162.323 190.995 161.721 190.256 161.721C183.591 161.721 177.106 164.51 176.818 164.619C176.133 164.911 175.809 165.713 176.115 166.406C176.331 166.934 176.836 167.244 177.358 167.244Z" fill="#2D3C5A"/>
<path d="M80.371 52.9534L81.704 56.5444C82.1183 57.6381 80.371 58.112 79.9747 57.0366C79.5244 55.8335 79.0921 54.6304 78.6417 53.4456C78.2274 52.3337 79.9747 51.8597 80.371 52.9534Z" fill="#2D3C5A"/>
<path d="M64.8961 69.9241C65.0582 68.7757 66.7875 69.2679 66.6254 70.4163C66.4092 71.911 66.6255 73.3875 67.1479 74.8093C67.5622 75.903 65.8148 76.3769 65.4185 75.3015C64.788 73.5333 64.6439 71.7652 64.8961 69.9241Z" fill="#2D3C5A"/>
<path d="M71.7768 59.6071C72.065 60.4273 72.3532 61.2294 72.6594 62.0497C73.0557 63.1616 71.3083 63.6355 70.9301 62.5418C70.6418 61.7215 70.3536 60.9195 70.0474 60.0992C69.6511 58.9873 71.3805 58.4952 71.7768 59.6071Z" fill="#2D3C5A"/>
<path d="M99.5369 78.5098C101.717 63.0158 99.0685 56.326 93.9706 49.8914C88.8727 43.4568 85.8643 52.972 85.8643 52.972L99.5369 78.5098Z" fill="white"/>
<path d="M90.3668 50.839C92.5104 55.0497 93.9336 59.4792 94.6362 64.1638C94.8163 65.3122 93.0689 65.8044 92.9068 64.656C92.2223 60.1172 90.8892 55.8517 88.8176 51.7686C88.2772 50.7114 89.8264 49.7817 90.3668 50.839Z" fill="#2D3C5A"/>
</svg>
